/* XPM */
static char *slime_idle_31706086739[] = {
/* columns rows colors chars-per-pixel */
"64 64 10 1 ",
"  c None",
". c black",
"X c #0C0E1A",
"o c #1D235D",
"O c #9E2E46",
"+ c #33418A",
"@ c #425B9E",
"# c #4D8AB3",
"$ c #65B1B8",
"% c white",
/* pixels */
"                                                                ",
"                                                                ",
"                                                                ",
"                                                                ",
"                                                                ",
"                                                                ",
"                                                                ",
"                                                                ",
"                                                                ",
"                                                                ",
"                                                                ",
"                                                                ",
"                                                                ",
"                                                                ",
"                                                                ",
"                                                                ",
"                                                                ",
"                                                                ",
"                                                                ",
"                                                                ",
"                                                                ",
"                                                                ",
"                                                                ",
"                                                                ",
"                        oooooooooooooooo                        ",
"                        oooooooooooooooo                        ",
"                      oo@@@@##########@@oo                      ",
"                      oo@@@@##########@@oo                      ",
"                    oo@@@@##$$$$$$$$$$$$@@oo                    ",
"                    oo@@@@##$$$$$$$$$$$$@@oo                    ",
"                    oo@@##$$$$$$$$$$$$$$$$oo                    ",
"                    oo@@##$$$$$$$$$$$$$$$$oo                    ",
"                  oo@@####$$$$$$$$$$$$$$$$@@oo                  ",
"                  oo@@####$$$$$$$$$$$$$$$$@@oo                  ",
"                  oo@@##$$$$$$%%..$$$$..$$##oo                  ",
"                  oo@@##$$$$$$%%..$$$$..$$##oo                  ",
"                oo@@@@##$$++++....$$$$..++##@@oo                ",
"                oo@@@@##$$++++....$$$$..++##@@oo                ",
"                oo@@@@##$$$$++++++++++++$$##@@oo                ",
"                oo@@@@##$$$$++++++++++++$$##@@oo                ",
"                XXoo@@@@##$$$$OOOO++++$$##@@@@oo                ",
"                XXoo@@@@##$$$$OOOO++++$$##@@@@oo                ",
"                XXXXoo@@@@##############@@@@ooXX                ",
"                XXXXoo@@@@##############@@@@ooXX                ",
"                XXXXXXXX@@@@@@@@@@@@@@@@@@ooXXXX                ",
"                XXXXXXXX@@@@@@@@@@@@@@@@@@ooXXXX                ",
"                  XXXXXXXXXXXXXXXXXXXXXXXXXXXX                  ",
"                  XXXXXXXXXXXXXXXXXXXXXXXXXXXX                  ",
"                                                                ",
"                                                                ",
"                                                                ",
"                                                                ",
"                                                                ",
"                                                                ",
"                                                                ",
"                                                                ",
"                                                                ",
"                                                                ",
"                                                                ",
"                                                                ",
"                                                                ",
"                                                                ",
"                                                                ",
"                                                                "
};
