/* XPM */
static char *fountain_51706529671[] = {
/* columns rows colors chars-per-pixel */
"64 64 65 1 ",
"  c None",
". c #535554",
"X c #5A5C56",
"o c #6F5952",
"O c #646457",
"+ c #636259",
"@ c #796459",
"# c #78715E",
"$ c #9F773D",
"% c #806A57",
"& c #87775C",
"* c #8B7C60",
"= c #7E845A",
"- c #818156",
"; c #878A54",
": c #848A5F",
"> c #99895D",
", c #9C9C57",
"< c #97955A",
"1 c #9E9F59",
"2 c #9F9D5F",
"3 c #BFBB49",
"4 c #A9A85A",
"5 c #878367",
"6 c #9F8B69",
"7 c #899269",
"8 c #B28861",
"9 c #AD9E71",
"0 c #A2A267",
"q c #A6A567",
"w c #AEAD63",
"e c #A6A86C",
"r c #B1B068",
"t c #B3B668",
"y c #B6B572",
"u c #CC9D6F",
"i c #C0C27F",
"p c #2E9FA1",
"a c #299FAB",
"s c #329CA4",
"d c #3E9EA3",
"f c #38A5A5",
"g c #34A6A8",
"h c #3CA2A8",
"j c #3FACAC",
"k c #47A3A6",
"l c #45A7AB",
"z c #41AAA8",
"x c #48B2AF",
"c c #57B3B6",
"v c #62BABA",
"b c #6BBFBD",
"n c #64DDE3",
"m c #6EEFF5",
"M c #BFAF87",
"N c #DAC384",
"B c #DBC587",
"V c #E7CD84",
"C c #E9D392",
"Z c #EBDA99",
"A c #F5DC95",
"S c #EBE094",
"D c #D0D5D1",
"F c #DFFCFE",
"G c #F6FEFE",
/* pixels */
"                                                                ",
"                                                                ",
"                       <-  - ----     --<                       ",
"                      <<rqqqqqqqqqqqqqqr<=                      ",
"                     <<rr,,qqqqqqqqqqqqrr                       ",
"                    ==rr4333333333BBBBBrrr==                    ",
"                     rrrBAAAAAAAAAAAAAA3rrr<=                   ",
"                  ==r44BABB33BBBBBBBBBBA3rrr==                  ",
"                 ==r44BABBBB3BBBBBBBBB3BA3rrr<=                 ",
"                 =r443ABBBB@@@@@@@@@@BBBBABrrr==                ",
"                =r443ABBBB6@@@@@@@@@@6BBBBABrrr                 ",
"                rr43A3B3B63@@@@@@@@@@36BBBBB34rr                ",
"              <rr4Z3Z3B36B6nnnnnnnnnn6B6BB3Z3Z4rr<<             ",
"             =rrrZZZ3Z36B6xlllkxfzbzzl6B63Z3ZZZ4rr<<            ",
"           ==rrr3ZZZZZZ36lllxlblslzbzlx6BZZZZZZ34rr==           ",
"          =<rrr3633ZZZ66pshhpgpssshjhssp66ZZZ336Brrr            ",
"         ==rrr3A36ZZZ66zzzzzxpzzllxbxzzzz66ZZZ63ABrrr=          ",
"        ==rrrBAB33@Z6@6xbbzzkfllxzzzllxxb6@6Z@33BA344r=         ",
"        <rrrBAB3B3@6@FlmxzzllhzzxzzzzllzmzF@6@3BBBA3444         ",
"      ==rrrBABBB36@66anzxxzzlhlllllllzzzxna66@6B333AB444=       ",
"     ==rrr3ABBBB6B@6laFxCCCNNNNNNNNNNNNNlFaz6@36333BABrr4<<     ",
"      rrr3ABB3B6B6GlFbnCNNNNNNNNNNNNNNNNNnlFzG6B633BBA3444<<    ",
"   ==4443A3BB36B6zzzzblNNNSSSSSSSSSSSSNNNzzllxl6B63BBBA3444=    ",
"   =4443AB3B36B6sssfjfpNNCCCCCCCCCCCCCCNNhcpssss6B6BBBBA3444    ",
"   4443A33336B6zzllllzzNNCCCCCCCCCCCCCCNNzllcDxzz6B6BBB3A34447  ",
" 7etttBBBB36B6zzzzzblllNNCCCCCCCCCCCCCCNNllxdzzzzz6B6BB333ttt 7 ",
" eetttBBBBB36xzzzllxxxlNNCCCCCCCCCCCCCCNNzzzfxzzzll63BB333ttt7  ",
"  7iiiBBBBB6zzkxzxxllllNNCCCCCCCCCCCCCCNNzzzpzkxzxxl6BBB33tit7  ",
"  7iiiBBBB3nzlzkxllzzzzNNCCCCCCCCCCCCCCNNzzzplzkxllznBBBB3tiie  ",
"  7iiiBBBB3GllkxzzbzzllNN*CCCCCCCCCCCC*NNxxlslkxzzbzGBBBB3tiie  ",
" 7eiiiBBB33njhvssspcpsgNNNNNNNNNNNNNNNNNNshsgsvhssfcGBBBB3tiie  ",
"  7iiiBB33BnzxzllllxllluNNNNMNNNNNNNNNNNulllzxzlsllxnBBB33tiie7 ",
"   iiiBBBBBnxzzzllxbxzz.8888X88888888888.zzzxzzzhlxbnBBBB3tii7  ",
"  7iiiBBBB33kzllxzzzllx5....XX..........5bzzkzlljzzzBB3B>3tii7  ",
"  7iyy&BB333Blzzxzzzzll55OXXXXXXXXXXXXO55zzlllzzgzzBB3B>3&yyie7 ",
" 77%yy&&33333Blllllllzz555............555xzzllllslBBBB>3&&yy%ee ",
" $22%yy&&3BB3BBllxxxlll#9999999999999999#zzzxzzlsBBB3>3&&yy%22$ ",
"    :%wy&&3BB3BBlllllbl##++++++++++++++##lllzxzzBBB3>B&&yy%::   ",
"     :%ww&&3BBBBBzzzzblb#++++++++++++++#zzzllxlBBVB>B&&yy%2     ",
"      :%ww&&VBB3BBlzxzzzlhbzlllllllzxzzzllbzllBB3B>3&&yy%:2     ",
"      22%ww&&VBB3BBllzzzzfllbDxzzllllzzzzzllbBB3B>3&&yy%::$     ",
"       22%ww&&33B333lllllhlxkzzzzzzblllllllxBBB3>3&&yy%2        ",
"        : %wy&&BBBB33xllxfzzzxzzzllxxxllxzzBBBB>3&&yy%:2        ",
"          2%yy&&BBBV33lxzpzzzzkxzxxllllxzzBBBB>3&&yy%::         ",
"           2%wy&&BBBVB3ssppppsfdgsspfffhsBBBB>3&&yy%:           ",
"           ::%ww&&VBBVB3xxxlllkxzzbzzlll3BBB>3&&yy%:            ",
"            :2%ww&&VBBVBBlllxlblllzbzlxBB3B>B&&yy%:             ",
"              2%ww&&VBBB3BllzxzllllxllBBB3>B&&yy%:              ",
"               2%ww&&VBBB33zxzzzllxbxBBB3>B&&yy%2:              ",
"               ::%ww&&BBB3B3333BBBBBBBBB>3&&yy%22               ",
"                 :%ww&&BBBBBBBB3BBBBBBB>3&&yy%2 $               ",
"                 :2%ww&&333BBBBBBBBB33>3&&yy%:                  ",
"                   2%yy&&33BBBBBBBBBB>3&&yy%:                   ",
"                    2%yy&&33BB3B3BBBB3&&yy%2                    ",
"                   $:2%yy&&@@@@@@@@@@&&wy%:                     ",
"                    $:2%yy&@@@@@@@@@@&ww%::                     ",
"                       :%yy0000000111ww%::                      ",
"                      $ :%y0000001111w%2:                       ",
"                         2%oooooooooo%22                        ",
"                         22;;;;;;;;;;22$                        ",
"                         $;;;;;    ;                            ",
"                          $  $                                  ",
"                                                                ",
"                                                                "
};
