/* XPM */
static char *attack_up_21706178945[] = {
/* columns rows colors chars-per-pixel */
"64 64 11 1 ",
"  c None",
". c black",
"X c #0C0E1A",
"o c #402717",
"O c #573A23",
"+ c #AC7B5D",
"@ c #1D438A",
"# c #A4A8B5",
"$ c #C1AC8F",
"% c #DBD2C7",
"& c white",
/* pixels */
"                                                                ",
"                                                                ",
"                                                                ",
"                                                                ",
"                                                                ",
"                                                                ",
"                                                                ",
"                                                                ",
"                                                                ",
"                                                                ",
"                                                                ",
"                                                                ",
"                                                                ",
"                                                                ",
"                            ....  ........                      ",
"                            ....  ........                      ",
"                        ......OO..ooOOOO..                      ",
"                        ......OO..ooOOOO..                      ",
"                      ..ooOOOOOOooOOOO....                      ",
"                      ..ooOOOOOOooOOOO....                      ",
"                      ..OOOOOOOOOOOOOOOOoo..                    ",
"                      ..OOOOOOOOOOOOOOOOoo..                    ",
"                    ..ooOOOOOOOOOOOOOOOOOOoo..                  ",
"                    ..ooOOOOOOOOOOOOOOOOOOoo..                  ",
"                    ..ooOOOOOOOOOOOOOOOOOOoo..                  ",
"                    ..ooOOOOOOOOOOOOOOOOOOoo..                  ",
"              &&&&&&..ooOOOOOOOOOOOOOOOOOOoo..                  ",
"              &&&&&&..ooOOOOOOOOOOOOOOOOOOoo..                  ",
"            &&&&&&  ..ooooOOOOOOOOOOOOOOoooo..                  ",
"            &&&&&&  ..ooooOOOOOOOOOOOOOOoooo..                  ",
"          &&&&&&      ..ooooooOOOOOOoooooooo..                  ",
"          &&&&&&      ..ooooooOOOOOOoooooooo..                  ",
"          &&&&        ..oooooooooooooooooo..                    ",
"          &&&&        ..oooooooooooooooooo..                    ",
"        &&&&&&        ..++oooooooooooooo++..                    ",
"        &&&&&&        ..++oooooooooooooo++..                    ",
"        &&&&            ..++++oooooo++++..                      ",
"        &&&&            ..++++oooooo++++..                      ",
"        &&&&          ..$$OO++++++++++OO....                    ",
"        &&&&          ..$$OO++++++++++OO....                    ",
"          &&      ....++$$OOOOOOOOOOOOOO++++..                  ",
"          &&      ....++$$OOOOOOOOOOOOOO++++..                  ",
"                ..oooo++++OOOOOOOOOOOOOO++++..                  ",
"                ..oooo++++OOOOOOOOOOOOOO++++..                  ",
"            ....%%%%oooo..ooOOOOOOoooo@@....                    ",
"            ....%%%%oooo..ooOOOOOOoooo@@....                    ",
"          ..%%%%%%####oooo@@@@@@..OOOOOO..XX                    ",
"          ..%%%%%%####oooo@@@@@@..OOOOOO..XX                    ",
"          ..%%######......oooo....OOOOOO..XXXX                  ",
"          ..%%######......oooo....OOOOOO..XXXX                  ",
"          ..........XXXXXXXXXXXXXXXXXXXXXXXXXX                  ",
"          ..........XXXXXXXXXXXXXXXXXXXXXXXXXX                  ",
"                      XXXXXXXXXXXXXXXXXXXXXX                    ",
"                      XXXXXXXXXXXXXXXXXXXXXX                    ",
"                                                                ",
"                                                                ",
"                                                                ",
"                                                                ",
"                                                                ",
"                                                                ",
"                                                                ",
"                                                                ",
"                                                                ",
"                                                                "
};
