/* XPM */
static char *attack_up_31706178945[] = {
/* columns rows colors chars-per-pixel */
"64 64 8 1 ",
"  c None",
". c black",
"X c #0C0E1A",
"o c #402717",
"O c #573A23",
"+ c #AC7B5D",
"@ c #1D438A",
"# c #C1AC8F",
/* pixels */
"                                                                ",
"                                                                ",
"                                                                ",
"                                                                ",
"                                                                ",
"                                                                ",
"                                                                ",
"                                                                ",
"                                                                ",
"                                                                ",
"                                                                ",
"                                                                ",
"                                                                ",
"                                                                ",
"                                                                ",
"                                                                ",
"                            ....  ........                      ",
"                            ....  ........                      ",
"                        ......OO..ooOOOO..                      ",
"                        ......OO..ooOOOO..                      ",
"                      ..ooOOOOOOooOOOO....                      ",
"                      ..ooOOOOOOooOOOO....                      ",
"                      ..OOOOOOOOOOOOOOOOoo..                    ",
"                      ..OOOOOOOOOOOOOOOOoo..                    ",
"                    ..ooOOOOOOOOOOOOOOOOOOoo..                  ",
"                    ..ooOOOOOOOOOOOOOOOOOOoo..                  ",
"                    ..ooOOOOOOOOOOOOOOOOOOoo..                  ",
"                    ..ooOOOOOOOOOOOOOOOOOOoo..                  ",
"                    ..ooOOOOOOOOOOOOOOOOOOoo..                  ",
"                    ..ooOOOOOOOOOOOOOOOOOOoo..                  ",
"                    ..ooooOOOOOOOOOOOOOOoooo..                  ",
"                    ..ooooOOOOOOOOOOOOOOoooo..                  ",
"                      ..ooooooOOOOOOoooooooo..                  ",
"                      ..ooooooOOOOOOoooooooo..                  ",
"                      ..oooooooooooooooooo..                    ",
"                      ..oooooooooooooooooo..                    ",
"                      ..++oooooooooooooo++..                    ",
"                      ..++oooooooooooooo++..                    ",
"                      ..##++++oooooo++++..                      ",
"                      ..##++++oooooo++++..                      ",
"                    ..++##OO++++++++++OO....                    ",
"                    ..++##OO++++++++++OO....                    ",
"                    ..++++OOOOOOOOOOOOOO++++..                  ",
"                    ..++++OOOOOOOOOOOOOO++++..                  ",
"                      ....ooOOOOOOoooo@@++++..                  ",
"                      ....ooOOOOOOoooo@@++++..                  ",
"                      XX..@@@@@@..OOOOOO....                    ",
"                      XX..@@@@@@..OOOOOO....                    ",
"                    XXXX..oooo....OOOOOO..XXXX                  ",
"                    XXXX..oooo....OOOOOO..XXXX                  ",
"                    XXXXXXXXXXXXXXXXXXXXXXXXXX                  ",
"                    XXXXXXXXXXXXXXXXXXXXXXXXXX                  ",
"                      XXXXXXXXXXXXXXXXXXXXXX                    ",
"                      XXXXXXXXXXXXXXXXXXXXXX                    ",
"                                                                ",
"                                                                ",
"                                                                ",
"                                                                ",
"                                                                ",
"                                                                ",
"                                                                ",
"                                                                ",
"                                                                ",
"                                                                "
};
