/* XPM */
static char *attack_down_31706178866[] = {
/* columns rows colors chars-per-pixel */
"64 64 10 1 ",
"  c None",
". c black",
"X c #0C0E1A",
"o c #21110D",
"O c #402717",
"+ c #573A23",
"@ c #AC7B5D",
"# c #787E97",
"$ c #A4A8B5",
"% c #C1AC8F",
/* pixels */
"                                                                ",
"                                                                ",
"                                                                ",
"                                                                ",
"                                                                ",
"                                                                ",
"                                                                ",
"                                                                ",
"                                                                ",
"                                                                ",
"                                                                ",
"                                                                ",
"                                                                ",
"                                                                ",
"                                                                ",
"                                                                ",
"                        ........  ....                          ",
"                        ........  ....                          ",
"                        ..++++OO..++......                      ",
"                        ..++++OO..++......                      ",
"                        ....++++OO++++++OO..                    ",
"                        ....++++OO++++++OO..                    ",
"                      ..OO++++++++++++++++..                    ",
"                      ..OO++++++++++++++++..                    ",
"                    ..OO++++++++OO++++++++OO..                  ",
"                    ..OO++++++++OO++++++++OO..                  ",
"                    ..++++++OOOOOOOO++++++++..                  ",
"                    ..++++++OOOOOOOO++++++++..                  ",
"                    ..++++++OO@@@@@@@@OO++++..                  ",
"                    ..++++++OO@@@@@@@@OO++++..                  ",
"                    ..++++OO@@@@@@@@@@@@OO++..                  ",
"                    ..++++OO@@@@@@@@@@@@OO++..                  ",
"                    ..OO++@@oo%%%%%%oo@@OO..                    ",
"                    ..OO++@@oo%%%%%%oo@@OO..                    ",
"                      ..++%%oo%%%%%%oo%%%%..                    ",
"                      ..++%%oo%%%%%%oo%%%%..                    ",
"                      ..@@%%%%%%%%%%%%%%@@..                    ",
"                      ..@@%%%%%%%%%%%%%%@@..                    ",
"                        ..@@%%%%%%%%%%@@OO..                    ",
"                        ..@@%%%%%%%%%%@@OO..                    ",
"                        ..OO@@@@@@@@@@OO++..                    ",
"                        ..OO@@@@@@@@@@OO++..                    ",
"                      ..%%%%++######++++++@@..                  ",
"                      ..%%%%++######++++++@@..                  ",
"                      ..%%%%++##$$$$++++++@@..                  ",
"                      ..%%%%++##$$$$++++++@@..                  ",
"                        ..OO++++....OOOOOO..                    ",
"                        ..OO++++....OOOOOO..                    ",
"                    XXXX..++++++..XX..OOOO..XX                  ",
"                    XXXX..++++++..XX..OOOO..XX                  ",
"                    XXXXXXXXXXXXXXXXXXXXXXXXXX                  ",
"                    XXXXXXXXXXXXXXXXXXXXXXXXXX                  ",
"                      XXXXXXXXXXXXXXXXXXXXXX                    ",
"                      XXXXXXXXXXXXXXXXXXXXXX                    ",
"                                                                ",
"                                                                ",
"                                                                ",
"                                                                ",
"                                                                ",
"                                                                ",
"                                                                ",
"                                                                ",
"                                                                ",
"                                                                "
};
