/* XPM */
static char *attack_left_21706178891[] = {
/* columns rows colors chars-per-pixel */
"64 64 13 1 ",
"  c None",
". c black",
"X c #0C0E1A",
"o c #21110D",
"O c #402717",
"+ c #573A23",
"@ c #AC7B5D",
"# c #1D438A",
"$ c #2C65B5",
"% c #787E97",
"& c #A4A8B5",
"* c #C1AC8F",
"= c white",
/* pixels */
"                                                                ",
"                                                                ",
"                                                                ",
"                                                                ",
"                                                                ",
"                                                                ",
"                                                                ",
"                                                                ",
"                                                                ",
"                                                                ",
"                                                                ",
"                                                                ",
"                              ....  ........                    ",
"                              ....  ........                    ",
"                          ......++..OO++++..                    ",
"                          ......++..OO++++..                    ",
"                        ..++++OO++OO++++....                    ",
"                        ..++++OO++OO++++....                    ",
"                        ..++++++++++++++++OO..                  ",
"                        ..++++++++++++++++OO..                  ",
"                      ..++++++++++++++++++++OO..                ",
"                      ..++++++++++++++++++++OO..                ",
"                      ..++++++OO++++++++OO++OO..                ",
"                      ..++++++OO++++++++OO++OO..                ",
"                    ..OO++OO@@OO++++++++OOOOOO..                ",
"                    ..OO++OO@@OO++++++++OOOOOO..                ",
"                    ..OOOO@@@@@@OO++++++OO++OO..                ",
"                    ..OOOO@@@@@@OO++++++OO++OO..                ",
"                    ..OO@@****@@@@OO++OO@@++OO..                ",
"                    ..OO@@****@@@@OO++OO@@++OO..                ",
"                      ..**oo****oo@@OO@@@@OOOO..                ",
"                      ..**oo****oo@@OO@@@@OOOO..                ",
"                      ..**oo****oo**@@@@OOOO..                  ",
"                      ..**oo****oo**@@@@OOOO..                  ",
"                      ..@@********@@OOOOOO..                    ",
"                      ..@@********@@OOOOOO..                    ",
"                        ..@@@@@@@@OO++++OO..                    ",
"                        ..@@@@@@@@OO++++OO..                    ",
"                      ..@@OO%%%%%%++++++..                      ",
"                      ..@@OO%%%%%%++++++..                      ",
"                      ..@@OO&&&&&&++++****..            ==      ",
"                      ..@@OO&&&&&&++++****..            ==      ",
"                      ..OOOO&&&&&&OO++******..        ====      ",
"                      ..OOOO&&&&&&OO++******..        ====      ",
"                      ..OO$$$$$$$$##OO@@****..    ======        ",
"                      ..OO$$$$$$$$##OO@@****..    ======        ",
"                    XXXX..$$$$##$$$$##......  ========          ",
"                    XXXX..$$$$##$$$$##......  ========          ",
"                  XXXXXX..++OO....++OO..XX========              ",
"                  XXXXXX..++OO....++OO..XX========              ",
"                  XXXXXXXXXXXXXXXXXXXXXXXXXX                    ",
"                  XXXXXXXXXXXXXXXXXXXXXXXXXX                    ",
"                    XXXXXXXXXXXXXXXXXXXXXX                      ",
"                    XXXXXXXXXXXXXXXXXXXXXX                      ",
"                                                                ",
"                                                                ",
"                                                                ",
"                                                                ",
"                                                                ",
"                                                                ",
"                                                                ",
"                                                                ",
"                                                                ",
"                                                                "
};
