/* XPM */
static char *attack_right_21706178904[] = {
/* columns rows colors chars-per-pixel */
"64 64 13 1 ",
"  c None",
". c black",
"X c #0C0E1A",
"o c #21110D",
"O c #402717",
"+ c #573A23",
"@ c #AC7B5D",
"# c #1D438A",
"$ c #2C65B5",
"% c #787E97",
"& c #A4A8B5",
"* c #C1AC8F",
"= c white",
/* pixels */
"                                                                ",
"                                                                ",
"                                                                ",
"                                                                ",
"                                                                ",
"                                                                ",
"                                                                ",
"                                                                ",
"                                                                ",
"                                                                ",
"                                                                ",
"                                                                ",
"                    ........  ....                              ",
"                    ........  ....                              ",
"                    ..++++OO..++......                          ",
"                    ..++++OO..++......                          ",
"                    ....++++OO++OO++++..                        ",
"                    ....++++OO++OO++++..                        ",
"                  ..OO++++++++++++++++..                        ",
"                  ..OO++++++++++++++++..                        ",
"                ..OO++++++++++++++++++++..                      ",
"                ..OO++++++++++++++++++++..                      ",
"                ..OO++OO++++++++OO++++++..                      ",
"                ..OO++OO++++++++OO++++++..                      ",
"                ..OOOOOO++++++++OO@@OO++OO..                    ",
"                ..OOOOOO++++++++OO@@OO++OO..                    ",
"                ..OO++OO++++++OO@@@@@@OOOO..                    ",
"                ..OO++OO++++++OO@@@@@@OOOO..                    ",
"                ..OO++@@OO++OO@@@@****@@OO..                    ",
"                ..OO++@@OO++OO@@@@****@@OO..                    ",
"                ..OOOO@@@@OO@@oo****oo**..                      ",
"                ..OOOO@@@@OO@@oo****oo**..                      ",
"                  ..OOOO@@@@**oo****oo**..                      ",
"                  ..OOOO@@@@**oo****oo**..                      ",
"                    ..OOOOOO@@********@@..                      ",
"                    ..OOOOOO@@********@@..                      ",
"                    ..OO++++OO@@@@@@@@..                        ",
"                    ..OO++++OO@@@@@@@@..                        ",
"                      ..++++++%%%%%%OO@@..                      ",
"                      ..++++++%%%%%%OO@@..                      ",
"      ==            ..****++++&&&&&&OO@@..                      ",
"      ==            ..****++++&&&&&&OO@@..                      ",
"      ====        ..******++OO&&&&&&OOOO..                      ",
"      ====        ..******++OO&&&&&&OOOO..                      ",
"        ======    ..****@@OO##$$$$$$$$OO..                      ",
"        ======    ..****@@OO##$$$$$$$$OO..                      ",
"          ========  ......##$$$$##$$$$..XXXX                    ",
"          ========  ......##$$$$##$$$$..XXXX                    ",
"              ========XX..OO++....OO++..XXXXXX                  ",
"              ========XX..OO++....OO++..XXXXXX                  ",
"                    XXXXXXXXXXXXXXXXXXXXXXXXXX                  ",
"                    XXXXXXXXXXXXXXXXXXXXXXXXXX                  ",
"                      XXXXXXXXXXXXXXXXXXXXXX                    ",
"                      XXXXXXXXXXXXXXXXXXXXXX                    ",
"                                                                ",
"                                                                ",
"                                                                ",
"                                                                ",
"                                                                ",
"                                                                ",
"                                                                ",
"                                                                ",
"                                                                ",
"                                                                "
};
