/* XPM */
static char *attack_up_01706178945[] = {
/* columns rows colors chars-per-pixel */
"64 64 10 1 ",
"  c None",
". c black",
"X c #0C0E1A",
"o c #402717",
"O c #573A23",
"+ c #AC7B5D",
"@ c #1D438A",
"# c #2C65B5",
"$ c #A4A8B5",
"% c #DBD2C7",
/* pixels */
"                                                                ",
"                                                                ",
"                                                                ",
"                                                                ",
"                                                                ",
"                                                                ",
"                                                                ",
"                                                                ",
"                                                                ",
"                                                                ",
"                                                                ",
"                                                                ",
"                                                                ",
"                                                                ",
"                              ....  ........                    ",
"                              ....  ........                    ",
"                          ......OO..ooOOOO..                    ",
"                          ......OO..ooOOOO..                    ",
"                        ..ooOOOOOOooOOOO....                    ",
"                        ..ooOOOOOOooOOOO....                    ",
"                        ..OOOOOOOOOOOOOOOOoo..                  ",
"                        ..OOOOOOOOOOOOOOOOoo..                  ",
"                      ..ooOOOOOOOOOOOOOOOOOOoo..                ",
"                      ..ooOOOOOOOOOOOOOOOOOOoo..                ",
"                      ..ooOOOOOOOOOOOOOOOOOOoo..                ",
"                      ..ooOOOOOOOOOOOOOOOOOOoo..                ",
"                      ..ooOOOOOOOOOOOOOOOOOOoo..                ",
"                      ..ooOOOOOOOOOOOOOOOOOOoo..                ",
"                      ..ooooOOOOOOOOOOOOOOoooo..                ",
"                      ..ooooOOOOOOOOOOOOOOoooo..                ",
"                        ..ooooooOOOOOOoooooooo..                ",
"                        ..ooooooOOOOOOoooooooo..                ",
"                        ..oooooooooooooooooo..                  ",
"                        ..oooooooooooooooooo..                  ",
"                        ..++oooooooooooooo++....                ",
"                        ..++oooooooooooooo++....                ",
"                          ..++++oooooo++++++..oo..              ",
"                          ..++++oooooo++++++..oo..              ",
"                          ..OO++++++++++OO..oooo..              ",
"                          ..OO++++++++++OO..oooo..              ",
"                        ..OOOOOOOOOOOOOOOOoooooo..              ",
"                        ..OOOOOOOOOOOOOOOOoooooo..              ",
"                        ..OOOOOOOOOOOOOOoooooo$$%%..            ",
"                        ..OOOOOOOOOOOOOOoooooo$$%%..            ",
"                        ..@@####@@####@@..oo..$$%%%%..          ",
"                        ..@@####@@####@@..oo..$$%%%%..          ",
"                      XX..@@@@@@..OOOOOO......  %%%%..          ",
"                      XX..@@@@@@..OOOOOO......  %%%%..          ",
"                    XXXX..oooo....OOOOOO..XXXX..$$%%..          ",
"                    XXXX..oooo....OOOOOO..XXXX..$$%%..          ",
"                    XXXXXXXXXXXXXXXXXXXXXXXXXX  ......          ",
"                    XXXXXXXXXXXXXXXXXXXXXXXXXX  ......          ",
"                      XXXXXXXXXXXXXXXXXXXXXX                    ",
"                      XXXXXXXXXXXXXXXXXXXXXX                    ",
"                                                                ",
"                                                                ",
"                                                                ",
"                                                                ",
"                                                                ",
"                                                                ",
"                                                                ",
"                                                                ",
"                                                                ",
"                                                                "
};
