/* XPM */
static char *attack_left_01706178891[] = {
/* columns rows colors chars-per-pixel */
"64 64 12 1 ",
"  c None",
". c black",
"X c #0C0E1A",
"o c #21110D",
"O c #402717",
"+ c #573A23",
"@ c #0D205E",
"# c #AC7B5D",
"$ c #1D438A",
"% c #2C65B5",
"& c #A4A8B5",
"* c #C1AC8F",
/* pixels */
"                                                                ",
"                                                                ",
"                                                                ",
"                                                                ",
"                                                                ",
"                                                                ",
"                                                                ",
"                                                                ",
"                                                                ",
"                                                                ",
"                                                                ",
"                                                                ",
"                                                                ",
"                                                                ",
"                      ....  ........                            ",
"                      ....  ........                            ",
"                  ......++..OO++++..                            ",
"                  ......++..OO++++..                            ",
"                ..++++OO++OO++++....                            ",
"                ..++++OO++OO++++....                            ",
"              ..++++++++++++++++++OO..                          ",
"              ..++++++++++++++++++OO..                          ",
"            ..++++++++++++++++++++++OO..                        ",
"            ..++++++++++++++++++++++OO..                        ",
"            ..++++++OOOO++++++OO++++OO..                        ",
"            ..++++++OOOO++++++OO++++OO..                        ",
"          ..OO++OO####OO++++++OOOOOOOO..                        ",
"          ..OO++OO####OO++++++OOOOOOOO..                        ",
"          ..OOOO########OO++++OOOO++OO..                        ",
"          ..OOOO########OO++++OOOO++OO..                        ",
"          ..OO..oo****oo##++OO##++++OO..                        ",
"          ..OO..oo****oo##++OO##++++OO..                        ",
"            ....oo****oo**OO####++OOOO..                        ",
"            ....oo****oo**OO####++OOOO..                        ",
"              ..##********######OOOO..                          ",
"              ..##********######OOOO..                          ",
"              ..&&########OOOOOOOO..                            ",
"              ..&&########OOOOOOOO..                            ",
"              ..&&&&OO++++++++++..                              ",
"              ..&&&&OO++++++++++..                              ",
"              ..&&******++++OO++++..                            ",
"              ..&&******++++OO++++..                            ",
"                ..**OOOO**OOOOOO++++..                          ",
"                ..**OOOO**OOOOOO++++..                          ",
"                  ....$$$$%%%%OOOOOO..                          ",
"                  ....$$$$%%%%OOOOOO..                          ",
"                  ..++++@@$$%%%%++++..XX                        ",
"                  ..++++@@$$%%%%++++..XX                        ",
"                XX..++OO......OO++++..XXXX                      ",
"                XX..++OO......OO++++..XXXX                      ",
"                XXXXXXXXXXXXXXXXXXXXXXXXXX                      ",
"                XXXXXXXXXXXXXXXXXXXXXXXXXX                      ",
"                  XXXXXXXXXXXXXXXXXXXXXX                        ",
"                  XXXXXXXXXXXXXXXXXXXXXX                        ",
"                                                                ",
"                                                                ",
"                                                                ",
"                                                                ",
"                                                                ",
"                                                                ",
"                                                                ",
"                                                                ",
"                                                                ",
"                                                                "
};
