/* XPM */
static char *attack_left_31706178891[] = {
/* columns rows colors chars-per-pixel */
"64 64 11 1 ",
"  c None",
". c black",
"X c #0C0E1A",
"o c #21110D",
"O c #402717",
"+ c #573A23",
"@ c #AC7B5D",
"# c #1D438A",
"$ c #2C65B5",
"% c #A4A8B5",
"& c #C1AC8F",
/* pixels */
"                                                                ",
"                                                                ",
"                                                                ",
"                                                                ",
"                                                                ",
"                                                                ",
"                                                                ",
"                                                                ",
"                                                                ",
"                                                                ",
"                                                                ",
"                                                                ",
"                                                                ",
"                                                                ",
"                                                                ",
"                                                                ",
"                            ....  ........                      ",
"                            ....  ........                      ",
"                        ......++..OO++++..                      ",
"                        ......++..OO++++..                      ",
"                      ..++++OO++OO++++....                      ",
"                      ..++++OO++OO++++....                      ",
"                    ..++++++++++++++++++OO..                    ",
"                    ..++++++++++++++++++OO..                    ",
"                  ..++++++++++++++++++++++OO..                  ",
"                  ..++++++++++++++++++++++OO..                  ",
"                  ..++++++OOOO++++++OO++++OO..                  ",
"                  ..++++++OOOO++++++OO++++OO..                  ",
"                ..OO++OO@@@@OO++++++OOOOOOOO..                  ",
"                ..OO++OO@@@@OO++++++OOOOOOOO..                  ",
"                ..OOOO@@@@@@@@OO++++OOOO++OO..                  ",
"                ..OOOO@@@@@@@@OO++++OOOO++OO..                  ",
"                ..OO..oo&&&&oo@@++OO@@++++OO..                  ",
"                ..OO..oo&&&&oo@@++OO@@++++OO..                  ",
"                  ....oo&&&&oo&&OO@@@@++OOOO..                  ",
"                  ....oo&&&&oo&&OO@@@@++OOOO..                  ",
"                    ..&&&&&&&&&&&&@@@@OOOO..                    ",
"                    ..&&&&&&&&&&&&@@@@OOOO..                    ",
"                    ..@@&&&&&&&&@@@@@@@@..                      ",
"                    ..@@&&&&&&&&@@@@@@@@..                      ",
"                      ..@@@@@@@@@@@@OO..                        ",
"                      ..@@@@@@@@@@@@OO..                        ",
"                    ..@@OO%%%%%%OOOO&&&&..                      ",
"                    ..@@OO%%%%%%OOOO&&&&..                      ",
"                    ..@@OO$$$$$$$$OO&&&&..                      ",
"                    ..@@OO$$$$$$$$OO&&&&..                      ",
"                    XX..OO$$$$##$$$$##OO..                      ",
"                    XX..OO$$$$##$$$$##OO..                      ",
"                  XXXXXX..++OO....++OO..XXXX                    ",
"                  XXXXXX..++OO....++OO..XXXX                    ",
"                  XXXXXXXXXXXXXXXXXXXXXXXXXX                    ",
"                  XXXXXXXXXXXXXXXXXXXXXXXXXX                    ",
"                    XXXXXXXXXXXXXXXXXXXXXX                      ",
"                    XXXXXXXXXXXXXXXXXXXXXX                      ",
"                                                                ",
"                                                                ",
"                                                                ",
"                                                                ",
"                                                                ",
"                                                                ",
"                                                                ",
"                                                                ",
"                                                                ",
"                                                                "
};
