/* XPM */
static char *attack_right_11706178903[] = {
/* columns rows colors chars-per-pixel */
"64 64 14 1 ",
"  c None",
". c black",
"X c #0C0E1A",
"o c #21110D",
"O c #402717",
"+ c #573A23",
"@ c #0D205E",
"# c #AC7B5D",
"$ c #1D438A",
"% c #2C65B5",
"& c #787E97",
"* c #A4A8B5",
"= c #C1AC8F",
"- c white",
/* pixels */
"                                                                ",
"                                                                ",
"                                                                ",
"                                                                ",
"                                                                ",
"                                                                ",
"                                                                ",
"                                                                ",
"                                                                ",
"                                                                ",
"                                                                ",
"                                                                ",
"              ........  ....                                    ",
"              ........  ....                                    ",
"              ..++++OO..++......                                ",
"              ..++++OO..++......                                ",
"              ....++++OO++OO++++..                              ",
"              ....++++OO++OO++++..                              ",
"            ..OO++++++++++++++++++..                            ",
"            ..OO++++++++++++++++++..                            ",
"          ..OO++++++++++++++++++++++..                          ",
"          ..OO++++++++++++++++++++++..                          ",
"          ..OO++++OO++++++OOOO++++++..                          ",
"          ..OO++++OO++++++OOOO++++++..                          ",
"          ..OOOOOOOO++++++OO####OO++OO..                        ",
"          ..OOOOOOOO++++++OO####OO++OO..                        ",
"          ..OO++OOOO++++OO########OOOO..                        ",
"          ..OO++OOOO++++OO########OOOO..                        ",
"          ..OO++++##OO++##oo====oo==OO..                        ",
"          ..OO++++##OO++##oo====oo==OO..                        ",
"          ..OOOO++####OO==oo====oo....                          ",
"          ..OOOO++####OO==oo====oo....                          ",
"            ..OOOO########========....        ----------        ",
"            ..OOOO########========....        ----------        ",
"              ..OO..##############..              ----------    ",
"              ..OO..##############..              ----------    ",
"........        ....++++OO&&&&OO....                ------------",
"........        ....++++OO&&&&OO....                ------------",
"..******....    ..====++++&&****OO##..                ----------",
"..******....    ..====++++&&****OO##..                ----------",
"..**********....======OO++OO****OO##..                ----------",
"..**********....======OO++OO****OO##..                ----------",
"  ..**********..======..++++****OO....                ----------",
"  ..**********..======..++++****OO....                ----------",
"    ..**********......OO++%%%%%%%%$$..              ------------",
"    ..**********......OO++%%%%%%%%$$..              ------------",
"      ..************....++%%%%@@$$++++..XX        --------------",
"      ..************....++%%%%@@$$++++..XX        --------------",
"        ....************........OO++++..XXXX  ------------------",
"        ....************........OO++++..XXXX  ------------------",
"            ....----************..XXXX--------------------------",
"            ....----************..XXXX--------------------------",
"                  --------------------------------------------  ",
"                  --------------------------------------------  ",
"                      ------------------------------------      ",
"                      ------------------------------------      ",
"                            ----------------------              ",
"                            ----------------------              ",
"                                                                ",
"                                                                ",
"                                                                ",
"                                                                ",
"                                                                ",
"                                                                "
};
