/* XPM */
static char *bottom_left_21706091960[] = {
/* columns rows colors chars-per-pixel */
"64 64 22 1 ",
"  c #836054",
". c #876254",
"X c #8B6A5C",
"o c #966B52",
"O c #A07759",
"+ c #83A448",
"@ c #AD906F",
"# c #33B8C5",
"$ c #30BDCB",
"% c #2BC1C7",
"& c #34CBD1",
"* c #64DDE3",
"= c #4EE3E9",
"- c #8F9B92",
"; c #8E9C91",
": c #8A9A97",
"> c #909E93",
", c #92A196",
"< c #93A097",
"1 c #94A498",
"2 c #B6A582",
"3 c #EDFAFE",
/* pixels */
"%%%%%%==OOOOooXXXX++++..++++++++++++++++++++++++++++++++..++++++",
"%%%%%%==OOOOooXXXX++++..++++++++++++++++++++++++++++++++..++++++",
"%%%%%%&&OOOOooXXXXXXXX..++++..++++++++++++++++++++..++++..++++++",
"%%%%%%&&OOOOooXXXXXXXX..++++..++++++++++++++++++++..++++..++++++",
"%%%%%%%%&&OOoooo@@@@@@@@XXXX..++++..++++++++++++++......++++++++",
"%%%%%%%%&&OOoooo@@@@@@@@XXXX..++++..++++++++++++++......++++++++",
"$$$$$$$$&&&&oooo222222@@@@@@oo....oo......++++++++oooo..++++++++",
"$$$$$$$$&&&&oooo222222@@@@@@oo....oo......++++++++oooo..++++++++",
"&&****&&$$&&&&222222@@@@@@@@@@@@oo@@OOOOOO++++....@@oooo....++++",
"&&****&&$$&&&&222222@@@@@@@@@@@@oo@@OOOOOO++++....@@oooo....++++",
"&&$$$$$$$$$$==2222++++@@@@@@@@@@oo2222@@@@XXXX@@@@++++oo++++++++",
"&&$$$$$$$$$$==2222++++@@@@@@@@@@oo2222@@@@XXXX@@@@++++oo++++++++",
"%%&&%%%%%%,,&&2222++++@@@@@@@@XX222222@@@@@@@@@@@@++++@@++++++++",
"%%&&%%%%%%,,&&2222++++@@@@@@@@XX222222@@@@@@@@@@@@++++@@++++++++",
"%%&&&&%%%%%%&&OO22XXXX@@@@@@@@..222222@@@@@@@@OO@@XXXX@@....++++",
"%%&&&&%%%%%%&&OO22XXXX@@@@@@@@..222222@@@@@@@@OO@@XXXX@@....++++",
"&&&&&&&&%%%%&&OOOO2222@@@@oooo..oo22222222@@XX..oo@@@@OOOO++++++",
"&&&&&&&&%%%%&&OOOO2222@@@@oooo..oo22222222@@XX..oo@@@@OOOO++++++",
"&&$$%%%%&&&&&&OOOOOOOOOOOOoooo..ooOOOOOOOOoo....ooooOOOOOO++++++",
"&&$$%%%%&&&&&&OOOOOOOOOOOOoooo..ooOOOOOOOOoo....ooooOOOOOO++++++",
"$$$$$$$$$$%%&&OOOOOOOOOOOOooooXXoo@@@@OOoooo..XX@@@@@@@@OO....++",
"$$$$$$$$$$%%&&OOOOOOOOOOOOooooXXoo@@@@OOoooo..XX@@@@@@@@OO....++",
"$$$$$$$$$$$$==OOOOOOOOOOOOooooXXoo2222@@XXXX222222@@@@@@@@++++++",
"$$$$$$$$$$$$==OOOOOOOOOOOOooooXXoo2222@@XXXX222222@@@@@@@@++++++",
"$$$$$$$$$$$$====OOOOOOOOOOoooo::--OO22@@XX2222222222@@++++++++++",
"$$$$$$$$$$$$====OOOOOOOOOOoooo::--OO22@@XX2222222222@@++++++++++",
"%%%%%%$$$$$$$$========OOOOoooo&&&&OOOOOO..2222222222@@++++XXXX++",
"%%%%%%$$$$$$$$========OOOOoooo&&&&OOOOOO..2222222222@@++++XXXX++",
"%%%%%%%%%%%%$$,><<<<======&&&&&&&&&&OOOO..OOOO222222@@XXXXoooo++",
"%%%%%%%%%%%%$$>,<<<<======&&&&&&&&&&OOOO..OOOO222222@@XXXXoooo++",
"&&&&******%%%%,,<<<<11<<<<>>>-::>>>>&&&&XXOOOOOOOO2222@@oooooo  ",
"&&&&******%%%%,,<<<<11<<<<>>>-::->>>&&&&XXOOOOOOOO2222@@oooooo  ",
"$$$$$$$$$$**&&$$<11>11>11>----$$$$<<<<&&XXOOOOOOOOoooooo@@@@@@oo",
"$$$$$$$$$$**&&$$<1>111>>>>---;$$$$1><<&&XXOOOOOOOOoooooo@@@@@@oo",
"%%%%%%%%$$$$$$&&&&&&&&11>1;>;;&&&&<111&&ooOOOOOOOOoooooo@@@@@@@@",
"%%%%%%%%$$$$$$&&&&&&&&111>;;>>&&&&<111&&ooOOOOOOOOoooooo@@@@@@@@",
"$$$$$$$$$$$$$$$$****33****&&$$%%%%%%>>1<&&OOOOOOOOoooooo@@@@@@@@",
"$$$$$$$$$$$$$$$$****33****&&$$%%%%%%1<<<&&OOOOOOOOoooooo@@@@@@@@",
"$$$$$$$$$$$$$$&&&&$$$$$$%%$%%%%%%%%%%%$$&&&&OOOO@@@@@@@@ooXX@@22",
"$$$$$$$$$$$$$$&&&&$$$$$$%%%%%%%%%%%%%%%$&&&&OOOO@@@@@@@@ooXX@@22",
"$$$$$$$$$$$$&&&&##$$$%%%%%%%%%%%%%%%%%%%:-&&&&2222@@@@@@@@XXX...",
"$$$$$$$$$$$$&&&&##$$$$%%%%%%%%%%%%%%%%%%>-&&&&2222@@@@@@@@XX....",
"$$$$$$&&&&&&******&&&&&&%%%%%%%%%%%%$$$$>>,>&&222222@@@@@@@@XX..",
"$$$$$$&&&&&&******&&&&&&%%%%%%%%%%%%$$$$>><<&&222222@@@@@@@@XX..",
"&&&&&&%%%%%%%%%%%%%%####&&%%%%%%%%$$$$$$$$>>&&OO222222@@@@@@@@XX",
"&&&&&&%%%%%%%%%%%%%%####&&%%%%%%%%$$$$$$$$>>&&OO222222@@@@@@@@XX",
"%%%%%%%%%%%%%%%%%%%%%%####&&&&%%%%$$$$$$$$$$&&OOOOOO222222@@@@oo",
"%%%%%%%%%%%%%%%%%%%%%%####&&&&%%%%$$$$$$$$$$&&OOOOOO222222@@@@oo",
"$$$$$$%%%%%%%%%%%%%%%%%%####&&%%%%%%$$$$&&&&&&==OOOOOOOOOOooooX.",
"$$$$$$%%%%%%%%%%%%%%%%%%####&&%%%%%%$$$$&&&&&&==OOOOOOOOOOoooo..",
"$$$$$$%%%%%%%%%%%%$$$$$$$$%%##&&$$$$&&&&$$$$1>====OOOOOOOOoooo..",
"$$$$$$%%%%%%%%%%%%%$$$$$$$%%##&&$$$$&&&&$$$$<<====OOOOOOOOoooo..",
"&&$$$$$$%%%%%%$$$$$$$$$$$$$$$$##&&&&&&$$$$$$%%1>====&&OOOOoooooo",
"&&$$$$$$%%%%%%$$$$$$$$$$$$$$$$##&&&&&&$$$$$$%%>1====&&OOOOoooooo",
"$$&&$$$$$$$$$$$$$$$$$$$$$$$$####&&&&****&&%%%%1>>>1>&&&&&&&&&&oo",
"$$&&$$$$$$$$$$$$$$$$$$$$$$$$####&&&&****&&%%%$<1>1>1&&&&&&&&&&oo",
"$$&&&&&&&&$$$$$$$$$$$$$$$$#$&&&&$$%%%%%%%%&&%%%%><><<1<<----&&&&",
"$$&&&&&&&&$$$$$$$$$$$$$$$$#$&&&&$$%%%%%%%%&&%%%%<<<1>><<----&&&&",
"&&&&$$$$$$&&&&&&$$$$$$$$##&&**$$$$$$$$$$%%%%&&%%%%1>1<<<------&&",
"&&&&$$$$$$&&&&&&$$$$$$$$##&&**$$$$$$$$$$%%%%&&%%%%>11><1------&&",
"$$$$$$$$$$$$$$$$&&&&$$$$&&**$$$$$$$$$$$$$$$$$$**&&$$$$>1-->>->>>",
"$$$$$$$$$$$$$$$$&&&&$$$$&&**$$$$$$$$$$$$$$$$$$**&&$$$$1>-->>->>>",
"$$$$$$$$$$$$$$$$$$$$&&&&&&$$$$$$$$$$$$$$$$$$$$**&&&&&&&&&&$$$$--",
"$$$$$$$$$$$$$$$$$$$$&&&&&&$$$$$$$$$$$$$$$$$$$$**&&&&&&&&&&$$$$--"
};
