/* XPM */
static char *bottom_01706113616[] = {
/* columns rows colors chars-per-pixel */
"64 64 25 1 ",
"  c #836054",
". c #876254",
"X c #8B6A5C",
"o c #966B52",
"O c #A07759",
"+ c #83A448",
"@ c #AD906F",
"# c #30BDCB",
"$ c #2BC1C7",
"% c #34CBD1",
"& c #64DDE3",
"* c #4EE3E9",
"= c #87928E",
"- c #8F9B92",
"; c #8A9A97",
": c #8B9D98",
"> c #909A91",
", c #909E93",
"< c #92A196",
"1 c #93A097",
"2 c #94A498",
"3 c #96A29C",
"4 c #9FA89C",
"5 c #B6A582",
"6 c #86DEFF",
/* pixels */
"++++++++++++++++++++++++++++++++++++++++++++++++++++++++++++++++",
"++++++++++++++++++++++++++++++++++++++++++++++++++++++++++++++++",
"++++++++++++++++++++++++++++++++++++++++++++++++++++++++++++++++",
"++++++++++++++++++++++++++++++++++++++++++++++++++++++++++++++++",
"++++++++++++++++++++++++++++++++++++++++++++++++++++++++++++++++",
"++++++++++++++++++++++++++++++++++++++++++++++++++++++++++++++++",
"++++++++++++++++++++++++++++++++++++++++++++++++++++++++++++++++",
"++++++++++++++++++++++++++++++++++++++++++++++++++++++++++++++++",
"++++++++++++++++++++++++++++++++++++++++++++++++++++++++++++++++",
"++++++++++++++++++++++++++++++++++++++++++++++++++++++++++++++++",
"++++++++++++++++++++++++++++++++++++++++++++++++++++++++++++++++",
"++++++++++++++++++++++++++++++++++++++++++++++++++++++++++++++++",
"++++++++++++++++++++++++++++++++++++++++++++++++++++++++++++++++",
"++++++++++++++++++++++++++++++++++++++++++++++++++++++++++++++++",
"++++++++++++++++++++++++++++++++++++++++++++++++++++++++++++++++",
"++++++++++++++++++++++++++++++++++++++++++++++++++++++++++++++++",
"++++++++++++++++++++++++++++++++++++++++++++++++++++++++++++++++",
"++++++++++++++++++++++++++++++++++++++++++++++++++++++++++++++++",
"++++++++++++++++++++++++++++++++++++++++++++++++++++++++++++++++",
"++++++++++++++++++++++++++++++++++++++++++++++++++++++++++++++++",
"++++++++++++++++  ++++..++++++++++++++++++++++++++++++++++++++++",
"++++++++++++++++  ++++..++++++++++++++++++++++++++++++++++++++++",
"++++++++++++++++oo..  ++++++++++++++++++++++++++++++++++++++++++",
"++++++++++++++++oo..  ++++++++++++++++++++++++++++++++++++++++++",
"++  ++++++++++++oooooo++++++  ++++++++++++..++++oo  ++++++++++++",
"++  ++++++++++++oooooo++++++  ++++++++++++..++++oo  ++++++++++++",
"++..++++++++    oooo..      oo++++oo++++..oooo    oo  ++++++++++",
"++..++++++++    oooo..      oo++++oo++++..oooo    oo  ++++++++++",
"++++    ++++OOOOOOOO++++ooooOO    @@....oooooooooo++++++++++++++",
"++++    ++++OOOOOOOO++++ooooOO    @@....oooooooooo++++++++++++++",
"++++oooo    OOOOOO++++++oo++++oo@@@@@@++++ooOOOOOO++++++++++  ++",
"++++oooo    OOOOOO++++++oo++++oo@@@@@@++++ooOOOOOO++++++++++  ++",
"    oo++++ooOOOOOO++++..@@++++oooo55@@++++OO++++@@          oo  ",
"    oo++++ooOOOOOO++++..@@++++oooo55@@++++OO++++@@          oo  ",
"oooooo++++@@ooOOoo....@@@@XXXX@@oo5555XXXX@@++++@@@@  ++++oooooo",
"oooooo++++@@ooOOoo....@@@@XXXX@@oo5555XXXX@@++++@@@@  ++++oooooo",
"@@OO@@XXXX@@@@@@ooooOO++++@@@@@@OOoo5555OO@@XXXX@@@@oo++++oooooo",
"@@OO@@XXXX@@@@@@ooooOO++++@@@@@@OOoo5555OO@@XXXX@@@@oo++++oooooo",
"@@OO@@@@5555@@@@oooo@@++++++@@@@ooooooooOO@@@@@@@@oooo....oooo@@",
"@@OO@@@@5555@@@@oooo@@++++++@@@@ooooooooOO@@@@@@@@oooo....oooo@@",
"@@ooOO@@555555@@@@oo55XX++++@@@@@@OOOOooooOOOOoooooooooooooo@@@@",
"@@ooOO@@555555@@@@oo55XX++++@@@@@@OOOOooooOOOOoooooooooooooo@@@@",
"@@@@@@oo@@5555@@OOoo5555XXXX@@@@@@@@OOoo@@@@@@@@@@@@@@oooo@@5555",
"@@@@@@oo@@5555@@OOoo5555XXXX@@@@@@@@OOoo@@@@@@@@@@@@@@oooo@@5555",
"5555@@ooooOOOOOOOOoooo55555555@@oooooooo@@55555555@@@@@@oo@@5555",
"5555@@ooooOOOOOOOOoooo55555555@@oooooooo@@55555555@@@@@@oo@@5555",
"55@@@@XXooOOOOOOOOooooooooooooooooooooooXX555555555555@@ooOOOO55",
"55@@@@XXooOOOOOOOOooooooooooooooooooooooXX555555555555@@ooOOOO55",
"OOOOooXXXXOOOOOOOOOOoooooo@@@@@@@@@@@@XX. XXoo555555@@OO..OOOOOO",
"OOOOooXXXXOOOOOOOOOOoooooo@@@@@@@@@@@@XX.XXXoO5@5555@@OO..OOOOOO",
"OOOOoo..XXOOOOOOOOOOooooXXOO@@@@@@@@@@@@..XXooOOOOOOOOOO..OOOOOO",
"OOOOoo..XXOOOOOOOOOOooooXXOO@@@@@@@@@@@@..XXooOOOOOOOOOO..OOOOOO",
"OOOOoo..XXOOOOOOOOOOooooXXOOOOOOOOOOOOOOXXXXooOOOOOOOOOOooOOOOOO",
"OOOOoo..XXOOOOOOOOOOooooXXOOOOOOOOOOOOOOXXXXooOOOOOOOOOOooOOOOOO",
"OOOOoo..XXOOOOOOOOOOoo%%%%OOOOOOOOOOOOOO%%%%%%******%%%%%%OOOOOO",
"OOOOoo..XXOOOOOOOOOOoo%%%%OOOOOOOOOOOOOO%%%%%%******%%%%%%OOOOOO",
"66%%%%%%%%%%********%%%%%%%%%%******%%%%%%33,,11<1111111%%******",
"66%%%%%%%%%%********%%%%%%%%%%******%%%%%%33,,11<1111111%%******",
"32--==;;;;2222223,21,-----::441121111111;;;;--22<<111111--1111**",
"22->==;;;;222222,3,1---->>::441111111111;;;;--22<<111111--1111**",
"11--==;;;:3,,3,3222222---,23##########;;;;;;--44221111----222222",
"11--==;;;:,,3,2,222222--,,33##########;;;;;;--44221111----222222",
"$$$$$$############$$$$%%%%$$$$##############$$&&&&%%%%%%%%%%##$$",
"$$$$$#############$$$$%%%%$$$$################&&&&%%%%%%%%%%##$$"
};
