/* XPM */
static char *bottom_left_01706091960[] = {
/* columns rows colors chars-per-pixel */
"64 64 20 1 ",
"  c #836054",
". c #876254",
"X c #8B6A5C",
"o c #966B52",
"O c #A07759",
"+ c #83A448",
"@ c #AD906F",
"# c #33B8C5",
"$ c #30BDCB",
"% c #2BC1C7",
"& c #34CBD1",
"* c #64DDE3",
"= c #4EE3E9",
"- c #8F9B92",
"; c #8A9A97",
": c #909E93",
"> c #92A196",
", c #93A097",
"< c #94A498",
"1 c #B6A582",
/* pixels */
"%%%%%%==OOOOooXXXX++++..++++++++++++++++++++++++++++++++..++++++",
"%%%%%%==OOOOooXXXX++++..++++++++++++++++++++++++++++++++..++++++",
"%%%%%%==OOOOooXXXXXXXX..++++..++++++++++++++++++++..++++..++++++",
"%%%%%%==OOOOooXXXXXXXX..++++..++++++++++++++++++++..++++..++++++",
"$$$$$$$$==OOoooo@@@@@@@@XXXX..++++..++++++++++++++......++++++++",
"$$$$$$$$==OOoooo@@@@@@@@XXXX..++++..++++++++++++++......++++++++",
"$$$$$$$$&&&&oooo111111@@@@@@oo....oo......++++++++oooo..++++++++",
"$$$$$$$$&&&&oooo111111@@@@@@oo....oo......++++++++oooo..++++++++",
"&&****&&$$&&&&111111@@@@@@@@@@@@oo@@OOOOOO++++....@@oooo....++++",
"&&****&&$$&&&&111111@@@@@@@@@@@@oo@@OOOOOO++++....@@oooo....++++",
"&&%%%%%%%%%%&&1111++++@@@@@@@@@@oo1111@@@@XXXX@@@@++++oo++++++++",
"&&%%%%%%%%%%&&1111++++@@@@@@@@@@oo1111@@@@XXXX@@@@++++oo++++++++",
"%%&&%%%%%%>>==1111++++@@@@@@@@XX111111@@@@@@@@@@@@++++@@++++++++",
"%%&&%%%%%%>>==1111++++@@@@@@@@XX111111@@@@@@@@@@@@++++@@++++++++",
"%%&&%%%%%%%%&&OO11XXXX@@@@@@@@..111111@@@@@@@@OO@@XXXX@@....++++",
"%%&&%%%%%%%%&&OO11XXXX@@@@@@@@..111111@@@@@@@@OO@@XXXX@@....++++",
"&&&&&&&&%%%%&&OOOO1111@@@@oooo..oo11111111@@XX..oo@@@@OOOO++++++",
"&&&&&&&&%%%%&&OOOO1111@@@@oooo..oo11111111@@XX..oo@@@@OOOO++++++",
"&&$$$$$$&&&&&&OOOOOOOOOOOOoooo..ooOOOOOOOOoo....ooooOOOOOO++++++",
"&&$$$$$$&&&&&&OOOOOOOOOOOOoooo..ooOOOOOOOOoo....ooooOOOOOO++++++",
"$$$$$$$$$$$$&&OOOOOOOOOOOOooooXXoo@@@@OOoooo..XX@@@@@@@@OO....++",
"$$$$$$$$$$$$&&OOOOOOOOOOOOooooXXoo@@@@OOoooo..XX@@@@@@@@OO....++",
"$$$$$$$$$$$$&&OOOOOOOOOOOOooooXXoo1111@@XXXX111111@@@@@@@@++++++",
"$$$$$$$$$$$$&&OOOOOOOOOOOOooooXXoo1111@@XXXX111111@@@@@@@@++++++",
"%%%%%%$$$$$$&&&&OOOOOOOOOOoooo;;--OO11@@XX1111111111@@++++++++++",
"%%%%%%$$$$$$&&&&OOOOOOOOOOoooo;;--OO11@@XX1111111111@@++++++++++",
"%%%%%%%%%%%%$$&&&&==&&OOOOoooo&&&&OOOOOO..1111111111@@++++XXXX++",
"%%%%%%%%%%%%$$&&&&==&&OOOOoooo&&&&OOOOOO..1111111111@@++++XXXX++",
"%%%%%%%%%%%%%%<,<:,,&&====&&&&&&&&&&OOOO..OOOO111111@@XXXXoooo++",
"%%%%%%%%%%%%%%,,,:,,&&====&&&&&&&&&&OOOO..OOOO111111@@XXXXoooo++",
"&&&&****&&%%%%>:,,,,<<,,,,:::-;;::::&&&&XXOOOOOOOO1111@@oooooo  ",
"&&&&****&&%%%%:>,,,,<<,,,,:::-;;-:::&&&&XXOOOOOOOO1111@@oooooo  ",
"$$$$$$$$$$&&&&$$<:::<<:<<:--::$$$$::<,&&XXOOOOOOOOoooooo@@@@@@oo",
"$$$$$$$$$$&&&&$$::<<<<:<::--:;$$$$::,,&&XXOOOOOOOOoooooo@@@@@@oo",
"$$$$$$$$$$$$$$&&&&&&&&<<:<---:&&&&:<<<&&ooOOOOOOOOoooooo@@@@@@@@",
"$$$$$$$$$$$$$$&&&&&&&&<<::--::&&&&<<<<&&ooOOOOOOOOoooooo@@@@@@@@",
"$$$$$$$$$$$$$$$$********&&&&%%%%%%%%$%<<&&OOOOOOOOoooooo@@@@@@@@",
"$$$$$$$$$$$$$$$$********&&&&%%%%%%%%$%<:&&OOOOOOOOoooooo@@@@@@@@",
"$$$$$$$$$$$$$$****$$%%%%%%&$%%%%%%%%%%$%&&&&OOOO@@@@@@@@ooXX@@11",
"$$$$$$$$$$$$$$****$$%%%%%%$$%%%%%%%%%%%%&&&&OOOO@@@@@@@@ooXX@@11",
"$$$$$$$$$$%%&&&&$$%%%%%%%%%%%%%%%%%%$$$$;:&&&&1111@@@@@@@@XXX...",
"$$$$$$$$$$%%&&&&%%%%%%%%%%%%%%%%%%%%$$$$::&&&&1111@@@@@@@@XXX...",
"$$$$%%&&********&&&&&&&&%%%%%%%%%%$$$$$$::::==111111@@@@@@@@XX..",
"$$$$%%&&********&&&&&&&&%%%%%%%%%%$$$$$$::::==111111@@@@@@@@XX..",
"**&&&&%%%%%%%%%%%%##$#&&%%%%%%%%%%$$$$$$$$,,==OO111111@@@@@@@@XX",
"**&&&&%%%%%%%%%%%%##$#&&%%%%%%%%%%$$$$$$$$::==OO111111@@@@@@@@XX",
"$$$$$$%%%%%%%%%%%%%%%$##&&&&%%%%%%%%$$$$$$$$&&OOOOOO111111@@@@oo",
"$$$$$$%%%%%%%%%%%%%%%$##&&&&%%%%%%%%$$$$$$$$&&OOOOOO111111@@@@oo",
"$$$$$$%%%%%%%%%%%%%%$$$$####&&%%$$$$$$$$&&&&&&&&OOOOOOOOOOooooX.",
"$$$$$$%%%%%%%%%%%%%%$$$$####&&%%$$$$$$$$&&&&&&&&OOOOOOOOOOoooo..",
"$$$$$$$$%%%%%%$$$$$$$$$$$$$$##&&$$$$$$&&$$$$%%&&&&OOOOOOOOoooo..",
"$$$$$$$$%%%%%%$$$$$$$$$$$$$$##&&$$$$$$&&$$$$%%&&&&OOOOOOOOoooo..",
"&&$$$$$$$$$$$$$$$$$$$$$$$$$$####&&&&&&%%%%%%%%<:&&&&&&OOOOoooooo",
"&&$$$$$$$$$$$$$$$$$$$$$$$$$$####&&&&&&%%%%%%%%:<&&&&&&OOOOoooooo",
"$$&&$$$$$$$$$$$$$$$$$$$$$$$$####&&&&******%%%%:<:::<&&&&&&&&&&oo",
"$$&&$$$$$$$$$$$$$$$$$$$$$$$$####&&&&******%%%$<<::<:&&&&&&&&&&oo",
"&&&&&&&&&&$$$$$$$$$$$$$$$$##&&&&$$$$$$$$%%**&&%%<::<;<,,::--&&&&",
"&&&&&&&&&&$$$$$$$$$$$$$$$$##&&&&$$$$$$$$%%**&&%%,,<:<,,,,,--&&&&",
"&&$$$$$$$$&&&&&&$$$$$$$$##&&**$$$$$$$$$$$$$$$$&&$$,,:,<<,,----&&",
"&&$$$$$$$$&&&&&&$$$$$$$$##&&**$$$$$$$$$$$$$$$$&&%%,,,,:<,,----&&",
"$$$$$$$$$$$$$$$$&&&&&&$$&&**$$$$$$$$$$$$$$$$$$**&&$$$$<::<::::::",
"$$$$$$$$$$$$$$$$&&&&&&$$&&**$$$$$$$$$$$$$$$$$$**&&$$$$<:::::::::",
"%%%%%%$$$$$$$$$$$$%%%%&&&&%%%%$$$$$$$$$$$$$$$$****&&&&&&&&&&$$$$",
"%%%%%%$$$$$$$$$$$$%%%%&&&&%%%%$$$$$$$$$$$$$$$$****&&&&&&&&&&$$$$"
};
