/* XPM */
static char *bottom_11706113616[] = {
/* columns rows colors chars-per-pixel */
"64 64 26 1 ",
"  c #836054",
". c #876254",
"X c #8B6A5C",
"o c #966B52",
"O c #A07759",
"+ c #83A448",
"@ c #AD906F",
"# c #30BDCB",
"$ c #2BC1C7",
"% c #34CBD1",
"& c #64DDE3",
"* c #4EE3E9",
"= c #87928E",
"- c #8F9B92",
"; c #8E9C91",
": c #8B9995",
"> c #899B96",
", c #8A9A97",
"< c #8B9D98",
"1 c #909E93",
"2 c #92A196",
"3 c #93A097",
"4 c #94A498",
"5 c #96A29C",
"6 c #9FA89C",
"7 c #B6A582",
/* pixels */
"++++++++++++++++++++++++++++++++++++++++++++++++++++++++++++++++",
"++++++++++++++++++++++++++++++++++++++++++++++++++++++++++++++++",
"++++++++++++++++++++++++++++++++++++++++++++++++++++++++++++++++",
"++++++++++++++++++++++++++++++++++++++++++++++++++++++++++++++++",
"++++++++++++++++++++++++++++++++++++++++++++++++++++++++++++++++",
"++++++++++++++++++++++++++++++++++++++++++++++++++++++++++++++++",
"++++++++++++++++++++++++++++++++++++++++++++++++++++++++++++++++",
"++++++++++++++++++++++++++++++++++++++++++++++++++++++++++++++++",
"++++++++++++++++++++++++++++++++++++++++++++++++++++++++++++++++",
"++++++++++++++++++++++++++++++++++++++++++++++++++++++++++++++++",
"++++++++++++++++++++++++++++++++++++++++++++++++++++++++++++++++",
"++++++++++++++++++++++++++++++++++++++++++++++++++++++++++++++++",
"++++++++++++++++++++++++++++++++++++++++++++++++++++++++++++++++",
"++++++++++++++++++++++++++++++++++++++++++++++++++++++++++++++++",
"++++++++++++++++++++++++++++++++++++++++++++++++++++++++++++++++",
"++++++++++++++++++++++++++++++++++++++++++++++++++++++++++++++++",
"++++++++++++++++++++++++++++++++++++++++++++++++++++++++++++++++",
"++++++++++++++++++++++++++++++++++++++++++++++++++++++++++++++++",
"++++++++++++++++++++++++++++++++++++++++++++++++++++++++++++++++",
"++++++++++++++++++++++++++++++++++++++++++++++++++++++++++++++++",
"++++++++++++++++  ++++..++++++++++++++++++++++++++++++++++++++++",
"++++++++++++++++  ++++..++++++++++++++++++++++++++++++++++++++++",
"++++++++++++++++oo..  ++++++++++++++++++++++++++++++++++++++++++",
"++++++++++++++++oo..  ++++++++++++++++++++++++++++++++++++++++++",
"++  ++++++++++++oooooo++++++  ++++++++++++..++++oo  ++++++++++++",
"++  ++++++++++++oooooo++++++  ++++++++++++..++++oo  ++++++++++++",
"++..++++++++    oooo..      oo++++oo++++..oooo    oo  ++++++++++",
"++..++++++++    oooo..      oo++++oo++++..oooo    oo  ++++++++++",
"++++    ++++OOOOOOOO++++ooooOO    @@....oooooooooo++++++++++++++",
"++++    ++++OOOOOOOO++++ooooOO    @@....oooooooooo++++++++++++++",
"++++oooo    OOOOOO++++++oo++++oo@@@@@@++++ooOOOOOO++++++++++  ++",
"++++oooo    OOOOOO++++++oo++++oo@@@@@@++++ooOOOOOO++++++++++  ++",
"    oo++++ooOOOOOO++++..@@++++oooo77@@++++OO++++@@          oo  ",
"    oo++++ooOOOOOO++++..@@++++oooo77@@++++OO++++@@          oo  ",
"oooooo++++@@ooOOoo....@@@@XXXX@@oo7777XXXX@@++++@@@@  ++++oooooo",
"oooooo++++@@ooOOoo....@@@@XXXX@@oo7777XXXX@@++++@@@@  ++++oooooo",
"@@OO@@XXXX@@@@@@ooooOO++++@@@@@@OOoo7777OO@@XXXX@@@@oo++++oooooo",
"@@OO@@XXXX@@@@@@ooooOO++++@@@@@@OOoo7777OO@@XXXX@@@@oo++++oooooo",
"@@OO@@@@7777@@@@oooo@@++++++@@@@ooooooooOO@@@@@@@@oooo....oooo@@",
"@@OO@@@@7777@@@@oooo@@++++++@@@@ooooooooOO@@@@@@@@oooo....oooo@@",
"@@ooOO@@777777@@@@oo77XX++++@@@@@@OOOOooooOOOOoooooooooooooo@@@@",
"@@ooOO@@777777@@@@oo77XX++++@@@@@@OOOOooooOOOOoooooooooooooo@@@@",
"@@@@@@oo@@7777@@OOoo7777XXXX@@@@@@@@OOoo@@@@@@@@@@@@@@oooo@@7777",
"@@@@@@oo@@7777@@OOoo7777XXXX@@@@@@@@OOoo@@@@@@@@@@@@@@oooo@@7777",
"7777@@ooooOOOOOOOOoooo77777777@@oooooooo@@77777777@@@@@@oo@@7777",
"7777@@ooooOOOOOOOOoooo77777777@@oooooooo@@77777777@@@@@@oo@@7777",
"77@@@@XXooOOOOOOOOooooooooooooooooooooooXX777777777777@@ooOOOO77",
"77@@@@XXooOOOOOOOOooooooooooooooooooooooXX777777777777@@ooOOOO77",
"OOOOooXXXXOOOOOOOOOOoooooo@@@@@@@@@@@@XX..XXoo777777@@OO..OOOOOO",
"OOOOooXXXXOOOOOOOOOOoooooo@@@@@@@@@@@@XX..XXoo777777@@OO..OOOOOO",
"OOOOoo..XXOOOOOOOOOOooooXXOO@@@@@@@@@@@@..XXooOOOOOOOOOO..OOOOOO",
"OOOOoo..XXOOOOOOOOOOooooXXOO@@@@@@@@@@@@..XXooOOOOOOOOOO..OOOOOO",
"OOOOoo..XXOOOOOOOOOOooooXXOOOOOOOOOOOOOOXXXXooOOOOOOOOOOooOOOOOO",
"OOOOoo..XXOOOOOOOOOOooooXXOOOOOOOOOOOOOOXXXXooOOOOOOOOOOooOOOOOO",
"OOOOoo..XXOOOOOOOOOOoo%%%%OOOOOOOOOOOOOO%%%%**********%%%%OOOOOO",
"OOOOoo..XXOOOOOOOOOOoo%%%%OOOOOOOOOOOOOO%%%%**********%%%%OOOOOO",
"%%%%%%%%%%%%********%%%%%%%%%%%%****%%%%%%><1;3322223333%%******",
"%%%%%%%%%%%%********%%%%%%%%%%%%****%%%%%%<<;;3322223333%%******",
"445411==,:4444443333;---,-446615333333,>>>>>114422223333----33**",
"4451;1==>>4444443333;;--:,446651333333>>>>>>114422222233----33**",
"4511====,,51;;51444411-1,<55########>,,,,,,,;;664433333333114444",
"11-1====,,152515454411-1><55########,,,,>>,,;;664433333333114444",
"$$##$$############$$%%%%%%$$$$##############$#&&&&%%%%%%%%%%##$$",
"$$$$$$############$#%%%%%%$$$$################&&&&%%%%%%%%%%##$$"
};
