/* XPM */
static char *bottom_right_01706091765[] = {
/* columns rows colors chars-per-pixel */
"64 64 24 1 ",
"  c #876254",
". c #8B6A5C",
"X c #966B52",
"o c #A07759",
"O c #83A448",
"+ c #AD906F",
"@ c #33B8C5",
"# c #30BDCB",
"$ c #2BC1C7",
"% c #34CBD1",
"& c #64DDE3",
"* c #4EE3E9",
"= c #8F9B92",
"- c #8E9C91",
"; c #899B96",
": c #8A9A97",
"> c #909A91",
", c #909E93",
"< c #949F95",
"1 c #92A196",
"2 c #93A097",
"3 c #94A498",
"4 c #9CA298",
"5 c #B6A582",
/* pixels */
"OOOOOOOOOOOOOOOOOOOOOOOOOOOOOOOOOOOO..oo....++OOOO++ooXXXX%%==$$",
"OOOOOOOOOOOOOOOOOOOOOOOOOOOOOOOOOOOO..oo....++OOOO++ooXXXX%%==$$",
"OOOOOOOOOOOOOOOOOOOOOOOOOO  OOOOOOOOOO++++++++....++++++..%%--$$",
"OOOOOOOOOOOOOOOOOOOOOOOOOO  OOOOOOOOOO++++++++....++++++..%%--$$",
"OOOOOOOOOOOOOOOOOOOO  OOOO  OOOO  OOOOooOOOO++oo++++++++..%%####",
"OOOOOOOOOOOOOOOOOOOO  OOOO  OOOO  OOOOooOOOO++oo++++++++..%%####",
"OOOOOOOOOOOOOO  OOOO        OOOOoo    XXOOOOoooo++++++....%%####",
"OOOOOOOOOOOOOO  OOOO        OOOOoo    XXOOOOoooo++++++....%%####",
"OOOOOOOOOOOOOO        oooo++....++ooXXoo....++++oooo....%%%%%%%%",
"OOOOOOOOOOOOOO        oooo++....++ooXXoo....++++oooo....%%%%%%%%",
"OOOOOOOOOOOOOOOO  OOOOoo++++++++++oooooo++++++++++++++..%%##$$%%",
"OOOOOOOOOOOOOOOO  OOOOoo++++++++++oooooo++++++++++++++..%%##$$%%",
"OOOOOOOOOOOOOOOOOOOOOOoo++++++++ooXXOOOO++OOOO++++5555%%::$$$$$$",
"OOOOOOOOOOOOOOOOOOOOOOoo++++++++ooXXOOOO++OOOO++++5555%%::$$$$$$",
"OOOOOOOOOOOOOOOOOOOOOOOOooXXOOOOooooOOOO++OOOO++555555**::$$$$$$",
"OOOOOOOOOOOOOOOOOOOOOOOOooXXOOOOooooOOOO++OOOO++555555**;;$$$$$$",
"OOOOOOOOOOOOOOOOOOOOOOOO++++OOOOooOOOO..++....555555XX**########",
"OOOOOOOOOOOOOOOOOOOOOOOO++++OOOOooOOOO..++....555555XX**########",
"OOOOOOOOOOOOOOOOOO  OOOO++++ooOOOOOOOOOOoooo++5555....%%########",
"OOOOOOOOOOOOOOOOOO  OOOO++++ooOOOOOOOOOOoooo++5555....%%########",
"OOOOOOOOOOOOOOOOOOOO    XXXXooOOOO..OOOO++++oooooo..++++######%%",
"OOOOOOOOOOOOOOOOOOOO    XXXXooOOOO..OOOO++++oooooo..++++######%%",
"OOOOOOOOOOOOOOOOOOOOXXXXXXXXoo    ++....55++XXoooo++++++++%%%%##",
"OOOOOOOOOOOOOOOOOOOOXXXXXXXXoo    ++....55++XXoooo++++++++%%%%##",
"OOOOOOOOOOOOOOOOOO  XXXX++++XXoooo++55555555  XX++++++++oo%%####",
"OOOOOOOOOOOOOOOOOO  XXXX++++XXoooo++55555555  XX++++++++oo%%####",
"OOOOOOOOOOOOOOOOOOOOOO++++++++XX++++55555555  XX++++++oooo%%$$$$",
"OOOOOOOOOOOOOOOOOOOOOO++++++++XX++++55555555  XX++++++oooo%%$$$$",
"OOOOOOOOOOOOOOOOOOOOOO++++OOOOXX++55555555oo  XXXXXXXXoooo%%&&&&",
"OOOOOOOOOOOOOOOOOOOOOO++++OOOOXX++55555555oo  XXXXXXXXoooo%%&&&&",
"OOOOOOOOOOOOOOOOOOOO  ++++OOOOXX++555555XXXX..XXXXXXXXoo%%$$####",
"OOOOOOOOOOOOOOOOOOOO  ++++OOOOXX++555555XXXX..XXXXXXXXoo%%$$####",
"  OOOO  OOOOOOOOOOOOOOOOXX    XXXX  ..XXXXXX..XXXXXXXX**%%$$$$$$",
"  OOOO  OOOOOOOOOOOOOOOOXX    XXXX  ..XXXXXX..XXXXXXXX**%%$$$$$$",
"XX      OOOOOOOOOOOOOOOO++++++XXXX  ..XXXXXX**%%**%%%%%%22######",
"XX      OOOOOOOOOOOOOOOO++++++XXXX  ..XXXXXX**%%**%%%%%%22######",
"XXXXOOOO  OOOOOOOOOO....++5555++XX  ..XXXX****==--====1<########",
"XXXXOOOO  OOOOOOOOOO....++5555++XX  ..XXXX****========<1########",
"++XXOOOOXXOOOO  OOOO++++555555oooo****%%%%%%::44======##########",
"++XXOOOOXXOOOO  OOOO++++555555oooo****%%%%%%;;44======##########",
"oooo....55OOOOXX..  ++++5555oooooo%%::======::44,,==############",
"oooo....55OOOOXX..  ++++5555oooooo%%::======::44,,==############",
"++++XXXX++....++++XX++5555XXoooooo%%::======####%%%%############",
"++++XXXX++....++++XX++5555XXoooooo%%::======####%%%%############",
"55++++XXoo++555555XX++++++XXoooo****::==######%%####%%%%%%######",
"55++++XXoo++555555XX++++++XXoooo****::--######%%####%%%%%%######",
"55++++..XX55555555XXoooooo  oo****11########%%############%%%%&&",
"55++++..XX55555555XXoooooo  oo****11########%%############%%%%&&",
"oo55++....55555555  oooooo  ****2222####%%%%##################&&",
"oo55++....55555555  oooooo  ****2222####%%%%##################&&",
"oooooo  ..++5555oo  ooooooXX%%3322####%%####$$$$$$$$$$$$$$$$##%%",
"oooooo  ..++5555oo  ooooooXX%%3322####%%####$$$$$$$$$$$$$$$$##%%",
"oooooo  ..oooooooo  oooooo%%%%<<%%%%%%$$$$$$$$$$$$$$$$##########",
"oooooo  ..oooooooo  oooooo%%%%<<%%%%%%$$$$$$$$$$$$$$$$##########",
"oooooo  ..ooooooooXX%%%%%%%%<<@@%%%%&&&&&&$$$$$$$$$$$$##########",
"oooooo  ..ooooooooXX%%%%%%%%<<@@%%%%&&&&&&$$$$$$$$$$$$##########",
"oooooo..%%oooooooo%%%%2222>>%%%%########$$&&%%$$$$$$$$##########",
"oooooo..%%oooooooo%%%%2222>>%%%%########$$&&%%$$$$$$$$##########",
"**%%%%%%%%%%%%%%%%%%==22<<,,&&################%%$$############%%",
"**%%%%%%%%%%%%%%%%%%==22<<,,&&################%%$$############%%",
"222222####2222223333,,##%%&&##################&&%%########%%%%%%",
"222222####2222223333,,##%%&&##################&&%%########%%%%%%",
"$$$$$$############$$$$%%%%$$$$################&&&&%%%%%%%%%%##$$",
"$$$$$$############$$$$%%%%$$$$################&&&&%%%%%%%%%%##$$"
};
