/* XPM */
static char *bottom_51706113617[] = {
/* columns rows colors chars-per-pixel */
"64 64 24 1 ",
"  c #836054",
". c #876254",
"X c #8B6A5C",
"o c #966B52",
"O c #A07759",
"+ c #83A448",
"@ c #AD906F",
"# c #30BDCB",
"$ c #34CBD1",
"% c #64DDE3",
"& c #4EE3E9",
"* c #87928E",
"= c #8F9B92",
"- c #8B9995",
"; c #899B96",
": c #8A9A97",
"> c #8B9D98",
", c #909E93",
"< c #92A196",
"1 c #93A097",
"2 c #94A498",
"3 c #9CA298",
"4 c #9FA89C",
"5 c #B6A582",
/* pixels */
"++++++++++++++++++++++++++++++++++++++++++++++++++++++++++++++++",
"++++++++++++++++++++++++++++++++++++++++++++++++++++++++++++++++",
"++++++++++++++++++++++++++++++++++++++++++++++++++++++++++++++++",
"++++++++++++++++++++++++++++++++++++++++++++++++++++++++++++++++",
"++++++++++++++++++++++++++++++++++++++++++++++++++++++++++++++++",
"++++++++++++++++++++++++++++++++++++++++++++++++++++++++++++++++",
"++++++++++++++++++++++++++++++++++++++++++++++++++++++++++++++++",
"++++++++++++++++++++++++++++++++++++++++++++++++++++++++++++++++",
"++++++++++++++++++++++++++++++++++++++++++++++++++++++++++++++++",
"++++++++++++++++++++++++++++++++++++++++++++++++++++++++++++++++",
"++++++++++++++++++++++++++++++++++++++++++++++++++++++++++++++++",
"++++++++++++++++++++++++++++++++++++++++++++++++++++++++++++++++",
"++++++++++++++++++++++++++++++++++++++++++++++++++++++++++++++++",
"++++++++++++++++++++++++++++++++++++++++++++++++++++++++++++++++",
"++++++++++++++++++++++++++++++++++++++++++++++++++++++++++++++++",
"++++++++++++++++++++++++++++++++++++++++++++++++++++++++++++++++",
"++++++++++++++++++++++++++++++++++++++++++++++++++++++++++++++++",
"++++++++++++++++++++++++++++++++++++++++++++++++++++++++++++++++",
"++++++++++++++++++++++++++++++++++++++++++++++++++++++++++++++++",
"++++++++++++++++++++++++++++++++++++++++++++++++++++++++++++++++",
"++++++++++++++++  ++++..++++++++++++++++++++++++++++++++++++++++",
"++++++++++++++++  ++++..++++++++++++++++++++++++++++++++++++++++",
"++++++++++++++++oo..  ++++++++++++++++++++++++++++++++++++++++++",
"++++++++++++++++oo..  ++++++++++++++++++++++++++++++++++++++++++",
"++  ++++++++++++oooooo++++++  ++++++++++++..++++oo  ++++++++++++",
"++  ++++++++++++oooooo++++++  ++++++++++++..++++oo  ++++++++++++",
"++..++++++++    oooo..      oo++++oo++++..oooo    oo  ++++++++++",
"++..++++++++    oooo..      oo++++oo++++..oooo    oo  ++++++++++",
"++++    ++++OOOOOOOO++++ooooOO    @@....oooooooooo++++++++++++++",
"++++    ++++OOOOOOOO++++ooooOO    @@....oooooooooo++++++++++++++",
"++++oooo    OOOOOO++++++oo++++oo@@@@@@++++ooOOOOOO++++++++++  ++",
"++++oooo    OOOOOO++++++oo++++oo@@@@@@++++ooOOOOOO++++++++++  ++",
"    oo++++ooOOOOOO++++..@@++++oooo55@@++++OO++++@@          oo  ",
"    oo++++ooOOOOOO++++..@@++++oooo55@@++++OO++++@@          oo  ",
"oooooo++++@@ooOOoo....@@@@XXXX@@oo5555XXXX@@++++@@@@  ++++oooooo",
"oooooo++++@@ooOOoo....@@@@XXXX@@oo5555XXXX@@++++@@@@  ++++oooooo",
"@@OO@@XXXX@@@@@@ooooOO++++@@@@@@OOoo5555OO@@XXXX@@@@oo++++oooooo",
"@@OO@@XXXX@@@@@@ooooOO++++@@@@@@OOoo5555OO@@XXXX@@@@oo++++oooooo",
"@@OO@@@@5555@@@@oooo@@++++++@@@@ooooooooOO@@@@@@@@oooo....oooo@@",
"@@OO@@@@5555@@@@oooo@@++++++@@@@ooooooooOO@@@@@@@@oooo....oooo@@",
"@@ooOO@@555555@@@@oo55XX++++@@@@@@OOOOooooOOOOoooooooooooooo@@@@",
"@@ooOO@@555555@@@@oo55XX++++@@@@@@OOOOooooOOOOoooooooooooooo@@@@",
"@@@@@@oo@@5555@@OOoo5555XXXX@@@@@@@@OOoo@@@@@@@@@@@@@@oooo@@5555",
"@@@@@@oo@@5555@@OOoo5555XXXX@@@@@@@@OOoo@@@@@@@@@@@@@@oooo@@5555",
"5555@@ooooOOOOOOOOoooo55555555@@oooooooo@@55555555@@@@@@oo@@5555",
"5555@@ooooOOOOOOOOoooo55555555@@oooooooo@@55555555@@@@@@oo@@5555",
"55@@@@XXooOOOOOOOOooooooooooooooooooooooXX555555555555@@ooOOOO55",
"55@@@@XXooOOOOOOOOooooooooooooooooooooooXX555555555555@@ooOOOO55",
"OOOOooXXXXOOOOOOOOOOoooooo@@@@@@@@@@@@XX..XXoo555555@@OO..OOOOOO",
"OOOOooXXXXOOOOOOOOOOoooooo@@@@@@@@@@@@XX..XXoo555555@@OO..OOOOOO",
"OOOOoo..XXOOOOOOOOOOooooXXOO@@@@@@@@@@@@..XXooOOOOOOOOOO..OOOOOO",
"OOOOoo..XXOOOOOOOOOOooooXXOO@@@@@@@@@@@@..XXooOOOOOOOOOO..OOOOOO",
"OOOOoo..XXOOOOOOOOOOooooXXOOOOOOOOOOOOOOXXXXooOOOOOOOOOOooOOOOOO",
"OOOOoo..XXOOOOOOOOOOooooXXOOOOOOOOOOOOOOXXXXooOOOOOOOOOOooOOOOOO",
"OOOOoo..XXOOOOOOOOOOoo$$$$OOOOOOOOOOOOOO$$$$$$$$$$$$$$$$$$OOOOOO",
"OOOOoo..XXOOOOOOOOOOoo$$$$OOOOOOOOOOOOOO$$$$$$$$$$$$$$$$$$OOOOOO",
"$$$$$$$$$$$$$$$$$$$$$$$$$$$$$$$$$$$$$$$$$$;>331<<<<<11==$$$$$$&&",
"$$$$$$$$$$$$$$$$$$$$$$$$$$$$$$$$$$$$$$$$$$;>3311<<<<11==$$$$$$&&",
",,,,**::--,3221233=,,,,-::22442,111111;>;;;;33,1<<<<11====1111&&",
",,::**::--,,2222,,=,,,-,::2444,,111111;;;;;;3311<<1111====1111&&",
",,1>**-:--111111,,,,,=-,$$%%##########;;;;;:==44<<1111====222211",
"4,==**>>>>111111,,,,,,--$$%%##########;;**;:==44<<1111====222211",
"####################$$$$$$##################$$$$%%$$$$$$$$######",
"###################$$$$$$$####################$$%%$$$$$$$$######"
};
