/* XPM */
static char *bottom_left_61706091961[] = {
/* columns rows colors chars-per-pixel */
"64 64 21 1 ",
"  c #836054",
". c #876254",
"X c #8B6A5C",
"o c #966B52",
"O c #A07759",
"+ c #83A448",
"@ c #AD906F",
"# c #33B8C5",
"$ c #30BDCB",
"% c #2BC1C7",
"& c #34CBD1",
"* c #64DDE3",
"= c #4EE3E9",
"- c #8F9B92",
"; c #8E9C91",
": c #8A9A97",
"> c #909E93",
", c #92A196",
"< c #93A097",
"1 c #94A498",
"2 c #B6A582",
/* pixels */
"%%%%%%==OOOOooXXXX++++..++++++++++++++++++++++++++++++++..++++++",
"%%%%%%==OOOOooXXXX++++..++++++++++++++++++++++++++++++++..++++++",
"%%%%%%==OOOOooXXXXXXXX..++++..++++++++++++++++++++..++++..++++++",
"%%%%%%==OOOOooXXXXXXXX..++++..++++++++++++++++++++..++++..++++++",
"%%%%%%%%==OOoooo@@@@@@@@XXXX..++++..++++++++++++++......++++++++",
"%%%%%%%%==OOoooo@@@@@@@@XXXX..++++..++++++++++++++......++++++++",
"$$$$$$$$====oooo222222@@@@@@oo....oo......++++++++oooo..++++++++",
"$$$$$$$$====oooo222222@@@@@@oo....oo......++++++++oooo..++++++++",
"&&&&****$$&&&&222222@@@@@@@@@@@@oo@@OOOOOO++++....@@oooo....++++",
"&&&&****$$&&&&222222@@@@@@@@@@@@oo@@OOOOOO++++....@@oooo....++++",
"&&%%%%%%%%%%&&2222++++@@@@@@@@@@oo2222@@@@XXXX@@@@++++oo++++++++",
"&&%%%%%%%%%%&&2222++++@@@@@@@@@@oo2222@@@@XXXX@@@@++++oo++++++++",
"%%&&%%%%%%,,&&2222++++@@@@@@@@XX222222@@@@@@@@@@@@++++@@++++++++",
"%%&&%%%%%%,,&&2222++++@@@@@@@@XX222222@@@@@@@@@@@@++++@@++++++++",
"%%&&%%%%%%%%&&OO22XXXX@@@@@@@@..222222@@@@@@@@OO@@XXXX@@....++++",
"%%&&%%%%%%%%&&OO22XXXX@@@@@@@@..222222@@@@@@@@OO@@XXXX@@....++++",
"%%&&&&&&&&%%&&OOOO2222@@@@oooo..oo22222222@@XX..oo@@@@OOOO++++++",
"%%&&&&&&&&%%&&OOOO2222@@@@oooo..oo22222222@@XX..oo@@@@OOOO++++++",
"&&$$%%%%%%&&==OOOOOOOOOOOOoooo..ooOOOOOOOOoo....ooooOOOOOO++++++",
"&&$$%%%%%%&&==OOOOOOOOOOOOoooo..ooOOOOOOOOoo....ooooOOOOOO++++++",
"$$$$$$$$$$%%==OOOOOOOOOOOOooooXXoo@@@@OOoooo..XX@@@@@@@@OO....++",
"$$$$$$$$$$%%==OOOOOOOOOOOOooooXXoo@@@@OOoooo..XX@@@@@@@@OO....++",
"$$$$$$$$$$$$&&OOOOOOOOOOOOooooXXoo2222@@XXXX222222@@@@@@@@++++++",
"$$$$$$$$$$$$&&OOOOOOOOOOOOooooXXoo2222@@XXXX222222@@@@@@@@++++++",
"%%%%%%$$$$$$&&==OOOOOOOOOOoooo::--OO22@@XX2222222222@@++++++++++",
"%%%%%%$$$$$$&&==OOOOOOOOOOoooo::--OO22@@XX2222222222@@++++++++++",
"%%%%%%%%%%%%,>&&&&&&&&OOOOoooo&&&&OOOOOO..2222222222@@++++XXXX++",
"%%%%%%%%%%%%>,&&&&&&&&OOOOoooo&&&&OOOOOO..2222222222@@++++XXXX++",
"%%%%%%%%%%%%,,,,<<<1&&&&&&==&&&&&&&&OOOO..OOOO222222@@XXXXoooo++",
"%%%%%%%%%%%%,,,,<1<<&&&&&&==&&&&&&&&OOOO..OOOO222222@@XXXXoooo++",
"**&&&&&&**%%,,,,1<<<111<<<>>>-::>-><&&&&XXOOOOOOOO2222@@oooooo  ",
"**&&&&&&**%%,,,,>><<11>><<>>>-::-->>&&&&XXOOOOOOOO2222@@oooooo  ",
"%%%%%%%%%%**&&$$<<<<11<<1,--;;$$$$<<<<&&XXOOOOOOOOoooooo@@@@@@oo",
"%%%%%%%%%%**&&$$<<<<11<<;<-->;$$$$><<<&&XXOOOOOOOOoooooo@@@@@@oo",
"%%%%%%%%$$$$$$&&&&&&&&11><----&&&&&&11&&ooOOOOOOOOoooooo@@@@@@@@",
"%%%%%%%%$$$$$$&&&&&&&&11<<--,-&&&&&&11&&ooOOOOOOOOoooooo@@@@@@@@",
"$$$$$$$$$$$$$$$$******&&&&&&%%%%%%%%$%<<==OOOOOOOOoooooo@@@@@@@@",
"$$$$$$$$$$$$$$$$******&&&&&&%%%%%%%%$$,1==OOOOOOOOoooooo@@@@@@@@",
"$$$$$$$$$$$$$$&&**$$%%%%%%%%%%%%%%%%%%%%&&==OOOO@@@@@@@@ooXX@@22",
"$$$$$$$$$$$$$$&&**$$%%%%%%%%%%%%%%%%%%%%&&==OOOO@@@@@@@@ooXX@@22",
"$$$$$$$$$$%%&&&&####%%%%%%%%%%%%%%%%%%%%-;&&&&2222@@@@@@@@XXX...",
"$$$$$$$$$$%%&&&&####%%%%%%%%%%%%%%%%%%%%;;&&&&2222@@@@@@@@XX....",
"$$$$%%&&********&&&&&&%%%%%%%%%%%%%%$$$$>:1-&&222222@@@@@@@@XX..",
"$$$$%%&&********&&&&&&%%%%%%%%%%%%%%$$$$>;,,&&222222@@@@@@@@XX..",
"**&&&&%%%%%%%%%%%%####&&%%%%%%%%%%$$$$$$$$>>==OO222222@@@@@@@@XX",
"**&&&&%%%%%%%%%%%%####&&%%%%%%%%%%$$$$$$$$>>==OO222222@@@@@@@@XX",
"%%%%%%%%%%%%%%%%%%%%%%##&&&&%%%%%%%%%%%%$$$$&&OOOOOO222222@@@@oo",
"%%%%%%%%%%%%%%%%%%%%%%##&&&&%%%%%%%%%%%%$$$$&&OOOOOO222222@@@@oo",
"$$$$$$%%%%%%%%%%%%%%%%%%####&&&&%%%%$$&&&&&&&&&&OOOOOOOOOOooooX.",
"$$$$$$%%%%%%%%%%%%%%%%%%####&&&&%%%%$$&&&&&&&&&&OOOOOOOOOOoooo..",
"$$$$$$%%%%%%%%%%%%%%$$$$$$%%##&&&&&&&&$$$$$$%%&&&&OOOOOOOOoooo..",
"$$$$$$%%%%%%%%%%%%%%$$$$$$%%##&&&&&&&&$$$$$$%%&&&&OOOOOOOOoooo..",
"&&$$$$$$%%%%%%$$$$$$$$$$$$$$####&&&&&&%%%%%%%%,,&&&&&&OOOOoooooo",
"&&$$$$$$%%%%%%$$$$$$$$$$$$$$####&&&&&&%%%%%%%%,,&&&&&&OOOOoooooo",
"$$&&$$$$$$$$$$$$$$$$$$$$$$$$####&&&&&&&&****%%,,>>1>&&==&&&&==oo",
"$$&&$$$$$$$$$$$$$$$$$$$$$$$$####&&&&&&&&****%%,,>1>1&&==&&&&==oo",
"&&&&&&&&&&&&$$$$$$$$$$$$$$##&&&&%%%%%%%%%%%%**,,1>11<>>1>>--&&==",
"&&&&&&&&&&&&$$$$$$$$$$$$$$#$&&&&%%%%%%%%%%%%**,,>1>1<<1>>1--&&==",
"$$$$$$$$$$&&&&&&&&$$$$$$##&&**$$$$$$$$$$%%%%&&**1><<<<<<1<>---&&",
"$$$$$$$$$$&&&&&&&&$$$$$$##&&**$$$$$$$$$$%%%%&&**,<<<<<<<1<----&&",
"$$$$$$$$$$$$$$$$$$&&&&$$&&**$$$$$$$$$$$$$$$$$$**%%$$<<<<-->>>>--",
"$$$$$$$$$$$$$$$$$$&&&&$$&&**$$$$$$$$$$$$$$$$$$**%%$$<><<-->>>>--",
"%%%%%%$$$$$$$$$$$$%%%%&&&&$%%%$$$$$$$$$$$$$$$$******&&&&&&&&$$--",
"%%%%%%$$$$$$$$$$$$%%%%&&&&%%%%$$$$$$$$$$$$$$$$******&&&&&&&&$$--"
};
