/* XPM */
static char *bottom_right_21706091765[] = {
/* columns rows colors chars-per-pixel */
"64 64 23 1 ",
"  c #876254",
". c #8B6A5C",
"X c #966B52",
"o c #A07759",
"O c #83A448",
"+ c #AD906F",
"@ c #33B8C5",
"# c #30BDCB",
"$ c #2BC1C7",
"% c #34CBD1",
"& c #64DDE3",
"* c #4EE3E9",
"= c #8F9B92",
"- c #8E9C91",
"; c #899B96",
": c #8A9A97",
"> c #909A91",
", c #909E93",
"< c #949F95",
"1 c #93A097",
"2 c #94A498",
"3 c #9CA298",
"4 c #B6A582",
/* pixels */
"OOOOOOOOOOOOOOOOOOOOOOOOOOOOOOOOOOOO..oo....++OOOO++ooXXXX%%==$$",
"OOOOOOOOOOOOOOOOOOOOOOOOOOOOOOOOOOOO..oo....++OOOO++ooXXXX%%==$$",
"OOOOOOOOOOOOOOOOOOOOOOOOOO  OOOOOOOOOO++++++++....++++++..%%##$$",
"OOOOOOOOOOOOOOOOOOOOOOOOOO  OOOOOOOOOO++++++++....++++++..%%##$$",
"OOOOOOOOOOOOOOOOOOOO  OOOO  OOOO  OOOOooOOOO++oo++++++++..%%$$$$",
"OOOOOOOOOOOOOOOOOOOO  OOOO  OOOO  OOOOooOOOO++oo++++++++..%%$$$$",
"OOOOOOOOOOOOOO  OOOO        OOOOoo    XXOOOOoooo++++++....**####",
"OOOOOOOOOOOOOO  OOOO        OOOOoo    XXOOOOoooo++++++....**####",
"OOOOOOOOOOOOOO        oooo++....++ooXXoo....++++oooo....%%**%%%%",
"OOOOOOOOOOOOOO        oooo++....++ooXXoo....++++oooo....%%**%%%%",
"OOOOOOOOOOOOOOOO  OOOOoo++++++++++oooooo++++++++++++++..%%####%%",
"OOOOOOOOOOOOOOOO  OOOOoo++++++++++oooooo++++++++++++++..%%####%%",
"OOOOOOOOOOOOOOOOOOOOOOoo++++++++ooXXOOOO++OOOO++++4444%%::##$$$$",
"OOOOOOOOOOOOOOOOOOOOOOoo++++++++ooXXOOOO++OOOO++++4444%%::##$$$$",
"OOOOOOOOOOOOOOOOOOOOOOOOooXXOOOOooooOOOO++OOOO++444444%%::$$$$$$",
"OOOOOOOOOOOOOOOOOOOOOOOOooXXOOOOooooOOOO++OOOO++444444%%::$$$$$$",
"OOOOOOOOOOOOOOOOOOOOOOOO++++OOOOooOOOO..++....444444XX%%$$$$$$$$",
"OOOOOOOOOOOOOOOOOOOOOOOO++++OOOOooOOOO..++....444444XX%%$$$$$$$$",
"OOOOOOOOOOOOOOOOOO  OOOO++++ooOOOOOOOOOOoooo++4444....%%########",
"OOOOOOOOOOOOOOOOOO  OOOO++++ooOOOOOOOOOOoooo++4444....%%########",
"OOOOOOOOOOOOOOOOOOOO    XXXXooOOOO..OOOO++++oooooo..++++######%%",
"OOOOOOOOOOOOOOOOOOOO    XXXXooOOOO..OOOO++++oooooo..++++######%%",
"OOOOOOOOOOOOOOOOOOOOXXXXXXXXoo    ++....44++XXoooo++++++++%%%%##",
"OOOOOOOOOOOOOOOOOOOOXXXXXXXXoo    ++....44++XXoooo++++++++%%%%##",
"OOOOOOOOOOOOOOOOOO  XXXX++++XXoooo++44444444  XX++++++++oo**####",
"OOOOOOOOOOOOOOOOOO  XXXX++++XXoooo++44444444  XX++++++++oo**####",
"OOOOOOOOOOOOOOOOOOOOOO++++++++XX++++44444444  XX++++++oooo**####",
"OOOOOOOOOOOOOOOOOOOOOO++++++++XX++++44444444  XX++++++oooo**####",
"OOOOOOOOOOOOOOOOOOOOOO++++OOOOXX++44444444oo  XXXXXXXXoooo%%&&%%",
"OOOOOOOOOOOOOOOOOOOOOO++++OOOOXX++44444444oo  XXXXXXXXoooo%%&&%%",
"OOOOOOOOOOOOOOOOOOOO  ++++OOOOXX++444444XXXX..XXXXXXXXoo%%$$####",
"OOOOOOOOOOOOOOOOOOOO  ++++OOOOXX++444444XXXX..XXXXXXXXoo%%$$####",
"  OOOO  OOOOOOOOOOOOOOOOXX    XXXX  ..XXXXXX..XXXXXXXX%%%%$$$$$$",
"  OOOO  OOOOOOOOOOOOOOOOXX    XXXX  ..XXXXXX..XXXXXXXX%%%%$$$$$$",
"XX      OOOOOOOOOOOOOOOO++++++XXXX  ..XXXXXX%%%%%%**%%%%11$$$$$$",
"XX      OOOOOOOOOOOOOOOO++++++XXXX  ..XXXXXX%%%%%%**%%%%11$$$$$$",
"XXXXOOOO  OOOOOOOOOO....++4444++XX  ..XXXX%%%%=-======11########",
"XXXXOOOO  OOOOOOOOOO....++4444++XX  ..XXXX%%%%=-======11########",
"++XXOOOOXXOOOO  OOOO++++444444oooo**%%%%%%%%::33======11########",
"++XXOOOOXXOOOO  OOOO++++444444oooo**%%%%%%%%::33======11########",
"oooo....44OOOOXX..  ++++4444oooooo%%;;------;;33,,==--##########",
"oooo....44OOOOXX..  ++++4444oooooo%%::------::33,,==--##########",
"++++XXXX++....++++XX++4444XXoooooo**::====--==##&&%%############",
"++++XXXX++....++++XX++4444XXoooooo**::========##&&%%############",
"44++++XXoo++444444XX++++++XXoooo%%**::====####%%####%%%%%%######",
"44++++XXoo++444444XX++++++XXoooo%%**::====####%%####%%%%%%######",
"44++++..XX44444444XXoooooo  oo%%%%##########%%%%##########&&&&&&",
"44++++..XX44444444XXoooooo  oo%%%%##########%%%%##########&&&&&&",
"oo44++....44444444  oooooo  **%%11$$####%%%%%%################%%",
"oo44++....44444444  oooooo  **%%11$$####%%%%%%################%%",
"oooooo  ..++4444oo  ooooooXX**2211##%%%%######################%%",
"oooooo  ..++4444oo  ooooooXX**2211##%%%%######################%%",
"oooooo  ..oooooooo  oooooo%%%%<<%%%%%%######$$$$$$$$$$$$$$$$####",
"oooooo  ..oooooooo  oooooo%%%%<<%%%%%%######$$$$$$$$$$$$$$$$####",
"oooooo  ..ooooooooXX****%%%%<<@@%%%%&&&&%%$$$$$$$$$$$$##########",
"oooooo  ..ooooooooXX****%%%%<<@@%%%%&&&&%%$$$$$$$$$$$$##########",
"oooooo..%%oooooooo****1111>-,,%%##$$$$$$$$%%$$$$$$$$$$##########",
"oooooo..%%oooooooo****1111>-,,%%##$$$$$$$$%%$$$$$$$$$$##########",
"****%%%%%%%%%%******1111<<,,33##########$$$$%%$$$$$$$$########%%",
"****%%%%%%%%%%******1111<<,,33##########$$$$%%$$$$$$$$########%%",
"111111######111122,,==##%%&&##################&&%%########%%%%%%",
"111111######111122,,==##%%&&##################&&%%########%%%%%%",
"####################%%%%%%####################&&%%%%%%%%%%######",
"####################%%%%%%####################&&%%%%%%%%%%######"
};
