/* XPM */
static char *bottom_41706113617[] = {
/* columns rows colors chars-per-pixel */
"64 64 23 1 ",
"  c #836054",
". c #876254",
"X c #8B6A5C",
"o c #966B52",
"O c #A07759",
"+ c #83A448",
"@ c #AD906F",
"# c #30BDCB",
"$ c #34CBD1",
"% c #64DDE3",
"& c #4EE3E9",
"* c #87928E",
"= c #8F9B92",
"- c #8E9C91",
"; c #899B96",
": c #8A9A97",
"> c #909E93",
", c #92A196",
"< c #93A097",
"1 c #94A498",
"2 c #96A29C",
"3 c #9FA89C",
"4 c #B6A582",
/* pixels */
"++++++++++++++++++++++++++++++++++++++++++++++++++++++++++++++++",
"++++++++++++++++++++++++++++++++++++++++++++++++++++++++++++++++",
"++++++++++++++++++++++++++++++++++++++++++++++++++++++++++++++++",
"++++++++++++++++++++++++++++++++++++++++++++++++++++++++++++++++",
"++++++++++++++++++++++++++++++++++++++++++++++++++++++++++++++++",
"++++++++++++++++++++++++++++++++++++++++++++++++++++++++++++++++",
"++++++++++++++++++++++++++++++++++++++++++++++++++++++++++++++++",
"++++++++++++++++++++++++++++++++++++++++++++++++++++++++++++++++",
"++++++++++++++++++++++++++++++++++++++++++++++++++++++++++++++++",
"++++++++++++++++++++++++++++++++++++++++++++++++++++++++++++++++",
"++++++++++++++++++++++++++++++++++++++++++++++++++++++++++++++++",
"++++++++++++++++++++++++++++++++++++++++++++++++++++++++++++++++",
"++++++++++++++++++++++++++++++++++++++++++++++++++++++++++++++++",
"++++++++++++++++++++++++++++++++++++++++++++++++++++++++++++++++",
"++++++++++++++++++++++++++++++++++++++++++++++++++++++++++++++++",
"++++++++++++++++++++++++++++++++++++++++++++++++++++++++++++++++",
"++++++++++++++++++++++++++++++++++++++++++++++++++++++++++++++++",
"++++++++++++++++++++++++++++++++++++++++++++++++++++++++++++++++",
"++++++++++++++++++++++++++++++++++++++++++++++++++++++++++++++++",
"++++++++++++++++++++++++++++++++++++++++++++++++++++++++++++++++",
"++++++++++++++++  ++++..++++++++++++++++++++++++++++++++++++++++",
"++++++++++++++++  ++++..++++++++++++++++++++++++++++++++++++++++",
"++++++++++++++++oo..  ++++++++++++++++++++++++++++++++++++++++++",
"++++++++++++++++oo..  ++++++++++++++++++++++++++++++++++++++++++",
"++  ++++++++++++oooooo++++++  ++++++++++++..++++oo  ++++++++++++",
"++  ++++++++++++oooooo++++++  ++++++++++++..++++oo  ++++++++++++",
"++..++++++++    oooo..      oo++++oo++++..oooo    oo  ++++++++++",
"++..++++++++    oooo..      oo++++oo++++..oooo    oo  ++++++++++",
"++++    ++++OOOOOOOO++++ooooOO    @@....oooooooooo++++++++++++++",
"++++    ++++OOOOOOOO++++ooooOO    @@....oooooooooo++++++++++++++",
"++++oooo    OOOOOO++++++oo++++oo@@@@@@++++ooOOOOOO++++++++++  ++",
"++++oooo    OOOOOO++++++oo++++oo@@@@@@++++ooOOOOOO++++++++++  ++",
"    oo++++ooOOOOOO++++..@@++++oooo44@@++++OO++++@@          oo  ",
"   .oo++++ooOOOOOO++++..@@++++oooo44@@++++OO++++@@          oo  ",
"oooooo++++@@ooOOoo....@@@@XXXX@@oo4444XXXX@@++++@@@@  ++++oooooo",
"oooooo++++@@ooOOoo....@@@@XXXX@@oo4444XXXX@@++++@@@@  ++++oooooo",
"@@OO@@XXXX@@@@@@ooooOO++++@@@@@@OOoo4444OO@@XXXX@@@@oo++++oooooo",
"@@OO@@XXXX@@@@@@ooooOO++++@@@@@@OOoo4444OO@@XXXX@@@@oo++++oooooo",
"@@OO@@@@4444@@@@oooo@@++++++@@@@ooooooooOO@@@@@@@@oooo....oooo@@",
"@@OO@@@@4444@@@@oooo@@++++++@@@@ooooooooOO@@@@@@@@oooo....oooo@@",
"@@ooOO@@444444@@@@oo44XX++++@@@@@@OOOOooooOOOOoooooooooooooo@@@@",
"@@ooOO@@444444@@@@oo44XX++++@@@@@@OOOOooooOOOOoooooooooooooo@@@@",
"@@@@@@oo@@4444@@OOoo4444XXXX@@@@@@@@OOoo@@@@@@@@@@@@@@oooo@@4444",
"@@@@@@oo@@4444@@OOoo4444XXXX@@@@@@@@OOoo@@@@@@@@@@@@@@oooo@@4444",
"4444@@ooooOOOOOOOOoooo44444444@@oooooooo@@44444444@@@@@@oo@@4444",
"4444@@ooooOOOOOOOOoooo4444444@@@oooooooo@@44444444@@@@@@oo@@4444",
"44@@@@XXooOOOOOOOOooooooooooOoooooooooooXX444444444444@@ooOOOO44",
"44@@@@XXooOOOOOOOOooooooooooooooooooooooXX444444444444@@ooOOOO44",
"OOOOooXXXXOOOOOOOOOOoooooo@@@@@@@@@@@@XX..XXoo444444@@OO..OOOOOO",
"OOOOooXXXXOOOOOOOOOOoooooo@@@@@@@@@@@@XX..XXoo444444@@OO..OOOOOO",
"OOOOoo..XXOOOOOOOOOOooooXXOO@@@@@@@@@@@@..XXooOOOOOOOOOO..OOOOOO",
"OOOOoo..XXOOOOOOOOOOooooXXOO@@@@@@@@@@@@..XXooOOOOOOOOOO..OOOOOO",
"OOOOoo..XXOOOOOOOOOOooooXXOOOOOOOOOOOOOOXXXXooOOOOOOOOOOooOOOOOO",
"OOOOoo..XXOOOOOOOOOOooooXXOOOOOOOOOOOOOOXXXXooOOOOOOOOOOooOOOOOO",
"OOOOoo..XXOOOOOOOOOOoo$$$$OOOOOOOOOOOOOO$$$$$$$$$$$$&&$$$$OOOOOO",
"OOOOoo..XXOOOOOOOOOOoo$$$$OOOOOOOOOOOOOO$$$$$$$$$$$$&&$$$$OOOOOO",
"$$$$$$$$$$$$$$$$$$$$$$$$$$$$$$$$$$$$$$$$$$,2--,,,,,,<<<<$$$$$$&&",
"$$$$$$$$$$$$$$$$$$$$$$$$$$$$$$$$$$$$$$$$$$22--,,,,,,<<<<$$$$$$&&",
"11==>>**::1>112211======::1133>>,,,,,,;;;;;;-<,,,,,,<<----<<<<&&",
"11==>:**::1>111111======::22331>,,,,,,;;;;;;--,,,,<<<<----<<<<&&",
">>>>**::::2>1>2>11>>=>##$$%%########;;::;;;;--33,,,,<<--==1111<<",
">>=>**::::>21>>211>>=>##$$%%########;;::**;;--33,,,,<<--==1111<<",
"####################$$$$$$##################$$%%$$$$$$$$$$######",
"####################$$$$$$####################%%$$$$$$$$$$######"
};
