/* XPM */
static char *bottom_right_31706091765[] = {
/* columns rows colors chars-per-pixel */
"64 64 24 1 ",
"  c #876254",
". c #8B6A5C",
"X c #966B52",
"o c #A07759",
"O c #83A448",
"+ c #AD906F",
"@ c #30BDCB",
"# c #2BC1C7",
"$ c #34CBD1",
"% c #64DDE3",
"& c #4EE3E9",
"* c #8F9B92",
"= c #8E9C91",
"- c #899B96",
"; c #8A9A97",
": c #909A91",
"> c #909E93",
", c #949F95",
"< c #92A196",
"1 c #93A097",
"2 c #94A498",
"3 c #9CA298",
"4 c #9FA89C",
"5 c #B6A582",
/* pixels */
"OOOOOOOOOOOOOOOOOOOOOOOOOOOOOOOOOOOO..oo....++OOOO++ooXXXX$$**##",
"OOOOOOOOOOOOOOOOOOOOOOOOOOOOOOOOOOOO..oo....++OOOO++ooXXXX$$**##",
"OOOOOOOOOOOOOOOOOOOOOOOOOO  OOOOOOOOOO++++++++....++++++..$$@@##",
"OOOOOOOOOOOOOOOOOOOOOOOOOO  OOOOOOOOOO++++++++....++++++..$$@@##",
"OOOOOOOOOOOOOOOOOOOO  OOOO  OOOO  OOOOooOOOO++oo++++++++..&&####",
"OOOOOOOOOOOOOOOOOOOO  OOOO  OOOO  OOOOooOOOO++oo++++++++..&&####",
"OOOOOOOOOOOOOO  OOOO        OOOOoo    XXOOOOoooo++++++....&&####",
"OOOOOOOOOOOOOO  OOOO        OOOOoo    XXOOOOoooo++++++....&&####",
"OOOOOOOOOOOOOO        oooo++....++ooXXoo....++++oooo....&&&&$$$$",
"OOOOOOOOOOOOOO        oooo++....++ooXXoo....++++oooo....&&&&$$$$",
"OOOOOOOOOOOOOOOO  OOOOoo++++++++++oooooo++++++++++++++..$$@@@@$$",
"OOOOOOOOOOOOOOOO  OOOOoo++++++++++oooooo++++++++++++++..$$@@@@$$",
"OOOOOOOOOOOOOOOOOOOOOOoo++++++++ooXXOOOO++OOOO++++5555$$;;@@####",
"OOOOOOOOOOOOOOOOOOOOOOoo++++++++ooXXOOOO++OOOO++++5555$$;;@@####",
"OOOOOOOOOOOOOOOOOOOOOOOOooXXOOOOooooOOOO++OOOO++555555$$;;######",
"OOOOOOOOOOOOOOOOOOOOOOOOooXXOOOOooooOOOO++OOOO++555555$$;;######",
"OOOOOOOOOOOOOOOOOOOOOOOO++++OOOOooOOOO..++....555555XX$$########",
"OOOOOOOOOOOOOOOOOOOOOOOO++++OOOOooOOOO..++....555555XX$$########",
"OOOOOOOOOOOOOOOOOO  OOOO++++ooOOOOOOOOOOoooo++5555....$$########",
"OOOOOOOOOOOOOOOOOO  OOOO++++ooOOOOOOOOOOoooo++5555....$$########",
"OOOOOOOOOOOOOOOOOOOO    XXXXooOOOO..OOOO++++oooooo..++++@@@@$$$$",
"OOOOOOOOOOOOOOOOOOOO    XXXXooOOOO..OOOO++++oooooo..++++@@@@$$$$",
"OOOOOOOOOOOOOOOOOOOOXXXXXXXXoo    ++....55++XXoooo++++++++$$@@@@",
"OOOOOOOOOOOOOOOOOOOOXXXXXXXXoo    ++....55++XXoooo++++++++$$@@@@",
"OOOOOOOOOOOOOOOOOO  XXXX++++XXoooo++55555555  XX++++++++oo&&@@@@",
"OOOOOOOOOOOOOOOOOO  XXXX++++XXoooo++55555555  XX++++++++oo&&@@@@",
"OOOOOOOOOOOOOOOOOOOOOO++++++++XX++++55555555  XX++++++oooo&&@@@@",
"OOOOOOOOOOOOOOOOOOOOOO++++++++XX++++55555555  XX++++++oooo&&@@@@",
"OOOOOOOOOOOOOOOOOOOOOO++++OOOOXX++55555555oo  XXXXXXXXoooo$$%%$$",
"OOOOOOOOOOOOOOOOOOOOOO++++OOOOXX++55555555oo  XXXXXXXXoooo$$%%$$",
"OOOOOOOOOOOOOOOOOOOO  ++++OOOOXX++555555XXXX..XXXXXXXXoo$$##@@@@",
"OOOOOOOOOOOOOOOOOOOO  ++++OOOOXX++555555XXXX..XXXXXXXXoo$$##@@@@",
"  OOOO  OOOOOOOOOOOOOOOOXX    XXXX  ..XXXXXX..XXXXXXXX$$$$######",
"  OOOO  OOOOOOOOOOOOOOOOXX    XXXX  ..XXXXXX..XXXXXXXX$$$$######",
"XX      OOOOOOOOOOOOOOOO++++++XXXX  ..XXXXXX$$$$$$$$$$$$11######",
"XX      OOOOOOOOOOOOOOOO++++++XoXX  ..XXXXXX$$$$$$$$$$$$11######",
"XXXXOOOO  OOOOOOOOOO....++5555++XX  ..XXXX$$$$*=******1111######",
"XXXXOOOO  OOOOOOOOOO....++5555++XX  ..XXXX$$$$*=******1111######",
"++XXOOOOXXOOOO  OOOO++++555555oooo$$$$$$$$$$;;33******11#@@@@@#@",
"++XXOOOOXXOOOO  OOOO++++55555+oooo$$$$$$$$$$;;33******11@@@@@@@@",
"oooo....55OOOOXX..  ++++5555+ooooo$$--======--33>>*>:=@@@@@@@@@@",
"oooo....55OOOOXX..  ++++5555oooooo$$--======;;33>>*===@@@@@@@@@@",
"++++XXXX++....++++XX++5555XXoooooo&&--========##%%%%@@@@@@@@@@@@",
"++++XXXX++....++++XX++555+XXoooooo&&;;========##%%%%@@@@@@@@@@@@",
"55++++XXoo++555555XX++++++XXoooo$$$$;;**==@@@@$$$$$$$$$$$$@@@@@@",
"55++++XXoo++555555XX++++++XXoooo$$$$;;****@@@@$$$$$$$$$$$$@@@@@@",
"55++++..XX55555555XXoooooo  oo$$$$@@@@@@@@@@$$$$@@@@@@@@@@%%%%$$",
"55++++..XX55555555XXoooooo  oo$$$$@@@@@@@@@@$$$$@@@@@@@@@@%%%%$$",
"oo55++....55555555. oooooo  &&$$11####$$$$$$$$@@@@@@@@@@@@@@@@$$",
"oo55++....5555555+. oooooo  &&$$11####$$$$$$$$@@@@@@@@@@@@@@@@$$",
"oooooo  ..++5555oo  ooooooXX$$2211##$$@@@@@@@@@@@@@@@@@@@@@@@@$$",
"oooooo  ..++5555oo  ooooooXX$$2211##$$@@@@@@@@@@@@@@@@@@@@@@@@$$",
"oooooo  ..oooooooo  oooooo$$$$,,$$$$$$@@@@@@##################@@",
"oooooo  ..oooooooo  oooooo$$$$,,$$$$$$@@@@@@##################@@",
"oooooo  ..ooooooooXX&&&&$$$$>:1,$$$$%%%%$$##################@@@@",
"oooooo  ..ooooooooXX&&&&$$$$::,,$$$$%%%%$$##################@@@@",
"oooooo..$$oooooooo&&&&1111=<>>$$@@########$$##########@@@@@@@@@@",
"oooooo..$$oooooooo&&&&11111<>>$$@@########$$##########@@@@@@@@@@",
"&&$$$$$$$$$$$$&&&&&&,111112244@@############$$############@@@@$$",
"&&$$$$$$$$$$$$&&&&&&1111<12244@@############$$############@@@@$$",
"111111@@@@1,111122>>@@@@$$%%@@@@@@@@@@@@######%%$$####@@@@$$$$@@",
"111111@@@@13111122>>@@@@$$%%@@@@@@@@@@@@######%%$$####@@@@$$$$@@",
"@@@@@@@@@@@@@@#@@@@@$$$$$$@@@@@@@@@@@@@@@@@@@@%%$$$$$$$$$$@@@@@@",
"@@@@@@@@@@@@@@@@@@@@$$$$$$@@@@@@@@@@@@@@@@@@@@%%$$$$$$$$$$@@@@@@"
};
