/* XPM */
static char *left_51706113773[] = {
/* columns rows colors chars-per-pixel */
"64 64 12 1 ",
"  c #876254",
". c #8B6A5C",
"X c #966B52",
"o c #A07759",
"O c #83A448",
"+ c #AD906F",
"@ c #30BDCB",
"# c #2BC1C7",
"$ c #34CBD1",
"% c #64DDE3",
"& c #4EE3E9",
"* c #B6A582",
/* pixels */
"####$$++++++XX  OOOOOOOOOOOOOOOOOOOOOOOOOOOOOOOOOOOOOOOOOOOOOOOO",
"####$$++++++XX  OOOOOOOOOOOOOOOOOOOOOOOOOOOOOOOOOOOOOOOOOOOOOOOO",
"####$$XX....XX  OOOOOOOOOOOOOOOOOOOOOOOOOOOOOOOOOOOOOOOOOOOOOOOO",
"####$$XX....XX  OOOOOOOOOOOOOOOOOOOOOOOOOOOOOOOOOOOOOOOOOOOOOOOO",
"####$$XX++++++++      OOOOOOOOOOOOOOOOOOOOOOOOOOOOOOOOOOOOOOOOOO",
"####$$XX++++++++      OOOOOOOOOOOOOOOOOOOOOOOOOOOOOOOOOOOOOOOOOO",
"@@@@&&XX++OOOO++++++OOOOOOOOOOOOOOOOOOOOOOOOOOOOOOOOOOOOOOOOOOOO",
"@@@@&&XX++OOOO++++++OOOOOOOOOOOOOOOOOOOOOOOOOOOOOOOOOOOOOOOOOOOO",
"$$$$&&&&++....++++++OOOOOO  OOOOOOOOOOOOOOOOOOOOOOOOOOOOOOOOOOOO",
"$$$$&&&&++....++++++OOOOOO  OOOOOOOOOOOOOOOOOOOOOOOOOOOOOOOOOOOO",
"$$@@$$&&oo++++++++++      OOOOOOOOOOOOOOOOOOOOOOOOOOOOOOOOOOOOOO",
"$$@@$$&&oo++++++++++      OOOOOOOOOOOOOOOOOOOOOOOOOOOOOOOOOOOOOO",
"##$$$$&&oooooooooooo++++  OOOOOOOOOOOOOOOOOOOOOOOOOOOOOOOOOOOOOO",
"##$$$$&&oooooooooooo++++  OOOOOOOOOOOOOOOOOOOOOOOOOOOOOOOOOOOOOO",
"##$$$$$$******++ooooooOOOO    OOOOOOOOOOOOOOOOOOOOOOOOOOOOOOOOOO",
"##$$$$$$******++ooooooOOOO    OOOOOOOOOOOOOOOOOOOOOOOOOOOOOOOOOO",
"##$$$$********OOOO++ooOOOOOOOOOOOOOOOOOOOOOOOOOOOOOOOOOOOOOOOOOO",
"##$$$$********OOOO++ooOOOOOOOOOOOOOOOOOOOOOOOOOOOOOOOOOOOOOOOOOO",
"$$@@$$******++OOOO++++..OOOOOOOOOOOOOOOOOOOOOOOOOOOOOOOOOOOOOOOO",
"$$@@$$******++OOOO++++..OOOOOOOOOOOOOOOOOOOOOOOOOOOOOOOOOOOOOOOO",
"@@@@$$++++++++....++++OOOOOOOOOOOOOOOOOOOOOOOOOOOOOOOOOOOOOOOOOO",
"@@@@$$++++++++....++++OOOOOOOOOOOOOOOOOOOOOOOOOOOOOOOOOOOOOOOOOO",
"@@@@$$++++++++++++++++OOOO..OOOOOOOOOOOOOOOOOOOOOOOOOOOOOOOOOOOO",
"@@@@$$++++++++++++++++OOOO..OOOOOOOOOOOOOOOOOOOOOOOOOOOOOOOOOOOO",
"@@@@$$XXXX++++............++OOOO  OOOOOOOOOOOOOOOOOOOOOOOOOOOOOO",
"@@@@$$XXXX++++............++OOOO  OOOOOOOOOOOOOOOOOOOOOOOOOOOOOO",
"####$$XXXXXXXX......oooo++oo      OOOOOOOOOOOOOOOOOOOOOOOOOOOOOO",
"####$$XXXXXXXX......oooo++oo      OOOOOOOOOOOOOOOOOOOOOOOOOOOOOO",
"####$$XX****++++oo..oo++++++++  OOOOOOOOOOOOOOOOOOOOOOOOOOOOOOOO",
"####$$XX****++++oo..oo++++++++  OOOOOOOOOOOOOOOOOOOOOOOOOOOOOOOO",
"%%$$$$****OOOO++++oo++++++++++  OOOOOOOOOOOOOOOOOOOOOOOOOOOOOOOO",
"%%$$$$****OOOO++++oo++++++++++  OOOOOOOOOOOOOOOOOOOOOOOOOOOOOOOO",
"@@@@$$****OOOOOO++oo++++++++OOOO  OOOOOOOOOOOOOOOOOOOOOOOOOOOOOO",
"@@@@$$****OOOOOO++oo++++++++OOOO  OOOOOOOOOOOOOOOOOOOOOOOOOOOOOO",
"####$$++++..OOOO++oo++OOOO++OOOOOOOOOOOOOOOOOOOOOOOOOOOOOOOOOOOO",
"####$$++++..OOOO++oo++OOOO++OOOOOOOOOOOOOOOOOOOOOOOOOOOOOOOOOOOO",
"@@@@$$oo++++....++ooOOOOOO++  OOOOOOOOOOOOOOOOOOOOOOOOOOOOOOOOOO",
"@@@@$$oo++++....++ooOOOOOO++  OOOOOOOOOOOOOOOOOOOOOOOOOOOOOOOOOO",
"@@@@$$oooooo........OOOO  OOOOOOOOOOOOOOOOOOOOOOOOOOOOOOOOOOOOOO",
"@@@@$$oooooo........OOOO  OOOOOOOOOOOOOOOOOOOOOOOOOOOOOOOOOOOOOO",
"@@@@$$oooooo........    ++OOOOOOOOOOOOOOOOOOOOOOOOOOOOOOOOOOOOOO",
"@@@@$$oooooo........    ++OOOOOOOOOOOOOOOOOOOOOOOOOOOOOOOOOOOOOO",
"@@@@$$$$oooooo........oo++    OOOOOOOOOOOOOOOOOOOOOOOOOOOOOOOOOO",
"@@@@$$$$oooooo........oo++    OOOOOOOOOOOOOOOOOOOOOOOOOOOOOOOOOO",
"$$$$$$&&oo++++++++++ooooooOOOOOOOOOOOOOOOOOOOOOOOOOOOOOOOOOOOOOO",
"$$$$$$&&oo++++++++++ooooooOOOOOOOOOOOOOOOOOOOOOOOOOOOOOOOOOOOOOO",
"####&&&&****OOOO++++++++ooOOOOOOOOOOOOOOOOOOOOOOOOOOOOOOOOOOOOOO",
"####&&&&****OOOO++++++++ooOOOOOOOOOOOOOOOOOOOOOOOOOOOOOOOOOOOOOO",
"@@@@&&****OOOOOO++++++++ooXXOOOOOOOOOOOOOOOOOOOOOOOOOOOOOOOOOOOO",
"@@@@&&****OOOOOO++++++++ooXXOOOOOOOOOOOOOOOOOOOOOOOOOOOOOOOOOOOO",
"@@@@&&****OOOO..++++++++OOOOOOOOOOOOOOOOOOOOOOOOOOOOOOOOOOOOOOOO",
"@@@@&&****OOOO..++++++++OOOOOOOOOOOOOOOOOOOOOOOOOOOOOOOOOOOOOOOO",
"$$@@&&++++....++++++++..OOOOOOOOOOOOOOOOOOOOOOOOOOOOOOOOOOOOOOOO",
"$$@@&&++++....++++++++..OOOOOOOOOOOOOOOOOOOOOOOOOOOOOOOOOOOOOOOO",
"@@$$$$oo++++++++++++....  OOOOOOOOOOOOOOOOOOOOOOOOOOOOOOOOOOOOOO",
"@@$$$$oo++++++++++++....  OOOOOOOOOOOOOOOOOOOOOOOOOOOOOOOOOOOOOO",
"$$$$$$oooo++++++OOOO..OOOOOOOOOOOOOOOOOOOOOOOOOOOOOOOOOOOOOOOOOO",
"$$$$$$oooo++++++OOOO..OOOOOOOOOOOOOOOOOOOOOOOOOOOOOOOOOOOOOOOOOO",
"@@@@$$oooooo..OOOOOOOOOOOOOOOOOOOOOOOOOOOOOOOOOOOOOOOOOOOOOOOOOO",
"@@@@$$oooooo..OOOOOOOOOOOOOOOOOOOOOOOOOOOOOOOOOOOOOOOOOOOOOOOOOO",
"@@@@$$oooooo..OOOOOOOOOOOOOOOOOOOOOOOOOOOOOOOOOOOOOOOOOOOOOOOOOO",
"@@@@$$oooooo..OOOOOOOOOOOOOOOOOOOOOOOOOOOOOOOOOOOOOOOOOOOOOOOOOO",
"@@@@$$$$ooooXX..  OOOO  OOOOOOOOOOOOOOOOOOOOOOOOOOOOOOOOOOOOOOOO",
"@@@@$$$$ooooXX..  OOOO  OOOOOOOOOOOOOOOOOOOOOOOOOOOOOOOOOOOOOOOO"
};
