/* XPM */
static char *right_51706113039[] = {
/* columns rows colors chars-per-pixel */
"64 64 12 1 ",
"  c #876254",
". c #8B6A5C",
"X c #966B52",
"o c #A07759",
"O c #83A448",
"+ c #AD906F",
"@ c #30BDCB",
"# c #2BC1C7",
"$ c #34CBD1",
"% c #64DDE3",
"& c #4EE3E9",
"* c #B6A582",
/* pixels */
"OOOOOOOOOOOOOOOOOOOOOOOOOOOOOOOOOOOOOOOOOOOOOOOO++++XXoo@@@@@@##",
"OOOOOOOOOOOOOOOOOOOOOOOOOOOOOOOOOOOOOOOOOOOOOOOO++++XXoo@@@@@@##",
"OOOOOOOOOOOOOOOOOOOOOOOOOOOOOOOOOOOOOOOOOOOOOO  ++++++oo@@@@@@##",
"OOOOOOOOOOOOOOOOOOOOOOOOOOOOOOOOOOOOOOOOOOOOOO  ++++++oo@@@@@@##",
"OOOOOOOOOOOOOOOOOOOOOOOOOOOOOOOOOO  OOOO  OOOOoooo++++++########",
"OOOOOOOOOOOOOOOOOOOOOOOOOOOOOOOOOO  OOOO  OOOOoooo++++++########",
"OOOOOOOOOOOOOOOOOOOOOOOOOOOOOOOOOO    oooooo  oo++++++++$$@@@@@@",
"OOOOOOOOOOOOOOOOOOOOOOOOOOOOOOOOOO    oooooo  oo++++++++$$@@@@@@",
"OOOOOOOOOOOOOOOOOOOOOOOOOOOOOOOOOOOOOOooooooOOOO++++++++$$$$$$$$",
"OOOOOOOOOOOOOOOOOOOOOOOOOOOOOOOOOOOOOOooooooOOOO++++++++$$$$$$$$",
"OOOOOOOOOOOOOOOOOOOOOOOOOOOOOOOOOOOOOOooOOOOOOOO++++++$$@@@@@@$$",
"OOOOOOOOOOOOOOOOOOOOOOOOOOOOOOOOOOOOOOooOOOOOOOO++++++$$@@@@@@$$",
"OOOOOOOOOOOOOOOOOOOOOOOOOOOOOOOOOOooooooOOOO    ....XX$$@@@@####",
"OOOOOOOOOOOOOOOOOOOOOOOOOOOOOOOOOOooooooOOOO    ....XX$$@@@@####",
"OOOOOOOOOOOOOOOOOOOOOOOOOOOOOOOOOOOOoooo    oo++******$$@@######",
"OOOOOOOOOOOOOOOOOOOOOOOOOOOOOOOOOOOOoooo    oo++******$$@@######",
"OOOOOOOOOOOOOOOOOOOOOOOOOOOOOOOOOOOOoooooo++++++++******&&######",
"OOOOOOOOOOOOOOOOOOOOOOOOOOOOOOOOOOOOoooooo++++++++******&&######",
"OOOOOOOOOOOOOOOOOOOOOOOOOOOOOO    XXOOOO++++OOOO++++++**$$@@@@@@",
"OOOOOOOOOOOOOOOOOOOOOOOOOOOOOO    XXOOOO++++OOOO++++++**$$@@@@@@",
"OOOOOOOOOOOOOOOOOOOOOOOOOOOOOOOOXXOOOOOO++++OOOO++++++++$$@@$$$$",
"OOOOOOOOOOOOOOOOOOOOOOOOOOOOOOOOXXOOOOOO++++OOOO++++++++$$@@$$$$",
"OOOOOOOOOOOOOOOOOOOOOOOOOOOOOOOOooOOOOOOOOOO....++++++++$$$$@@@@",
"OOOOOOOOOOOOOOOOOOOOOOOOOOOOOOOOooOOOOOOOOOO....++++++++$$$$@@@@",
"OOOOOOOOOOOOOOOOOOOOOOOOOOOOXX  ++....OOOOOOoooooo....oo$$@@@@@@",
"OOOOOOOOOOOOOOOOOOOOOOOOOOOOXX  ++....OOOOOOoooooo....oo$$@@@@@@",
"OOOOOOOOOOOOOOOOOOOOOOOOOOOOOOOO++++++OOOO..**********oo$$%%@@@@",
"OOOOOOOOOOOOOOOOOOOOOOOOOOOOOOOO++++++OOOO..**********oo$$%%@@@@",
"OOOOOOOOOOOOOOOOOOOOOOOOOOOOOOOOXX++++....++++++++****oo$$@@%%%%",
"OOOOOOOOOOOOOOOOOOOOOOOOOOOOOOOOXX++++....++++++++****oo$$@@%%%%",
"OOOOOOOOOOOOOOOOOOOOOOOOOOOOOO  XXOOOO..++++++++++++**$$####@@@@",
"OOOOOOOOOOOOOOOOOOOOOOOOOOOOOO  XXOOOO..++++++++++++**$$####@@@@",
"OOOOOOOOOOOOOOOOOOOOOOOOOOOOOOOOOOOOOO..++++++++++++++$$########",
"OOOOOOOOOOOOOOOOOOOOOOOOOOOOOOOOOOOOOO..++++++++++++++$$########",
"OOOOOOOOOOOOOOOOOOOOOOOOOOOOOOOOOOOO  ..++++++++++++++$$########",
"OOOOOOOOOOOOOOOOOOOOOOOOOOOOOOOOOOOO  ..++++++++++++++$$########",
"OOOOOOOOOOOOOOOOOOOOOOOOOOOOOOOOOOOO  ++oo++++++++++XX$$@@@@@@@@",
"OOOOOOOOOOOOOOOOOOOOOOOOOOOOOOOOOOOO  ++oo++++++++++XX$$@@@@@@@@",
"OOOOOOOOOOOOOOOOOOOOOOOOOOOOOOOOOOOOOOOOOO..OOOOXXXXXX$$@@@@@@@@",
"OOOOOOOOOOOOOOOOOOOOOOOOOOOOOOOOOOOOOOOOOO..OOOOXXXXXX$$@@@@@@@@",
"OOOOOOOOOOOOOOOOOOOOOOOOOOOOOOOOOOOOOOOOOO..OOOOXXXXXX&&@@@@@@@@",
"OOOOOOOOOOOOOOOOOOOOOOOOOOOOOOOOOOOOOOOOOO..OOOOXXXXXX&&@@@@@@@@",
"OOOOOOOOOOOOOOOOOOOOOOOOOOOOOOOOOOOOOOOO  ..    XXXXXX&&@@@@@@@@",
"OOOOOOOOOOOOOOOOOOOOOOOOOOOOOOOOOOOOOOOO  ..    XXXXXX&&@@@@@@@@",
"OOOOOOOOOOOOOOOOOOOOOOOOOOOOOOOOOOOO    OOOOoo++++++++$$$$@@@@@@",
"OOOOOOOOOOOOOOOOOOOOOOOOOOOOOOOOOOOO    OOOOoo++++++++$$$$@@@@@@",
"OOOOOOOOOOOOOOOOOOOOOOOOOOOOOOOOOOOOXXXXOOOOOO++++OOOO++$$$$%%%%",
"OOOOOOOOOOOOOOOOOOOOOOOOOOOOOOOOOOOOXXXXOOOOOO++++OOOO++$$$$%%%%",
"OOOOOOOOOOOOOOOOOOOOOOOOOOOOOOOOOOOOOOOO  OOOO++++OOOO++++$$@@%%",
"OOOOOOOOOOOOOOOOOOOOOOOOOOOOOOOOOOOOOOOO  OOOO++++OOOO++++$$@@%%",
"OOOOOOOOOOOOOOOOOOOOOOOOOOOOOOOOOOOOOOOO..    ++++....****$$@@$$",
"OOOOOOOOOOOOOOOOOOOOOOOOOOOOOOOOOOOOOOOO..    ++++....****$$@@$$",
"OOOOOOOOOOOOOOOOOOOOOOOOOOOOOOOOOOOO  ....++++++++++******$$@@@@",
"OOOOOOOOOOOOOOOOOOOOOOOOOOOOOOOOOOOO  ....++++++++++******$$@@@@",
"OOOOOOOOOOOOOOOOOOOOOOOOOOOOOOOOOOOOOOOOOO..++++++********$$@@@@",
"OOOOOOOOOOOOOOOOOOOOOOOOOOOOOOOOOOOOOOOOOO..++++++********$$@@@@",
"OOOOOOOOOOOOOOOOOOOOOOOOOOOOOOOOOOOOOOOOOO......++****oo$$@@@@@@",
"OOOOOOOOOOOOOOOOOOOOOOOOOOOOOOOOOOOOOOOOOO......++****oo$$@@@@@@",
"OOOOOOOOOOOOOOOOOOOOOOOOOOOOOOOOOOOOOOOO  ............oo$$@@@@$$",
"OOOOOOOOOOOOOOOOOOOOOOOOOOOOOOOOOOOOOOOO  ............oo$$@@@@$$",
"OOOOOOOOOOOOOOOOOOOOOOOOOOOOOOOOOOOOOOOOOOOO..........oo$$$$$$@@",
"OOOOOOOOOOOOOOOOOOOOOOOOOOOOOOOOOOOOOOOOOOOO..........oo$$$$$$@@",
"OOOOOOOOOOOOOOOOOOOOOOOOOOOOOO..ooOOOO  OOOO****oooo******$$@@@@",
"OOOOOOOOOOOOOOOOOOOOOOOOOOOOOO..ooOOOO  OOOO****oooo******$$@@@@"
};
