/* XPM */
static char *top_right_31706091277[] = {
/* columns rows colors chars-per-pixel */
"64 64 13 1 ",
"  c #876254",
". c #8B6A5C",
"X c #966B52",
"o c #A07759",
"O c #83A448",
"+ c #AD906F",
"@ c #33B8C5",
"# c #30BDCB",
"$ c #2BC1C7",
"% c #34CBD1",
"& c #64DDE3",
"* c #B6A582",
"= c #EDFAFE",
/* pixels */
"$$$$$$############$$$$%%$$$$$$################%%##############$$",
"$$$$$$############$$$$%%$$$$$$################%%##############$$",
"$$$$$$$$$$$$$$$$$$$$%%$$$$$$$$$$$$$$$$########&&##############$$",
"$$$$$$$$$$$$$$$$$$$$%%$$$$$$$$$$$$$$$$########&&##############$$",
"$$$$$$$$$$$$$$$$%%%%$$$$$$$$$$$$$$########%%&&&&&&%%##$$$$$$$$$$",
"$$$$$$$$$$$$$$$$%%%%$$$$$$$$$$$$$$########%%&&&&&&%%##$$$$$$$$$$",
"******++%%%%%%&&%%%%$$$$$$$$$$########%%%%##########%%%%$$$$$$$$",
"******++%%%%%%&&%%%%$$$$$$$$$$########%%%%##########%%%%$$$$$$$$",
"++OOOO++++$$$$$$@@@@%%$$$$######%%%%%%$$$$$$$$$$######%%%%%%%%%%",
"++OOOO++++$$$$$$@@@@%%$$$$######%%%%%%$$$$$$$$$$######%%%%%%%%%%",
"OOOOOOooooOOOO****$$@@%%%%%%&&&&$$$$$$$$$$$$$$$$$$############%%",
"OOOOOOooooOOOO****$$@@%%%%%%&&&&$$$$$$$$$$$$$$$$$$############%%",
"OO    OOOOOOOO**++++####$$$$$$$$&&%%%%$$$$$$$$$$$$$$$$######$$$$",
"OO    OOOOOOOO**++++####$$$$$$$$&&%%%%$$$$$$$$$$$$$$$$######$$$$",
"OOOOooOOOO....++++++++++++****##$$$$$$%%$$$$$$$$$$########$$$$$$",
"OOOOooOOOO....++++++++++++****##$$$$$$%%$$$$$$$$$$########$$$$$$",
"OOOOOOOOOOOOOO++++oo++++OOOO****######%%############$$$$$$$$$$$$",
"OOOOOOOOOOOOOO++++oo++++OOOO****######%%############$$$$$$$$$$$$",
"OOOOOOOOOOOOOOooOOOOooOOOOOO++**######%%######$$$$$$$$$$$$$$$$$$",
"OOOOOOOOOOOOOOooOOOOooOOOOOO++**######%%######$$$$$$$$$$$$$$$$$$",
"OOOOOOOOOOOO  ooOOOO++OOOO..++++++####%%%%%%%%%%%%##########%%%%",
"OOOOOOOOOOOO  ooOOOO++OOOO..++++++####%%%%%%%%%%%%##########%%%%",
"OOOOOOOOOOOOOOOO    oo    ooooXXoo******##########%%%%##%%%%####",
"OOOOOOOOOOOOOOOO    oo    ooooXXoo******##########%%%%##%%%%####",
"OOOOOOOOOOOOOOOOXXooooooooXXXXXX********++############&&%%######",
"OOOOOOOOOOOOOOOOXXooooooooXXXXXX********++############&&%%######",
"OOOOOOOOOOOO    XXXXooOOOOXXXX**++++++OOOO++############==&&####",
"OOOOOOOOOOOO    XXXXooOOOOXXXX**++++++OOOO++############==&&####",
"OOOOOOOOOOOO  XXXXOOOOOOOO  OOOO++++++OOOO++oo$$$$$$$$&&####&&%%",
"OOOOOOOOOOOO  XXXXOOOOOOOO  OOOO++++++OOOO++oo$$$$$$$$&&####&&%%",
"OOOOOOOOOO  OOOO  OOOOOOOOOOOOOOOOOO++....oooo$$$$$$&&$$$$$$####",
"OOOOOOOOOO  OOOO  OOOOOOOOOOOOOOOOOO++....oooo$$$$$$&&$$$$$$####",
"OOOOOOOOOOOOOOOOOOOOOOOOOOOOOOOOOOOO++++XXoooo$$%%%%$$$$$$$$$$$$",
"OOOOOOOOOOOOOOOOOOOOOOOOOOOOOOOOOOOO++++XXoooo$$%%%%$$$$$$$$$$$$",
"OOOOOOOOOOOOOOOOOOOOOOOOOOOOOOOOOO  ooXX++OOOO****@@$$$$$$$$$$$$",
"OOOOOOOOOOOOOOOOOOOOOOOOOOOOOOOOOO  ooXX++OOOO****@@$$$$$$$$$$$$",
"OOOOOOOOOOOOOOOOOOOOOOOOOOOOOOOOOOXXXXXX++....******##$$$$$$$$$$",
"OOOOOOOOOOOOOOOOOOOOOOOOOOOOOOOOOOXXXXXX++....******##$$$$$$$$$$",
"OOOOOOOOOOOOOOOOOOOOOOOOOOOOOO    XXXXOOOOoooo++++**############",
"OOOOOOOOOOOOOOOOOOOOOOOOOOOOOO    XXXXOOOOoooo++++**############",
"OOOOOOOOOOOOOOOOOOOOOOOOOOOOOOOOOOOOXXOOOOOOoo++++++############",
"OOOOOOOOOOOOOOOOOOOOOOOOOOOOOOOOOOOOXXOOOOOOoo++++++############",
"OOOOOOOOOOOOOOOOOOOOOOOOOOOOOOOOOOOOOOOOOOOOoooo++++############",
"OOOOOOOOOOOOOOOOOOOOOOOOOOOOOOOOOOOOOOOOOOOOoooo++++############",
"OOOOOOOOOOOOOOOOOOOOOOOOOOOOOOOOOOOOOOOO    XXoooooo%%%%%%######",
"OOOOOOOOOOOOOOOOOOOOOOOOOOOOOOOOOOOOOOOO    XXoooooo%%%%%%######",
"OOOOOOOOOOOOOOOOOOOOOOOOOOOOOOOOOOOOOOOOOOOOXXOOOOoo######&&&&%%",
"OOOOOOOOOOOOOOOOOOOOOOOOOOOOOOOOOOOOOOOOOOOOXXOOOOoo######&&&&%%",
"OOOOOOOOOOOOOOOOOOOOOOOOOOOOOOOOOOOOOOOOOOOOXXOOOOOO++########%%",
"OOOOOOOOOOOOOOOOOOOOOOOOOOOOOOOOOOOOOOOOOOOOXXOOOOOO++########%%",
"OOOOOOOOOOOOOOOOOOOOOOOOOOOOOOOOOOOOOOOOOO  XX  OOOO++++######%%",
"OOOOOOOOOOOOOOOOOOOOOOOOOOOOOOOOOOOOOOOOOO  XX  OOOO++++######%%",
"OOOOOOOOOOOOOOOOOOOOOOOOOOOOOOOOOOOOOOOO  OOOOXX    ++++$$$$$$##",
"OOOOOOOOOOOOOOOOOOOOOOOOOOOOOOOOOOOOOOOO  OOOOXX    ++++$$$$$$##",
"OOOOOOOOOOOOOOOOOOOOOOOOOOOOOOOOOOOOOOOO  OOOOXXXXXX++++$$$$####",
"OOOOOOOOOOOOOOOOOOOOOOOOOOOOOOOOOOOOOOOO  OOOOXXXXXX++++$$$$####",
"OOOOOOOOOOOOOOOOOOOOOOOOOOOOOOOOOOOOOOOOOOOOOOOOOOXXXXXX########",
"OOOOOOOOOOOOOOOOOOOOOOOOOOOOOOOOOOOOOOOOOOOOOOOOOOXXXXXX########",
"OOOOOOOOOOOOOOOOOOOOOOOOOOOOOOOOOOOOOOOOOOOOOOOOOOXXXXXX$$####%%",
"OOOOOOOOOOOOOOOOOOOOOOOOOOOOOOOOOOOOOOOOOOOOOOOOOOXXXXXX$$####%%",
"OOOOOOOOOOOOOOOOOOOOOOOOOOOOOOOOOOOOOOOOOOOOOOOO  XXXXXX##%%%%##",
"OOOOOOOOOOOOOOOOOOOOOOOOOOOOOOOOOOOOOOOOOOOOOOOO  XXXXXX##%%%%##",
"OOOOOOOOOOOOOOOOOOOOOOOOOOOOOOOOOOOOOOOOOOOOOOXXoo++****%%######",
"OOOOOOOOOOOOOOOOOOOOOOOOOOOOOOOOOOOOOOOOOOOOOOXXoo++****%%######"
};
