/* XPM */
static char *top_left_21706090935[] = {
/* columns rows colors chars-per-pixel */
"64 64 12 1 ",
"  c #876254",
". c #8B6A5C",
"X c #966B52",
"o c #A07759",
"O c #83A448",
"+ c #AD906F",
"@ c #33B8C5",
"# c #30BDCB",
"$ c #2BC1C7",
"% c #34CBD1",
"& c #64DDE3",
"* c #B6A582",
/* pixels */
"$$$$$$############$$$$%%$$$$$$################%%##############$$",
"$$$$$$############$$$$%%$$$$$$################%%##############$$",
"$$$$$$$$$$$$$$$$$$$$%%$$$$$$$$$$$$############%%##############$$",
"$$$$$$$$$$$$$$$$$$$$%%$$$$$$$$$$$$############%%##############$$",
"$$$$$$$$$$$$$$$$%%%%$$$$$$$$$$##########%%%%&&&&&&%%####$$$$$$$$",
"$$$$$$$$$$$$$$$$%%%%$$$$$$$$$$##########%%%%&&&&&&%%####$$$$$$$$",
"########%%%%%%&&%%%%$$$$$$############%%%%##########++******####",
"########%%%%%%&&%%%%$$$$$$############%%%%##########++******####",
"%%&&&&%%######$$@@@@%%##########%%%%%%$$$$$$****++##oo********++",
"%%&&&&%%######$$@@@@%%##########%%%%%%$$$$$$****++##oo********++",
"%%##################@@%%%%%%&&&&$$$$$$$$********++oooo++******OO",
"%%##################@@%%%%%%&&&&$$$$$$$$********++oooo++******OO",
"$$%%$$$$$$$$####################&&%%%%$$******OOOOooooOOOO++++OO",
"$$%%$$$$$$$$####################&&%%%%$$******OOOOooooOOOO++++OO",
"$$%%%%$$$$$$$$######################%%##****++OOOOOOOOOOOOOOoo  ",
"$$%%%%$$$$$$$$######################%%##****++OOOOOOOOOOOOOOoo  ",
"%%%%%%%%$$$$$$$$$$####################%%ooooOOOOOOOOOOOOOOOOoooo",
"%%%%%%%%$$$$$$$$$$####################%%ooooOOOOOOOOOOOOOOOOoooo",
"%%##$$$$%%%%%%$$$$$$$$$$$$############%%ooooOOOOOOOOOOOOOO  OOOO",
"%%##$$$$%%%%%%$$$$$$$$$$$$############%%ooooOOOOOOOOOOOOOO  OOOO",
"##########$$$$%%%%%%$$$$$$$$####******++ooooXXOOOOOOOOOOOOOOOOOO",
"##########$$$$%%%%%%$$$$$$$$####******++ooooXXOOOOOOOOOOOOOOOOOO",
"##################$$%%%%%%%%**OOOO**++ooooOOOOOOOOOOOOOOOOOOOOOO",
"##################$$%%%%%%%%**OOOO**++ooooOOOOOOOOOOOOOOOOOOOOOO",
"######################%%%%****OOOO++ooooooOOOOOOOOOOOOOOOOOOOOOO",
"######################%%%%****OOOO++ooooooOOOOOOOOOOOOOOOOOOOOOO",
"$$$$$$################%%++++++....++ooOOOO    OOOOOOOOOOOOOOOOOO",
"$$$$$$################%%++++++....++ooOOOO    OOOOOOOOOOOOOOOOOO",
"$$$$$$$$$$$$########%%##++++++++OOOOooOOOOOO  OOOOOOOOOOOOOOOOOO",
"$$$$$$$$$$$$########%%##++++++++OOOOooOOOOOO  OOOOOOOOOOOOOOOOOO",
"%%%%&&&&&&$$$$$$####%%##ooXXOOOOOOOOOOOOOOOOOOOOOOOOOOOOOOOOOOOO",
"%%%%&&&&&&$$$$$$####%%##ooXXOOOOOOOOOOOOOOOOOOOOOOOOOOOOOOOOOOOO",
"##########&&%%######%%##ooXXOOOOOOOOOOOOOOOOOOOOOOOOOOOOOOOOOOOO",
"##########&&%%######%%##ooXXOOOOOOOOOOOOOOOOOOOOOOOOOOOOOOOOOOOO",
"$$$$$$$$######%%%%%%%%****XX....OOOOOOOOOOOOOOOOOOOOOOOOOOOOOOOO",
"$$$$$$$$######%%%%%%%%****XX....OOOOOOOOOOOOOOOOOOOOOOOOOOOOOOOO",
"################&&&&****++++++ooOOOOOOOOOOOOOOOOOOOOOOOOOOOOOOOO",
"################&&&&****++++++ooOOOOOOOOOOOOOOOOOOOOOOOOOOOOOOOO",
"##############%%%%##**OOOOoooooo..OOOOOOOOOOOOOOOOOOOOOOOOOOOOOO",
"##############%%%%##**OOOOoooooo..OOOOOOOOOOOOOOOOOOOOOOOOOOOOOO",
"##########******OOOOooOOOOOOooOOOOooooOOOOOOOOOOOOOOOOOOOOOOOOOO",
"##########******OOOOooOOOOOOooOOOOooooOOOOOOOOOOOOOOOOOOOOOOOOOO",
"######%%******OOOOOOooooOOOOOOOOOOooOOOOOOOOOOOOOOOOOOOOOOOOOOOO",
"######%%******OOOOOOooooOOOOOOOOOOooOOOOOOOOOOOOOOOOOOOOOOOOOOOO",
"%%%%%%$$****OOOOOOOOOOOOOOOOOOOOOOOOOOOOOOOOOOOOOOOOOOOOOOOOOOOO",
"%%%%%%$$****OOOOOOOOOOOOOOOOOOOOOOOOOOOOOOOOOOOOOOOOOOOOOOOOOOOO",
"$$$$$$$$++++OOOOOOOOOOOOOOOOOOOOOOOOOOOOOOOOOOOOOOOOOOOOOOOOOOOO",
"$$$$$$$$++++OOOOOOOOOOOOOOOOOOOOOOOOOOOOOOOOOOOOOOOOOOOOOOOOOOOO",
"######$$oooo..OOOO  OOOO  OOOOOOOOOOOOOOOOOOOOOOOOOOOOOOOOOOOOOO",
"######$$oooo..OOOO  OOOO  OOOOOOOOOOOOOOOOOOOOOOOOOOOOOOOOOOOOOO",
"######$$oooooo....ooOOOOooOOOOOOOOOOOOOOOOOOOOOOOOOOOOOOOOOOOOOO",
"######$$oooooo....ooOOOOooOOOOOOOOOOOOOOOOOOOOOOOOOOOOOOOOOOOOOO",
"%%######$$++++++++++oooooooo  OOOOOOOOOOOOOOOOOOOOOOOOOOOOOOOOOO",
"%%######$$++++++++++oooooooo  OOOOOOOOOOOOOOOOOOOOOOOOOOOOOOOOOO",
"##%%######++++++++OOOO++++ooOOOOOOOOOOOOOOOOOOOOOOOOOOOOOOOOOOOO",
"##%%######++++++++OOOO++++ooOOOOOOOOOOOOOOOOOOOOOOOOOOOOOOOOOOOO",
"##%%%%%%%%XX++++++OOOO++++XXOOOOOOOOOOOOOOOOOOOOOOOOOOOOOOOOOOOO",
"##%%%%%%%%XX++++++OOOO++++XXOOOOOOOOOOOOOOOOOOOOOOOOOOOOOOOOOOOO",
"%%%%######XXXXXXoo      OOOO    OOOOOOOOOOOOOOOOOOOOOOOOOOOOOOOO",
"%%%%######XXXXXXoo      OOOO    OOOOOOOOOOOOOOOOOOOOOOOOOOOOOOOO",
"############XXXXooooOOOOOOOOOOOOOOOOOOOOOOOOOOOOOOOOOOOOOOOOOOOO",
"############XXXXooooOOOOOOOOOOOOOOOOOOOOOOOOOOOOOOOOOOOOOOOOOOOO",
"########++++++++++ooooOOOOOOOOOOOOOOOOOOOOOOOOOOOOOOOOOOOOOOOOOO",
"########++++++++++ooooOOOOOOOOOOOOOOOOOOOOOOOOOOOOOOOOOOOOOOOOOO"
};
