/* XPM */
static char *top_11706112338[] = {
/* columns rows colors chars-per-pixel */
"64 64 12 1 ",
"  c #876254",
". c #8B6A5C",
"X c #966B52",
"o c #A07759",
"O c #83A448",
"+ c #AD906F",
"@ c #33B8C5",
"# c #30BDCB",
"$ c #2BC1C7",
"% c #34CBD1",
"& c #64DDE3",
"* c #B6A582",
/* pixels */
"$$$$$$$$$$$$$$$$$$$$$$%%%%$$$$$$$$$$$$########%%##############$$",
"$$$$$$$$$$$$$$$$$$$$$$%%%%$$$$$$$$$$$$########%%##############$$",
"$$$$$$$$$$$$$$$$$$$$%%$$$$$$$$$$$$############%%######$$$$$$$$$$",
"$$$$$$$$$$$$$$$$$$$$%%$$$$$$$$$$$$############%%######$$$$$$$$$$",
"$$$$$$$$$$$$$$$$%%%%$$$$$$$$$$##########****++++%%%%++****$$$$$$",
"$$$$$$$$$$$$$$$$%%%%$$$$$$$$$$##########****++++%%%%++****$$$$$$",
"########********%%%%$$$$$$##########%%******++++oo++********####",
"########********%%%%$$$$$$##########%%******++++oo++********####",
"++++++++**OOOO****@@%%########oooo++++****++OOOO++oo++++****++++",
"++++++++**OOOO****@@%%########oooo++++****++OOOO++oo++++****++++",
"OO++++++**OOOO******@@%%%%&&++OOOOoo++++++++OOOO++oooo++++++++OO",
"OO++++++**OOOO******@@%%%%&&++OOOOoo++++++++OOOO++oooo++++++++OO",
"OO++++++++....******++oo++++OOOOOOooooXX++++    OOOOXXooOOOOooOO",
"OO++++++++....******++oo++++OOOOOOooooXX++++    OOOOXXooOOOOooOO",
"  ooOOOOoo++++++++++++oooo++OOOO  ooooXXXXOOOO  OOOOOOXXOOOOOOOO",
"  ooOOOOoo++++++++++++oooo++OOOO  ooooXXXXOOOO  OOOOOOXXOOOOOOOO",
"ooOOOOOOoooo++OOOO++oooooo++    OOOOooXX  OOOOOOOOOOOOXXXXOOOOOO",
"ooOOOOOOoooo++OOOO++oooooo++    OOOOooXX  OOOOOOOOOOOOXXXXOOOOOO",
"OOOOOOXXXXXXXXOOOOooooOOOOooooooOOOOooOOOOOOOOOOOOOOXXOOOOXXOOOO",
"OOOOOOXXXXXXXXOOOOooooOOOOooooooOOOOooOOOOOOOOOOOOOOXXOOOOXXOOOO",
"OOOOOOXXXXXXOOOO  OOOOOOOOooOOOO    XXOOOOOOOOOOOOOOOOOOOOOOOOOO",
"OOOOOOXXXXXXOOOO  OOOOOOOOooOOOO    XXOOOOOOOOOOOOOOOOOOOOOOOOOO",
"OOOO  OOOOXXOOOOXXOOOO  ooooOOOO  OOOO    OOOOOOOOOOOOOOOOOOOOOO",
"OOOO  OOOOXXOOOOXXOOOO  ooooOOOO  OOOO    OOOOOOOOOOOOOOOOOOOOOO",
"OOOOOOOOOO      OOOOOOOO  XX  OOOOOOOO  OOOOOOOOOOOOOOOOOOOOOOOO",
"OOOOOOOOOO      OOOOOOOO  XX  OOOOOOOO  OOOOOOOOOOOOOOOOOOOOOOOO",
"OOOOOOOO  OOOO  OOOOOOOOOOOOOOOOOOOOOOOOOOOOOOOOOOOOOOOOOOOOOOOO",
"OOOOOOOO  OOOO  OOOOOOOOOOOOOOOOOOOOOOOOOOOOOOOOOOOOOOOOOOOOOOOO",
"OOOOOOOOOOOOOOOOOOOOOOOOOOOOOOOOOOOOOOOOOOOOOOOOOOOOOOOOOOOOOOOO",
"OOOOOOOOOOOOOOOOOOOOOOOOOOOOOOOOOOOOOOOOOOOOOOOOOOOOOOOOOOOOOOOO",
"OOOOOOOOOOOOOOOOOOOOOOOOOOOOOOOOOOOOOOOOOOOOOOOOOOOOOOOOOOOOOOOO",
"OOOOOOOOOOOOOOOOOOOOOOOOOOOOOOOOOOOOOOOOOOOOOOOOOOOOOOOOOOOOOOOO",
"OOOOOOOOOOOOOOOOOOOOOOOOOOOOOOOOOOOOOOOOOOOOOOOOOOOOOOOOOOOOOOOO",
"OOOOOOOOOOOOOOOOOOOOOOOOOOOOOOOOOOOOOOOOOOOOOOOOOOOOOOOOOOOOOOOO",
"OOOOOOOOOOOOOOOOOOOOOOOOOOOOOOOOOOOOOOOOOOOOOOOOOOOOOOOOOOOOOOOO",
"OOOOOOOOOOOOOOOOOOOOOOOOOOOOOOOOOOOOOOOOOOOOOOOOOOOOOOOOOOOOOOOO",
"OOOOOOOOOOOOOOOOOOOOOOOOOOOOOOOOOOOOOOOOOOOOOOOOOOOOOOOOOOOOOOOO",
"OOOOOOOOOOOOOOOOOOOOOOOOOOOOOOOOOOOOOOOOOOOOOOOOOOOOOOOOOOOOOOOO",
"OOOOOOOOOOOOOOOOOOOOOOOOOOOOOOOOOOOOOOOOOOOOOOOOOOOOOOOOOOOOOOOO",
"OOOOOOOOOOOOOOOOOOOOOOOOOOOOOOOOOOOOOOOOOOOOOOOOOOOOOOOOOOOOOOOO",
"OOOOOOOOOOOOOOOOOOOOOOOOOOOOOOOOOOOOOOOOOOOOOOOOOOOOOOOOOOOOOOOO",
"OOOOOOOOOOOOOOOOOOOOOOOOOOOOOOOOOOOOOOOOOOOOOOOOOOOOOOOOOOOOOOOO",
"OOOOOOOOOOOOOOOOOOOOOOOOOOOOOOOOOOOOOOOOOOOOOOOOOOOOOOOOOOOOOOOO",
"OOOOOOOOOOOOOOOOOOOOOOOOOOOOOOOOOOOOOOOOOOOOOOOOOOOOOOOOOOOOOOOO",
"OOOOOOOOOOOOOOOOOOOOOOOOOOOOOOOOOOOOOOOOOOOOOOOOOOOOOOOOOOOOOOOO",
"OOOOOOOOOOOOOOOOOOOOOOOOOOOOOOOOOOOOOOOOOOOOOOOOOOOOOOOOOOOOOOOO",
"OOOOOOOOOOOOOOOOOOOOOOOOOOOOOOOOOOOOOOOOOOOOOOOOOOOOOOOOOOOOOOOO",
"OOOOOOOOOOOOOOOOOOOOOOOOOOOOOOOOOOOOOOOOOOOOOOOOOOOOOOOOOOOOOOOO",
"OOOOOOOOOOOOOOOOOOOOOOOOOOOOOOOOOOOOOOOOOOOOOOOOOOOOOOOOOOOOOOOO",
"OOOOOOOOOOOOOOOOOOOOOOOOOOOOOOOOOOOOOOOOOOOOOOOOOOOOOOOOOOOOOOOO",
"OOOOOOOOOOOOOOOOOOOOOOOOOOOOOOOOOOOOOOOOOOOOOOOOOOOOOOOOOOOOOOOO",
"OOOOOOOOOOOOOOOOOOOOOOOOOOOOOOOOOOOOOOOOOOOOOOOOOOOOOOOOOOOOOOOO",
"OOOOOOOOOOOOOOOOOOOOOOOOOOOOOOOOOOOOOOOOOOOOOOOOOOOOOOOOOOOOOOOO",
"OOOOOOOOOOOOOOOOOOOOOOOOOOOOOOOOOOOOOOOOOOOOOOOOOOOOOOOOOOOOOOOO",
"OOOOOOOOOOOOOOOOOOOOOOOOOOOOOOOOOOOOOOOOOOOOOOOOOOOOOOOOOOOOOOOO",
"OOOOOOOOOOOOOOOOOOOOOOOOOOOOOOOOOOOOOOOOOOOOOOOOOOOOOOOOOOOOOOOO",
"OOOOOOOOOOOOOOOOOOOOOOOOOOOOOOOOOOOOOOOOOOOOOOOOOOOOOOOOOOOOOOOO",
"OOOOOOOOOOOOOOOOOOOOOOOOOOOOOOOOOOOOOOOOOOOOOOOOOOOOOOOOOOOOOOOO",
"OOOOOOOOOOOOOOOOOOOOOOOOOOOOOOOOOOOOOOOOOOOOOOOOOOOOOOOOOOOOOOOO",
"OOOOOOOOOOOOOOOOOOOOOOOOOOOOOOOOOOOOOOOOOOOOOOOOOOOOOOOOOOOOOOOO",
"OOOOOOOOOOOOOOOOOOOOOOOOOOOOOOOOOOOOOOOOOOOOOOOOOOOOOOOOOOOOOOOO",
"OOOOOOOOOOOOOOOOOOOOOOOOOOOOOOOOOOOOOOOOOOOOOOOOOOOOOOOOOOOOOOOO",
"OOOOOOOOOOOOOOOOOOOOOOOOOOOOOOOOOOOOOOOOOOOOOOOOOOOOOOOOOOOOOOOO",
"OOOOOOOOOOOOOOOOOOOOOOOOOOOOOOOOOOOOOOOOOOOOOOOOOOOOOOOOOOOOOOOO"
};
