/* XPM */
static char *water_01706114102[] = {
/* columns rows colors chars-per-pixel */
"64 64 5 1 ",
"  c #33B8C5",
". c #30BDCB",
"X c #2BC1C7",
"o c #34CBD1",
"O c #64DDE3",
/* pixels */
"XXXXXXXXXXXXXXXXXXXXXXooooXXXXXXXX............oo......XXXXXXXXXX",
"XXXXXXXXXXXXXXXXXXXXXXooooXXXXXXXX............oo......XXXXXXXXXX",
"XXXXXXXXXXXXXXXXXXXXooooXXXXXX................oo........XXXXXXXX",
"XXXXXXXXXXXXXXXXXXXXooooXXXXXX................oo........XXXXXXXX",
"..........XXXXXXooooXXXXXX..........XXXXXXooOOXXoooo............",
"..........XXXXXXooooXXXXXX..........XXXXXXooOOXXoooo............",
"........ooooooOOoooo..........XXXXXXooooooXXXXXXXXoooooo........",
"........ooooooOOoooo..........XXXXXXooooooXXXXXXXXoooooo........",
"ooooOOooXXXX....    oo..XXXXXXooooooooXXXXXXXXXXXXXXXXoooooooooo",
"ooooOOooXXXX....    oo..XXXXXXooooooooXXXXXXXXXXXXXXXXoooooooooo",
"ooXXXXXXXXXXXX......  ooooOOOOooXXXXXXXXXXXXXXXXXX........XXXXoo",
"ooXXXXXXXXXXXX......  ooooOOOOooXXXXXXXXXXXXXXXXXX........XXXXoo",
"XXooXXXXXXXXXXXXXX..............oooo................XXXXXXXXXXXX",
"XXooXXXXXXXXXXXXXX..............oooo................XXXXXXXXXXXX",
"XXooXXXXXXXXXXXXXXXXXXXXXX..........oo........XXXXXXXXXXXXXXXXXX",
"XXooXXXXXXXXXXXXXXXXXXXXXX..........oo........XXXXXXXXXXXXXXXXXX",
"..ooooooXXXXXXXXXXXXXXXXXXXX..........oooo......................",
"..ooooooXXXXXXXXXXXXXXXXXXXX..........oooo......................",
"oo......ooooooooXXXXXXXXXXXXXXXXXXXX....oo......................",
"oo......ooooooooXXXXXXXXXXXXXXXXXXXX....oo......................",
"................ooooooXXXXXXXXXXXX........oooooooo............oo",
"................ooooooXXXXXXXXXXXX........oooooooo............oo",
"XXXXXX................ooooooooooOOOOOO            oooo..oooooo..",
"XXXXXX................ooooooooooOOOOOO            oooo..oooooo..",
"XXXXXXXXXXXX..........oooo............XXXXXXXXXXXXXXXXooooXXXXXX",
"XXXXXXXXXXXX..........oooo............XXXXXXXXXXXXXXXXooooXXXXXX",
"XXXXXXXXXXXXXXXXXXXXoooo............XXXXXXXXXXXXXXXXXXXXOOOOXXXX",
"XXXXXXXXXXXXXXXXXXXXoooo............XXXXXXXXXXXXXXXXXXXXOOOOXXXX",
"XXXXXXXXXXXXXXXX....oo......................XXXXXXXXXXooXXXXOOOO",
"XXXXXXXXXXXXXXXX....oo......................XXXXXXXXXXooXXXXOOOO",
"OOooooOOOOXXXX......oo........................XXXXXXoo  XXXXXXXX",
"OOooooOOOOXXXX......oo........................XXXXXXoo  XXXXXXXX",
"XXXX......oooo......oo........XXXXXXXX..........oooo  XXXXXXXXXX",
"XXXX......oooo......oo........XXXXXXXX..........oooo  XXXXXXXXXX",
"..............ooooooooooXXXXooooooooooooooOOoooo    ............",
"..............ooooooooooXXXXooooooooooooooOOoooo    ............",
"................OOOOOOooooooXXXXXXXXXXXXXXXXOOXX................",
"................OOOOOOooooooXXXXXXXXXXXXXXXXOOXX................",
"..........XXXXOOOOXXXXXXXXXXXXXXXXXXXXXXXXXXXXOOXXXX............",
"..........XXXXOOOOXXXXXXXXXXXXXXXXXXXXXXXXXXXXOOXXXX............",
"....XXXXXXXXoooo  XXXXXXXXXXXXXXXXXX..........OOoo..............",
"....XXXXXXXXoooo  XXXXXXXXXXXXXXXXXX..........OOoo..............",
"XXXXXXooOOOOOOooooooooXXXXXXXXXXXX..............oooo..........XX",
"XXXXXXooOOOOOOooooooooXXXXXXXXXXXX..............oooo..........XX",
"OOooooXXXXXXXXXXXX    ooXXXXXXXXXXXXXXXX......oo....oooooo......",
"OOooooXXXXXXXXXXXX    ooXXXXXXXXXXXXXXXX......oo....oooooo......",
"......XXXXXXXXXXXXXXXX  ooooXXXXXXXX........oo............ooooOO",
"......XXXXXXXXXXXXXXXX  ooooXXXXXXXX........oo............ooooOO",
"......XXXXXXXXXXXXXX....    ooXX......ooooooXXXXXXXXXXXXXXXXXXOO",
"......XXXXXXXXXXXXXX....    ooXX......ooooooXXXXXXXXXXXXXXXXXXOO",
"........XXXXXX..............  oo....ooXXXXXXXXXXXXXXXXXXXXXX..oo",
"........XXXXXX..............  oo....ooXXXXXXXXXXXXXXXXXXXXXX..oo",
"oo..........................    ooooooXXXXXXXXXXXXXXXX..........",
"oo..........................    ooooooXXXXXXXXXXXXXXXX..........",
"..oo........................    ooooooOOOOOOXXXXXXXXXXXXXX......",
"..oo........................    ooooooOOOOOOXXXXXXXXXXXXXX......",
"oooooooooo................  oooo........XXXXOOXXXXXXXX..........",
"oooooooooo................  oooo........XXXXOOXXXXXXXX..........",
"..........oooooooo......  ooOO................OOXX............oo",
"..........oooooooo......  ooOO................OOXX............oo",
"XXXXXX..........ooooooXXooOOXX................OOoo........oooooo",
"XXXXXX..........ooooooXXooOOXX................OOoo........oooooo",
"XXXXXXXXXXXXXXXXXXXXXXooooXXXXXXXXXXXX........OOOOOOoooooooo..XX",
"XXXXXXXXXXXXXXXXXXXXXXooooXXXXXXXXXXXX........OOOOOOoooooooo..XX"
};
