/* XPM */
static char *water_51706114103[] = {
/* columns rows colors chars-per-pixel */
"64 64 6 1 ",
"  c #33B8C5",
". c #30BDCB",
"X c #2BC1C7",
"o c #34CBD1",
"O c #64DDE3",
"+ c #EDFAFE",
/* pixels */
"XXXXXX............XXXXooXXXXXX................oo..............XX",
"XXXXXX............XXXXooXXXXXX................oo..............XX",
"XXXXXXXXXXXXXXXXXXXXooXXXXXXXXXXXXXXXX........OO..............XX",
"XXXXXXXXXXXXXXXXXXXXooXXXXXXXXXXXXXXXX........OO..............XX",
"XXXXXXXXXXXXXXXXOOooooXXXXXXXXXXXX........ooOOOOOOoo..XXXXXXXXXX",
"XXXXXXXXXXXXXXXXOOooooXXXXXXXXXXXX........ooOOOOOOoo..XXXXXXXXXX",
"XXXXXXXXooooooOOooooXXXXXXXXXX........oooo..........ooooXXXXXXXX",
"XXXXXXXXooooooOOooooXXXXXXXXXX........oooo..........ooooXXXXXXXX",
"ooOOOOOO..XXXXXXXX  ooXXXX......ooooooXXXXXXXXXX........oooooooo",
"ooOOOOOO..XXXXXXXX  ooXXXX......ooooooXXXXXXXXXX........oooooooo",
"oo............XXXXXX  ooooooOOOOXXXXXXXXXXXXXXXXXX............oo",
"oo............XXXXXX  ooooooOOOOXXXXXXXXXXXXXXXXXX............oo",
"XXooXXXXXXXX............XXXXXXXXooooooXXXXXXXXXXXXXXXX......XXXX",
"XXooXXXXXXXX............XXXXXXXXooooooXXXXXXXXXXXXXXXX......XXXX",
"XXooooXXXXXXXX..................XXXXXXooXXXXXXXXXX........XXXXXX",
"XXooooXXXXXXXX..................XXXXXXooXXXXXXXXXX........XXXXXX",
"XXooXXooooXXXXXXXX......................oo..........XXXXXXXXXXXX",
"XXooXXooooXXXXXXXX......................oo..........XXXXXXXXXXXX",
"ooXXXXXXXXooooooXXXXXXXXXX............oooo....XXXXXXXXXXXXXXXXXX",
"ooXXXXXXXXooooooXXXXXXXXXX............oooo....XXXXXXXXXXXXXXXXXX",
"....XXXXXXXXXXXXooooXXXXXXXX..........oooooooooooo..........oooo",
"....XXXXXXXXXXXXooooXXXXXXXX..........oooooooooooo..........oooo",
"..........XXXXXXXXXXooooooooooooooooOO............oooo..oooo....",
"..........XXXXXXXXXXooooooooooooooooOO............oooo..oooo....",
"..................XXXXooooXXXXXXXX....................OOoo......",
"..................XXXXooooXXXXXXXX....................OOoo......",
"XXXXXX................oo................................++OO....",
"XXXXXX................oo................................++OO....",
"XXXXXXXXXXXX........oooo..............XXXXXXXXXXXXXXXXOO....OOOO",
"XXXXXXXXXXXX........oooo..............XXXXXXXXXXXXXXXXOO....OOOO",
"ooooooooOOXXXXXXXXXXoo..............XXXXXXXXXXXXXXXXOOXXXXXX....",
"ooooooooOOXXXXXXXXXXoo..............XXXXXXXXXXXXXXXXOOXXXXXX....",
"..........OOOOXX....oo......................XXXXooooXXXXXXXXXXXX",
"..........OOOOXX....oo......................XXXXooooXXXXXXXXXXXX",
"XXXXXXXXXX....oooooooooo....ooooooooooooOOOOoooo    XXXXXXXXXXXX",
"XXXXXXXXXX....oooooooooo....ooooooooooooOOOOoooo    XXXXXXXXXXXX",
"XXXXXXXX........ooOO++++OOoo..XXXXXXXX......OO........XXXXXXXXXX",
"XXXXXXXX........ooOO++++OOoo..XXXXXXXX......OO........XXXXXXXXXX",
"..............oooo  ....XXXXXXXXXXXXXXXXXXXX..OO................",
"..............oooo  ....XXXXXXXXXXXXXXXXXXXX..OO................",
"............oooo    XXXXXXXXXXXXXXXXXXXXXXXXXXOOoo..............",
"............oooo    XXXXXXXXXXXXXXXXXXXXXXXXXXOOoo..............",
"......ooooOOOOOOOOooooXXXXXXXXXXXXXXXXXXXXXXXXXXOOOO............",
"......ooooOOOOOOOOooooXXXXXXXXXXXXXXXXXXXXXXXXXXOOOO............",
"ooooooXXXXXXXXXXXXXX  ooooXXXXXXXXXX..........oooooooooooo......",
"ooooooXXXXXXXXXXXXXX  ooooXXXXXXXXXX..........oooooooooooo......",
"XXXXXXXXXXXXXXXXXXXXXX    ooooXXXX..........oooo..........OOOOOO",
"XXXXXXXXXXXXXXXXXXXXXX    ooooXXXX..........oooo..........OOOOOO",
"XXXXXXXXXXXXXXXXXXXXXXXX      ooXXXXXXoooooo..................oo",
"XXXXXXXXXXXXXXXXXXXXXXXX      ooXXXXXXoooooo..................oo",
"......XXXXXXXXXXXXXXXXXXXXXX    oooooo........................oo",
"......XXXXXXXXXXXXXXXXXXXXXX    oooooo........................oo",
"oo....XXXXXXXXXXXXXX......XXXX  oooooo......XXXXXXXXXXXXXXXXXX..",
"oo....XXXXXXXXXXXXXX......XXXX  oooooo......XXXXXXXXXXXXXXXXXX..",
"..oo....XXXXXX..............    ooooooOOOOooXXXXXXXXXXXXXXXX....",
"..oo....XXXXXX..............    ooooooOOOOooXXXXXXXXXXXXXXXX....",
"..oooooooooo..............  oooo..XXXXXXXXOOXXXXXXXXXX..........",
"..oooooooooo..............  oooo..XXXXXXXXOOXXXXXXXXXX..........",
"oo..........oooooo......  ooOO..XXXXXXXXXXXXooXXXXXXXXXXXX....oo",
"oo..........oooooo......  ooOO..XXXXXXXXXXXXooXXXXXXXXXXXX....oo",
"................oooo....ooOO............XXXXXXOOXXXXXX....oooo..",
"................oooo....ooOO............XXXXXXOOXXXXXX....oooo..",
"....................oooooo....................OOoooooooooo......",
"....................oooooo....................OOoooooooooo......"
};
