/* XPM */
static char *water_31706114103[] = {
/* columns rows colors chars-per-pixel */
"64 64 6 1 ",
"  c #33B8C5",
". c #30BDCB",
"X c #2BC1C7",
"o c #34CBD1",
"O c #64DDE3",
"+ c #EDFAFE",
/* pixels */
"XXXXXX............XXXXooXXXXXX................oo..............XX",
"XXXXXX............XXXXooXXXXXX................oo..............XX",
"XXXXXXXXXXXXXXXXXXXXooXXXXXXXXXXXX............oo..............XX",
"XXXXXXXXXXXXXXXXXXXXooXXXXXXXXXXXX............oo..............XX",
"XXXXXXXXXXXXXXXXooooXXXXXXXXXX..........ooooOOOOOOoo....XXXXXXXX",
"XXXXXXXXXXXXXXXXooooXXXXXXXXXX..........ooooOOOOOOoo....XXXXXXXX",
"........ooooooOOooooXXXXXX............oooo..........oooo........",
"........ooooooOOooooXXXXXX............oooo..........oooo........",
"ooOOOOoo......XX    oo..........ooooooXXXXXXXXXX......oooooooooo",
"ooOOOOoo......XX    oo..........ooooooXXXXXXXXXX......oooooooooo",
"oo..................  ooooooOOOOXXXXXXXXXXXXXXXXXX............oo",
"oo..................  ooooooOOOOXXXXXXXXXXXXXXXXXX............oo",
"XXooXXXXXXXX....................OOooooXXXXXXXXXXXX..........XXXX",
"XXooXXXXXXXX....................OOooooXXXXXXXXXXXX..........XXXX",
"XXooooXXXXXXXX......................oo....................XXXXXX",
"XXooooXXXXXXXX......................oo....................XXXXXX",
"ooooooooXXXXXXXXXX....................oo............XXXXXXXXXXXX",
"ooooooooXXXXXXXXXX....................oo............XXXXXXXXXXXX",
"oo..XXXXooooooXXXXXXXXXXXX............oo........................",
"oo..XXXXooooooXXXXXXXXXXXX............oo........................",
"..........XXXXooooooXXXXXXXX..........oooooooooooo............oo",
"..........XXXXooooooXXXXXXXX..........oooooooooooo............oo",
"..................XXooooooooooooOOOOoo    ....    oooo..oooooo..",
"..................XXooooooooooooOOOOoo    ....    oooo..oooooo..",
"......................oooo............................OOoo......",
"......................oooo............................OOoo......",
"XXXXXX................oo................................++OO....",
"XXXXXX................oo................................++OO....",
"XXXXXXXXXXXX........oo................XXXXXXXXXXXXXXXXOO....OOoo",
"XXXXXXXXXXXX........oo................XXXXXXXXXXXXXXXXOO....OOoo",
"ooooOOOOOOXXXXXX....oo......................XXXXXXXXOOXXXXXX....",
"ooooOOOOOOXXXXXX....oo......................XXXXXXXXOOXXXXXX....",
"..........OOoo......oo........................XXooooXXXXXXXXXXXX",
"..........OOoo......oo........................XXooooXXXXXXXXXXXX",
"XXXXXXXX......oooooooooo....ooooooooooOOOOOOoooo    ..XXXXXXXXXX",
"XXXXXXXX......oooooooooo....ooooooooooOOOOOOoooo    ..XXXXXXXXXX",
"................OOOO++OOOOoo..XXXXXXXX......OO..................",
"................OOOO++OOOOoo..XXXXXXXX......OO..................",
"..............oooo......XXXXXXXXXXXXXXXXXXXX..OO................",
"..............oooo......XXXXXXXXXXXXXXXXXXXX..OO................",
"............oooo  ..XXXXXXXXXXXXXXXXXXXXXXXXXXOOoo..............",
"............oooo  ..XXXXXXXXXXXXXXXXXXXXXXXXXXOOoo..............",
"......ooooooOOOOOOooooooXXXXXXXXXXXX............OOoo............",
"......ooooooOOOOOOooooooXXXXXXXXXXXX............OOoo............",
"ooooooXXXXXXXXXXXXXX    ooXXXXXXXX............oo....oooooo......",
"ooooooXXXXXXXXXXXXXX    ooXXXXXXXX............oo....oooooo......",
"XXXXXXXXXXXXXXXXXXXXXX    ooooXXXX..........oooo..........OOOOOO",
"XXXXXXXXXXXXXXXXXXXXXX    ooooXXXX..........oooo..........OOOOOO",
"......XXXXXXXXXXXXXXXXXX    ooXXXXXX....oooooo................oo",
"......XXXXXXXXXXXXXXXXXX    ooXXXXXX....oooooo................oo",
"......XXXXXXXXXXXXXX......XX  oo....oooo......................oo",
"......XXXXXXXXXXXXXX......XX  oo....oooo......................oo",
"oo......XXXXXX................  oooooo......XXXXXXXXXXXXXXXX....",
"oo......XXXXXX................  oooooo......XXXXXXXXXXXXXXXX....",
"..oo........................    ooooOOOOooXXXXXXXXXXXX..........",
"..oo........................    ooooOOOOooXXXXXXXXXXXX..........",
"..oooooooo................  oooo..XXXXXXXXooXXXXXXXXXX..........",
"..oooooooo................  oooo..XXXXXXXXooXXXXXXXXXX..........",
"oooo......oooooo........  ooOO..........XXXXooXXXXXXXX........oo",
"oooo......oooooo........  ooOO..........XXXXooXXXXXXXX........oo",
"................oooo....ooOO..................OOoo........oooooo",
"................oooo....ooOO..................OOoo........oooooo",
"....................oooooo....................OOoooooooooo......",
"....................oooooo....................OOoooooooooo......"
};
