/* XPM */
static char *water_41706114103[] = {
/* columns rows colors chars-per-pixel */
"64 64 6 1 ",
"  c #33B8C5",
". c #30BDCB",
"X c #2BC1C7",
"o c #34CBD1",
"O c #64DDE3",
"+ c #EDFAFE",
/* pixels */
"XXXXXX............XXXXooXXXXXX................oo..............XX",
"XXXXXX............XXXXooXXXXXX................oo..............XX",
"XXXXXXXXXXXXXXXXXXXXooXXXXXXXXXXXXXXXX........OO..............XX",
"XXXXXXXXXXXXXXXXXXXXooXXXXXXXXXXXXXXXX........OO..............XX",
"XXXXXXXXXXXXXXXXooooXXXXXXXXXXXXXX........ooOOOOOOoo..XXXXXXXXXX",
"XXXXXXXXXXXXXXXXooooXXXXXXXXXXXXXX........ooOOOOOOoo..XXXXXXXXXX",
"XXXXXXXXooooooOOooooXXXXXXXXXX........oooo..........ooooXXXXXXXX",
"XXXXXXXXooooooOOooooXXXXXXXXXX........oooo..........ooooXXXXXXXX",
"ooOOOOOO..XXXXXX    ooXXXX......ooooooXXXXXXXXXX......oooooooooo",
"ooOOOOOO..XXXXXX    ooXXXX......ooooooXXXXXXXXXX......oooooooooo",
"oo............XXXXXX  ooooooOOOOXXXXXXXXXXXXXXXXXX............oo",
"oo............XXXXXX  ooooooOOOOXXXXXXXXXXXXXXXXXX............oo",
"XXooXXXXXXXX............XXXXXXXXOOooooXXXXXXXXXXXXXXXX......XXXX",
"XXooXXXXXXXX............XXXXXXXXOOooooXXXXXXXXXXXXXXXX......XXXX",
"XXooooXXXXXXXX..................XXXXXXooXXXXXXXXXX........XXXXXX",
"XXooooXXXXXXXX..................XXXXXXooXXXXXXXXXX........XXXXXX",
"ooooXXooooXXXXXXXX....................oo............XXXXXXXXXXXX",
"ooooXXooooXXXXXXXX....................oo............XXXXXXXXXXXX",
"ooXXXXXXXXooooXXXXXXXXXXXX............oo......XXXXXXXXXXXXXXXXXX",
"ooXXXXXXXXooooXXXXXXXXXXXX............oo......XXXXXXXXXXXXXXXXXX",
"....XXXXXXXXXXooooooXXXXXXXX..........oooooooooooo..........oooo",
"....XXXXXXXXXXooooooXXXXXXXX..........oooooooooooo..........oooo",
"..........XXXXXXXXXXooooooooooooooOOOO............oooo..oooo....",
"..........XXXXXXXXXXooooooooooooooOOOO............oooo..oooo....",
"..................XXXXooooXXXXXXXX....................OOoo......",
"..................XXXXooooXXXXXXXX....................OOoo......",
"XXXXXX................oo................................++OO....",
"XXXXXX................oo................................++OO....",
"XXXXXXXXXXXX........oooo..............XXXXXXXXXXXXXXXXOO....OOoo",
"XXXXXXXXXXXX........oooo..............XXXXXXXXXXXXXXXXOO....OOoo",
"ooooooOOOOXXXXXXXXXXoo..............XXXXXXXXXXXXXXXXOOXXXXXX....",
"ooooooOOOOXXXXXXXXXXoo..............XXXXXXXXXXXXXXXXOOXXXXXX....",
"..........OOOOXX....oo......................XXXXooooXXXXXXXXXXXX",
"..........OOOOXX....oo......................XXXXooooXXXXXXXXXXXX",
"XXXXXXXXXX....oooooooooo....ooooooooooOOOOOOoooo    XXXXXXXXXXXX",
"XXXXXXXXXX....oooooooooo....ooooooooooOOOOOOoooo    XXXXXXXXXXXX",
"XXXXXXXX........ooOO++OOOOoo..XXXXXXXX......OO........XXXXXXXXXX",
"XXXXXXXX........ooOO++OOOOoo..XXXXXXXX......OO........XXXXXXXXXX",
"..............oooo......XXXXXXXXXXXXXXXXXXXX..OO................",
"..............oooo......XXXXXXXXXXXXXXXXXXXX..OO................",
"............oooo  ..XXXXXXXXXXXXXXXXXXXXXXXXXXOOoo..............",
"............oooo  ..XXXXXXXXXXXXXXXXXXXXXXXXXXOOoo..............",
"......ooooooOOOOOOooooooXXXXXXXXXXXXXXXXXXXXXXXXOOOO............",
"......ooooooOOOOOOooooooXXXXXXXXXXXXXXXXXXXXXXXXOOOO............",
"ooooooXXXXXXXXXXXXXX    ooXXXXXXXXXX..........oooooooooooo......",
"ooooooXXXXXXXXXXXXXX    ooXXXXXXXXXX..........oooooooooooo......",
"XXXXXXXXXXXXXXXXXXXXXX    ooooXXXX..........oooo..........OOOOoo",
"XXXXXXXXXXXXXXXXXXXXXX    ooooXXXX..........oooo..........OOOOoo",
"XXXXXXXXXXXXXXXXXXXXXXXX      ooXXXXXXoooooooo................oo",
"XXXXXXXXXXXXXXXXXXXXXXXX      ooXXXXXXoooooooo................oo",
"......XXXXXXXXXXXXXXXXXXXXXX  ooXXXXoo........................oo",
"......XXXXXXXXXXXXXXXXXXXXXX  ooXXXXoo........................oo",
"oo....XXXXXXXXXXXXXX......XXXX  oooooo......XXXXXXXXXXXXXXXXXX..",
"oo....XXXXXXXXXXXXXX......XXXX  oooooo......XXXXXXXXXXXXXXXXXX..",
"..oo....XXXXXX..............    ooooOOOOooXXXXXXXXXXXXXXXXXX....",
"..oo....XXXXXX..............    ooooOOOOooXXXXXXXXXXXXXXXXXX....",
"..oooooooooo..............  oooo..XXXXXXXXooXXXXXXXXXX..........",
"..oooooooooo..............  oooo..XXXXXXXXooXXXXXXXXXX..........",
"oooo......oooooo........  ooOO..XXXXXXXXXXXXooXXXXXXXXXXXX....oo",
"oooo......oooooo........  ooOO..XXXXXXXXXXXXooXXXXXXXXXXXX....oo",
"................oooo....ooOO............XXXXXXOOooXXXX....oooo..",
"................oooo....ooOO............XXXXXXOOooXXXX....oooo..",
"....................oooooo....................OOoooooooooo......",
"....................oooooo....................OOoooooooooo......"
};
