/* XPM */
static char *water_71706114104[] = {
/* columns rows colors chars-per-pixel */
"64 64 5 1 ",
"  c #33B8C5",
". c #30BDCB",
"X c #2BC1C7",
"o c #34CBD1",
"O c #64DDE3",
/* pixels */
"XXXXXXXXXXXXXXXXXXXXXXooooXXXXXXXXXXXX........oo..............XX",
"XXXXXXXXXXXXXXXXXXXXXXooooXXXXXXXXXXXX........oo..............XX",
"XXXXXXXXXXXXXXXXXXXXooooXXXXXXXXXX............oo......XXXXXXXXXX",
"XXXXXXXXXXXXXXXXXXXXooooXXXXXXXXXX............oo......XXXXXXXXXX",
"XXXXXXXXXXXXXXXXOOooooXXXXXXXX............ooOOOOoooo....XXXXXXXX",
"XXXXXXXXXXXXXXXXOOooooXXXXXXXX............ooOOOOoooo....XXXXXXXX",
"........ooooooOOooooXXXXXX..........XXooooXXXXXX....oooo........",
"........ooooooOOooooXXXXXX..........XXooooXXXXXX....oooo........",
"ooooOOOO......XX    oo........ooooooooXXXXXXXXXXXX....oooooooooo",
"ooooOOOO......XX    oo........ooooooooXXXXXXXXXXXX....oooooooooo",
"ooXXXXXXXXXX........  ooooOOOOooXXXXXXXXXXXXXXXXXXXXXX......XXoo",
"ooXXXXXXXXXX........  ooooOOOOooXXXXXXXXXXXXXXXXXXXXXX......XXoo",
"XXooXXXXXXXXXX..................ooooXXXXXXXXXXXXXX........XXXXXX",
"XXooXXXXXXXXXX..................ooooXXXXXXXXXXXXXX........XXXXXX",
"XXooXXXXXXXXXXXXXX..................oooo............XXXXXXXXXXXX",
"XXooXXXXXXXXXXXXXX..................oooo............XXXXXXXXXXXX",
"XXooooooooXXXXXXXXXXXXXXXX............oooo....XXXXXXXXXXXXXXXXXX",
"XXooooooooXXXXXXXXXXXXXXXX............oooo....XXXXXXXXXXXXXXXXXX",
"oo..XXXXXXooooooXXXXXXXXXXXX............oo......................",
"oo..XXXXXXooooooXXXXXXXXXXXX............oo......................",
"..........XXXXXXooooooXXXXXXXXXXXXXX....oooooooooo..........oooo",
"..........XXXXXXooooooXXXXXXXXXXXXXX....oooooooooo..........oooo",
"..................XXXXooooooooooOOOOOO            oooo..oooo....",
"..................XXXXooooooooooOOOOOO            oooo..oooo....",
"XXXXXX................oooo............................OOoo......",
"XXXXXX................oooo............................OOoo......",
"XXXXXXXXXXXX........oooo..............XXXXXXXXXXXXXXXXXXOOOOXXXX",
"XXXXXXXXXXXX........oooo..............XXXXXXXXXXXXXXXXXXOOOOXXXX",
"XXXXXXXXXXXXXXXXXXXXoo..............XXXXXXXXXXXXXXXXXXoo....OOOO",
"XXXXXXXXXXXXXXXXXXXXoo..............XXXXXXXXXXXXXXXXXXoo....OOOO",
"OOooooooOOXXXXXX....oo......................XXXXXXXXoo  XXXX....",
"OOooooooOOXXXXXX....oo......................XXXXXXXXoo  XXXX....",
"XXXXXXXXXXOOoo......oo........................XXoooo  XXXXXXXXXX",
"XXXXXXXXXXOOoo......oo........................XXoooo  XXXXXXXXXX",
"XXXXXXXX......oooooooooo....ooooooooooooooOOoooo    ..XXXXXXXXXX",
"XXXXXXXX......oooooooooo....ooooooooooooooOOoooo    ..XXXXXXXXXX",
"................OOOOOOooooooXXXXXXXXXXXXXXXXOO..................",
"................OOOOOOooooooXXXXXXXXXXXXXXXXOO..................",
"..............ooOO..XXXXXXXXXXXXXXXXXXXXXXXXXXOO................",
"..............ooOO..XXXXXXXXXXXXXXXXXXXXXXXXXXOO................",
"..........XXoooo    XXXXXXXXXXXXXXXXXXXXXXXXXXOOooXX............",
"..........XXoooo    XXXXXXXXXXXXXXXXXXXXXXXXXXOOooXX............",
"....XXooOOOOOOOOooooooXXXXXXXXXXXXXX............OOoo............",
"....XXooOOOOOOOOooooooXXXXXXXXXXXXXX............OOoo............",
"OOooooXXXXXXXXXXXX    ooXXXXXXXXXX............oooooooooooo....XX",
"OOooooXXXXXXXXXXXX    ooXXXXXXXXXX............oooooooooooo....XX",
"XXXXXXXXXXXXXXXXXXXXXX  ooooXXXXXXXXXXXX....oo............ooOOOO",
"XXXXXXXXXXXXXXXXXXXXXX  ooooXXXXXXXXXXXX....oo............ooOOOO",
"......XXXXXXXXXXXXXXXXXX    ooooXXXX..oooooo..................OO",
"......XXXXXXXXXXXXXXXXXX    ooooXXXX..oooooo..................OO",
"......XXXXXXXXXXXXXX......XX  oooooooo......XXXXXXXXXXXXXXXXXXoo",
"......XXXXXXXXXXXXXX......XX  oooooooo......XXXXXXXXXXXXXXXXXXoo",
"oo......XXXXXX..............    ooooooXXXXXXXXXXXXXXXXXXXXXX....",
"oo......XXXXXX..............    ooooooXXXXXXXXXXXXXXXXXXXXXX....",
"..oo........................    ooooooooOOOOXXXXXXXXXX..........",
"..oo........................    ooooooooOOOOXXXXXXXXXX..........",
"oooooooooooo..............  ooooXXXXXXXXXXXXOOXXXXXXXXXXXX......",
"oooooooooooo..............  ooooXXXXXXXXXXXXOOXXXXXXXXXXXX......",
"..........oooooooo......  ooOO..........XXXXooOOXXXXXX........oo",
"..........oooooooo......  ooOO..........XXXXooOOXXXXXX........oo",
"..................oooo..ooOO..................OOXX........oooo..",
"..................oooo..ooOO..................OOXX........oooo..",
"XXXXXX............XXXXooooXXXX................OOOOOOoooooooo..XX",
"XXXXXX............XXXXooooXXXX................OOOOOOoooooooo..XX"
};
