/* XPM */
static char *water_21706114102[] = {
/* columns rows colors chars-per-pixel */
"64 64 5 1 ",
"  c #33B8C5",
". c #30BDCB",
"X c #2BC1C7",
"o c #34CBD1",
"O c #64DDE3",
/* pixels */
"XXXXXXXXXXXXXXXXXXXXXXooooXXXXXXXXXXXX........oo..............XX",
"XXXXXXXXXXXXXXXXXXXXXXooooXXXXXXXXXXXX........oo..............XX",
"XXXXXXXXXXXXXXXXXXXXooXXXXXXXXXXXX............oo......XXXXXXXXXX",
"XXXXXXXXXXXXXXXXXXXXooXXXXXXXXXXXX............oo......XXXXXXXXXX",
"XXXXXXXXXXXXXXXXooooXXXXXXXXXX..........ooooOOOOoooo....XXXXXXXX",
"XXXXXXXXXXXXXXXXooooXXXXXXXXXX..........ooooOOOOoooo....XXXXXXXX",
"........ooooOOOOooooXXXXXX..........ooooooXXXXXX..oooooo........",
"........ooooOOOOooooXXXXXX..........ooooooXXXXXX..oooooo........",
"ooOOOOoo......XX    oo........XXooooooXXXXXXXXXXXX....oooooooooo",
"ooOOOOoo......XX    oo........XXooooooXXXXXXXXXXXX....oooooooooo",
"ooXXXXXXXXXX........  ooooOOOOOOXXXXXXXXXXXXXXXXXXXXXX......XXoo",
"ooXXXXXXXXXX........  ooooOOOOOOXXXXXXXXXXXXXXXXXXXXXX......XXoo",
"XXooXXXXXXXXXX..................OOooXXXXXXXXXXXXXX........XXXXXX",
"XXooXXXXXXXXXX..................OOooXXXXXXXXXXXXXX........XXXXXX",
"XXooXXXXXXXXXXXXXX..................oo..............XXXXXXXXXXXX",
"XXooXXXXXXXXXXXXXX..................oo..............XXXXXXXXXXXX",
"ooooooooXXXXXXXXXXXXXXXXXX............oo......XXXXXXXXXXXXXXXXXX",
"ooooooooXXXXXXXXXXXXXXXXXX............oo......XXXXXXXXXXXXXXXXXX",
"oo..XXXXooooooXXXXXXXXXXXXXX..........oooo......................",
"oo..XXXXooooooXXXXXXXXXXXXXX..........oooo......................",
"..........XXXXooooooXXXXXXXXXXXXXXXX..oooooooooooo............oo",
"..........XXXXooooooXXXXXXXXXXXXXXXX..oooooooooooo............oo",
"..................XXooooooooooooOOOOoo            oooo..oooooo..",
"..................XXooooooooooooOOOOoo            oooo..oooooo..",
"XXXXXX................oooo............................oooo......",
"XXXXXX................oooo............................oooo......",
"XXXXXXXXXXXX..........oo..............XXXXXXXXXXXXXXXXXXOOOOXXXX",
"XXXXXXXXXXXX..........oo..............XXXXXXXXXXXXXXXXXXOOOOXXXX",
"XXXXXXXXXXXXXXXXXXXXoo..............XXXXXXXXXXXXXXXXXXOO....OOoo",
"XXXXXXXXXXXXXXXXXXXXoo..............XXXXXXXXXXXXXXXXXXOO....OOoo",
"ooooOOOOOOXXXXXX....oo......................XXXXXXXXooXXXXXX....",
"ooooOOOOOOXXXXXX....oo......................XXXXXXXXooXXXXXX....",
"..........oooo......oo........................XXoooo  XXXXXXXXXX",
"..........oooo......oo........................XXoooo  XXXXXXXXXX",
"XXXXXXXX......oooooooooo....ooooooooooOOOOoooooo    ..XXXXXXXXXX",
"XXXXXXXX......oooooooooo....ooooooooooOOOOoooooo    ..XXXXXXXXXX",
"................OOOOOOOOooooXXXXXXXXXXXXXXXXOO..................",
"................OOOOOOOOooooXXXXXXXXXXXXXXXXOO..................",
"..............ooOO..XXXXXXXXXXXXXXXXXXXXXXXXXXOO................",
"..............ooOO..XXXXXXXXXXXXXXXXXXXXXXXXXXOO................",
"..........XXooooXXXXXXXXXXXXXXXXXXXXXXXXXXXXXXOOooXX............",
"..........XXooooXXXXXXXXXXXXXXXXXXXXXXXXXXXXXXOOooXX............",
"....XXooooOOOOOOOOooooooXXXXXXXXXXXX............oooo............",
"....XXooooOOOOOOOOooooooXXXXXXXXXXXX............oooo............",
"ooooooXXXXXXXXXXXX      ooXXXXXXXX............oo....oooooo....XX",
"ooooooXXXXXXXXXXXX      ooXXXXXXXX............oo....oooooo....XX",
"XXXXXXXXXXXXXXXXXXXXXX    ooXXXXXXXXXXXX....oo............ooOOOO",
"XXXXXXXXXXXXXXXXXXXXXX    ooXXXXXXXXXXXX....oo............ooOOOO",
"......XXXXXXXXXXXXXXXXXX    ooXXXXXX....oooooo................OO",
"......XXXXXXXXXXXXXXXXXX    ooXXXXXX....oooooo................OO",
"......XXXXXXXXXXXXXX......XX  oo....oooo....XXXXXXXXXXXXXXXXXXoo",
"......XXXXXXXXXXXXXX......XX  oo....oooo....XXXXXXXXXXXXXXXXXXoo",
"oo......XXXXXX..............    ooooooXXXXXXXXXXXXXXXXXXXXXX....",
"oo......XXXXXX..............    ooooooXXXXXXXXXXXXXXXXXXXXXX....",
"..oo........................    ooooOOOOOOXXXXXXXXXXXX..........",
"..oo........................    ooooOOOOOOXXXXXXXXXXXX..........",
"..oooooooo................  ooooXXXXXXXXXXooXXXXXXXXXXXXXX......",
"..oooooooo................  ooooXXXXXXXXXXooXXXXXXXXXXXXXX......",
"oooo......oooooo........  ooOO..........XXXXooooXXXXXX........oo",
"oooo......oooooo........  ooOO..........XXXXooooXXXXXX........oo",
"................oooooo..ooOO..................OOoo........oooooo",
"................oooooo..ooOO..................OOoo........oooooo",
"XXXXXX............XXooooooXXXX................OOOOoooooooooo..XX",
"XXXXXX............XXooooooXXXX................OOOOoooooooooo..XX"
};
