/* XPM */
static char *water_61706114104[] = {
/* columns rows colors chars-per-pixel */
"64 64 6 1 ",
"  c #33B8C5",
". c #30BDCB",
"X c #2BC1C7",
"o c #34CBD1",
"O c #64DDE3",
"+ c #EDFAFE",
/* pixels */
"XXXXXX............XXXXooXXXXXX................oo..............XX",
"XXXXXX............XXXXooXXXXXX................oo..............XX",
"XXXXXXXXXXXXXXXXXXXXooooXXXXXXXXXX............oo..............XX",
"XXXXXXXXXXXXXXXXXXXXooooXXXXXXXXXX............oo..............XX",
"XXXXXXXXXXXXXXXXOOooooXXXXXXXX............ooOOOOOOoo....XXXXXXXX",
"XXXXXXXXXXXXXXXXOOooooXXXXXXXX............ooOOOOOOoo....XXXXXXXX",
"........ooooooOOooooXXXXXX............oooo..........oooo........",
"........ooooooOOooooXXXXXX............oooo..........oooo........",
"ooooOOOO......XXXX  oo..........ooooooXXXXXXXXXX........oooooooo",
"ooooOOOO......XXXX  oo..........ooooooXXXXXXXXXX........oooooooo",
"oo..................  ooooooOOooXXXXXXXXXXXXXXXXXX............oo",
"oo..................  ooooooOOooXXXXXXXXXXXXXXXXXX............oo",
"XXooXXXXXXXX....................ooooooXXXXXXXXXXXX..........XXXX",
"XXooXXXXXXXX....................ooooooXXXXXXXXXXXX..........XXXX",
"XXooooXXXXXXXX........................oo..................XXXXXX",
"XXooooXXXXXXXX........................oo..................XXXXXX",
"XXooooooooXXXXXXXX......................oo..........XXXXXXXXXXXX",
"XXooooooooXXXXXXXX......................oo..........XXXXXXXXXXXX",
"oo..XXXXXXooooooXXXXXXXXXX..............oo......................",
"oo..XXXXXXooooooXXXXXXXXXX..............oo......................",
"..........XXXXXXooooooXXXXXX..........oooooooooooo..........oooo",
"..........XXXXXXooooooXXXXXX..........oooooooooooo..........oooo",
"..................XXXXooooooooooooOOOOoo  ......  oooo..oooo....",
"..................XXXXooooooooooooOOOOoo  ......  oooo..oooo....",
"......................oooo............................OOoo......",
"......................oooo............................OOoo......",
"XXXXXX................oo................................OOOO....",
"XXXXXX................oo................................OOOO....",
"XXXXXXXXXXXX........oo................XXXXXXXXXXXXXXXXOO....OOOO",
"XXXXXXXXXXXX........oo................XXXXXXXXXXXXXXXXOO....OOOO",
"OOooooooOOXXXXXX....oo......................XXXXXXXXooXXXXXX....",
"OOooooooOOXXXXXX....oo......................XXXXXXXXooXXXXXX....",
"..........OOOO......oo........................XXoooo  XXXXXXXXXX",
"..........OOOO......oo........................XXoooo  XXXXXXXXXX",
"XXXXXXXX......oooooooooo....ooooooooooooooOOoooo    ..XXXXXXXXXX",
"XXXXXXXX......oooooooooo....ooooooooooooooOOoooo    ..XXXXXXXXXX",
"................OOOO++OOoooo..XXXXXXXX......OO..................",
"................OOOO++OOoooo..XXXXXXXX......OO..................",
"..............oooo  ....XXXXXXXXXXXXXXXXXXXX..OO................",
"..............oooo  ....XXXXXXXXXXXXXXXXXXXX..OO................",
"............oooo    XXXXXXXXXXXXXXXXXXXXXXXXXXOOoo..............",
"............oooo    XXXXXXXXXXXXXXXXXXXXXXXXXXOOoo..............",
"......ooOOOOOOOOOOooooXXXXXXXXXXXXXX............OOOO............",
"......ooOOOOOOOOOOooooXXXXXXXXXXXXXX............OOOO............",
"ooooooXXXXXXXXXXXX    ooXXXXXXXXXX............oooooooooooo......",
"ooooooXXXXXXXXXXXX    ooXXXXXXXXXX............oooooooooooo......",
"XXXXXXXXXXXXXXXXXXXXXX  ooooooXXXX..........oooo..........OOOOOO",
"XXXXXXXXXXXXXXXXXXXXXX  ooooooXXXX..........oooo..........OOOOOO",
"......XXXXXXXXXXXXXXXXXX      ooXXXX..oooooo..................OO",
"......XXXXXXXXXXXXXXXXXX      ooXXXX..oooooo..................OO",
"......XXXXXXXXXXXXXX......XX    oooooo........................oo",
"......XXXXXXXXXXXXXX......XX    oooooo........................oo",
"oo......XXXXXX................  oooooo......XXXXXXXXXXXXXXXX....",
"oo......XXXXXX................  oooooo......XXXXXXXXXXXXXXXX....",
"..oo........................    ooooooooOOOOXXXXXXXXXX..........",
"..oo........................    ooooooooOOOOXXXXXXXXXX..........",
"oooooooooooo..............  oooo..XXXXXXXXooOOXXXXXXXX..........",
"oooooooooooo..............  oooo..XXXXXXXXooOOXXXXXXXX..........",
"............oooooo......  ooOO..........XXXXOOXXXXXXXX........oo",
"............oooooo......  ooOO..........XXXXOOXXXXXXXX........oo",
"..................oooo..ooOO..................OOXX........oooo..",
"..................oooo..ooOO..................OOXX........oooo..",
"....................oooooo....................ooOOoooooooo......",
"....................oooooo....................ooOOoooooooo......"
};
