/* XPM */
static char *chalice_71705995259[] = {
/* columns rows colors chars-per-pixel */
"64 64 18 1 ",
"  c None",
". c #83583B",
"X c #8C7521",
"o c #8B733D",
"O c #9E8322",
"+ c #A88F25",
"@ c #A29E2D",
"# c #B1AC24",
"$ c #C0A126",
"% c #C3AE2C",
"& c #C3BD28",
"* c #DAC62C",
"= c #ABE54C",
"- c #C0EC41",
"; c #E5FF92",
": c #E7FBAE",
"> c #ADBFC2",
", c white",
/* pixels */
"                                                                ",
"                                                                ",
"                                                                ",
"                                                                ",
"                                                                ",
"                                                                ",
"                                                                ",
"                                                                ",
"                                                                ",
"                                                                ",
"                                                                ",
"                                                                ",
"                                                                ",
"                            ,,                                  ",
"                           ,,,,                                 ",
"                           ,,,,                                 ",
"                            ,,                                  ",
"                                                                ",
"                                                                ",
"                                                                ",
"                                                                ",
"                                                                ",
"                                                                ",
"                                  ,,,,                          ",
"                                 ,,,>>,                         ",
"                                ,,,,,>,,                        ",
"                                ,>>,,,,,                        ",
"                                ,>>,,>,,                        ",
"                                ,,,,,>,,                        ",
"                                ,,,,,,,                         ",
"                         ,,,,-:,,,,,,,,                         ",
"                        ,,,>,,%%%%%%,,,-  ,                     ",
"                       ,>,,>,,;;;;;,,,%%-:                      ",
"                      ,,>,,,,,,;;;,,----%%,                     ",
"                     ,:,,,,,,,,,;;,,------*:                    ",
"                     :*-,,,>,,,,--,,,-----*-                    ",
"                    :*---*,,,,,;;;,,,,;;---*:                   ",
"                    :*--*--,,,,,;,,,,,--*--*:                   ",
"                    ---*----,,,,,,,,,,,--*---                   ",
"                    #-**--***,,,,,,,,,,*-**-#                   ",
"                    #-**-****,,,,,,,,,*****-#                   ",
"                    X:**-*,,,,,,,,,,,,*****-X                   ",
"                    X+:-**,,,,,,,,,,,%%**-:+X                   ",
"                    X++,,-O,,,,,,,,,%OO-::++X                   ",
"                     X+$$---OOOOOOOOO--:$$+X                    ",
"                     X+&$$$$=::,,::==$$$$&+X                    ",
"                      X&$$$$&&&&&&&&&$$$$&X                     ",
"                       .$$$$=&&&&&&&&$$$$.                      ",
"                        ..$$=&&&&&&&=$$..                       ",
"                       .oo...=&&&&&=...oo.                      ",
"                      .@@oooo.+&&&+.oooo@@.                     ",
"                     .@@ooooo.o&&&o.ooooo@@.                    ",
"                     X@@ooo..@@@&@@@..ooo@@X                    ",
"                     X&@@oo@@@&&&&&@@@oo@@&X                    ",
"                      X&=@@@@&&&&&&&@@@@&&X                     ",
"                       XX=&&@@@@@@@@@&=&XX                      ",
"                         XXX&&&====&&XXX                        ",
"                            XXXXXXXXX                           ",
"                                                                ",
"                                                                ",
"                                                                ",
"                                                                ",
"                                                                ",
"                                                                "
};
